ISO-10303-21;
HEADER;
FILE_DESCRIPTION(('ViewDefinition [CoordinationView]'),'2;1');
FILE_NAME('prompt_intent.ifc','2026-08-04T00:00:00',(''),(''),'tekton frontdoor IFC addition','tekton frontdoor','');
FILE_SCHEMA(('IFC4'));
ENDSEC;
DATA;
#1=IFCPERSON($,$,'',$,$,$,$,$);
#2=IFCORGANIZATION($,'tekton',$,$,$);
#3=IFCPERSONANDORGANIZATION(#1,#2,$);
#4=IFCAPPLICATION(#2,'1.0','tekton frontdoor IFC addition','tekton_frontdoor');
#5=IFCOWNERHISTORY(#3,#4,$,.NOCHANGE.,$,$,$,0);
#6=IFCDIRECTION((1.,0.,0.));
#7=IFCDIRECTION((0.,0.,1.));
#8=IFCCARTESIANPOINT((0.,0.,0.));
#9=IFCAXIS2PLACEMENT3D(#8,#7,#6);
#10=IFCGEOMETRICREPRESENTATIONCONTEXT($,'Model',3,1.E-05,#9,$);
#11=IFCGEOMETRICREPRESENTATIONSUBCONTEXT('Body','Model',*,*,*,*,#10,$,.MODEL_VIEW.,$);
#12=IFCSIUNIT(*,.LENGTHUNIT.,$,.METRE.);
#13=IFCSIUNIT(*,.AREAUNIT.,$,.SQUARE_METRE.);
#14=IFCSIUNIT(*,.VOLUMEUNIT.,$,.CUBIC_METRE.);
#15=IFCSIUNIT(*,.PLANEANGLEUNIT.,$,.RADIAN.);
#16=IFCSIUNIT(*,.ELECTRICVOLTAGEUNIT.,$,.VOLT.);
#17=IFCSIUNIT(*,.ELECTRICCURRENTUNIT.,$,.AMPERE.);
#18=IFCSIUNIT(*,.POWERUNIT.,$,.WATT.);
#19=IFCUNITASSIGNMENT((#12,#13,#14,#15,#16,#17,#18));
#20=IFCPROJECT('3MLrgmR92fP6zflR73GF$V',#5,'Electrical Room - 2500 A service',$,$,$,$,(#10),#19);
#21=IFCLOCALPLACEMENT($,#9);
#22=IFCSITE('2Otlrkvmtx7Uf1REpVEHzO',#5,'Site',$,$,#21,$,$,.ELEMENT.,$,$,$,$,$);
#23=IFCLOCALPLACEMENT(#21,#9);
#24=IFCBUILDING('0R8Ea26peMi5aeVAtSU6Bs',#5,'Building',$,$,#23,$,$,.ELEMENT.,$,$,$);
#25=IFCLOCALPLACEMENT(#23,#9);
#26=IFCBUILDINGSTOREY('0sUOU0JDFH0eQ90Y3HFT2k',#5,'Level 1',$,$,#25,$,$,.ELEMENT.,0.);
#27=IFCRELAGGREGATES('0gDq1dZFSe_kiHgEXyH5tk',#5,$,$,#20,(#22));
#28=IFCRELAGGREGATES('02xE1DG85cPBoFrrmSoz7i',#5,$,$,#22,(#24));
#29=IFCRELAGGREGATES('2rzk7PO2m$954MoleLbKUr',#5,$,$,#24,(#26));
#30=IFCCOLOURRGB($,0.611765,0.635294,0.639216);
#31=IFCSURFACESTYLERENDERING(#30,0.,$,$,$,$,$,$,.NOTDEFINED.);
#32=IFCSURFACESTYLE('tekton_gray',.BOTH.,(#31));
#33=IFCPRESENTATIONSTYLEASSIGNMENT((#32));
#34=IFCCARTESIANPOINTLIST3D(((-4.6736,-3.1496,0.),(4.6736,-3.1496,0.),(4.6736,-2.9464,0.),(-4.6736,-2.9464,0.),(-4.6736,-3.1496,3.6576),(4.6736,-3.1496,3.6576),(4.6736,-2.9464,3.6576),(-4.6736,-2.9464,3.6576)));
#35=IFCTRIANGULATEDFACESET(#34,$,$,((1,3,2),(1,4,3),(5,6,7),(5,7,8),(1,2,6),(1,6,5),(2,3,7),(2,7,6),(3,4,8),(3,8,7),(4,1,5),(4,5,8)),$);
#36=IFCSTYLEDITEM(#35,(#33),'wall_1');
#37=IFCCARTESIANPOINTLIST3D(((4.6736,-3.1496,0.),(4.6736,3.1496,0.),(4.4704,3.1496,0.),(4.4704,-3.1496,0.),(4.6736,-3.1496,3.6576),(4.6736,3.1496,3.6576),(4.4704,3.1496,3.6576),(4.4704,-3.1496,3.6576)));
#38=IFCTRIANGULATEDFACESET(#37,$,$,((1,3,2),(1,4,3),(5,6,7),(5,7,8),(1,2,6),(1,6,5),(2,3,7),(2,7,6),(3,4,8),(3,8,7),(4,1,5),(4,5,8)),$);
#39=IFCSTYLEDITEM(#38,(#33),'wall_2');
#40=IFCCARTESIANPOINTLIST3D(((4.6736,3.1496,0.),(-4.6736,3.1496,0.),(-4.6736,2.9464,0.),(4.6736,2.9464,0.),(4.6736,3.1496,3.6576),(-4.6736,3.1496,3.6576),(-4.6736,2.9464,3.6576),(4.6736,2.9464,3.6576)));
#41=IFCTRIANGULATEDFACESET(#40,$,$,((1,3,2),(1,4,3),(5,6,7),(5,7,8),(1,2,6),(1,6,5),(2,3,7),(2,7,6),(3,4,8),(3,8,7),(4,1,5),(4,5,8)),$);
#42=IFCSTYLEDITEM(#41,(#33),'wall_3');
#43=IFCCARTESIANPOINTLIST3D(((-4.6736,3.1496,0.),(-4.6736,-3.1496,0.),(-4.4704,-3.1496,0.),(-4.4704,3.1496,0.),(-4.6736,3.1496,3.6576),(-4.6736,-3.1496,3.6576),(-4.4704,-3.1496,3.6576),(-4.4704,3.1496,3.6576)));
#44=IFCTRIANGULATEDFACESET(#43,$,$,((1,3,2),(1,4,3),(5,6,7),(5,7,8),(1,2,6),(1,6,5),(2,3,7),(2,7,6),(3,4,8),(3,8,7),(4,1,5),(4,5,8)),$);
#45=IFCSTYLEDITEM(#44,(#33),'wall_4');
#46=IFCSHAPEREPRESENTATION(#11,'Body','Tessellation',(#35,#38,#41,#44));
#47=IFCPRODUCTDEFINITIONSHAPE($,$,(#46));
#48=IFCLOCALPLACEMENT(#25,#9);
#49=IFCBUILDINGELEMENTPROXY('3IbGpJDS3F$fcDQ2mI6q2y',#5,'Electrical Room room shell',$,$,#48,#47,$,$);
#50=IFCPROPERTYSINGLEVALUE('RoomName',$,IFCLABEL('Electrical Room'),$);
#51=IFCPROPERTYSINGLEVALUE('ClearWidth',$,IFCREAL(9.144),$);
#52=IFCPROPERTYSINGLEVALUE('ClearDepth',$,IFCREAL(6.096),$);
#53=IFCPROPERTYSINGLEVALUE('ClearHeight',$,IFCREAL(3.6576),$);
#54=IFCPROPERTYSINGLEVALUE('ServiceRatingA',$,IFCREAL(2500.),$);
#55=IFCPROPERTYSINGLEVALUE('ServiceVoltage',$,IFCLABEL('480Y/277'),$);
#56=IFCPROPERTYSET('01GPuHUBySKCBcCVFfuucu',#5,'RoomInformation',$,(#50,#51,#52,#53,#54,#55));
#57=IFCRELDEFINESBYPROPERTIES('0XvLGIyYLoCktt9QA1TRdJ',#5,$,$,(#49),#56);
#58=IFCCARTESIANPOINTLIST3D(((-1.95,1.932,0.1),(1.95,1.932,0.1),(1.95,2.8464,0.1),(-1.95,2.8464,0.1),(-1.95,1.932,2.386),(1.95,1.932,2.386),(1.95,2.8464,2.386),(-1.95,2.8464,2.386)));
#59=IFCTRIANGULATEDFACESET(#58,$,$,((1,3,2),(1,4,3),(5,6,7),(5,7,8),(1,2,6),(1,6,5),(2,3,7),(2,7,6),(3,4,8),(3,8,7),(4,1,5),(4,5,8)),$);
#60=IFCSTYLEDITEM(#59,(#33),'MSB_body');
#61=IFCCARTESIANPOINTLIST3D(((-0.12,1.926,1.602),(0.12,1.926,1.602),(0.12,1.932,1.602),(-0.12,1.932,1.602),(-0.12,1.926,1.646),(0.12,1.926,1.646),(0.12,1.932,1.646),(-0.12,1.932,1.646)));
#62=IFCTRIANGULATEDFACESET(#61,$,$,((1,3,2),(1,4,3),(5,6,7),(5,7,8),(1,2,6),(1,6,5),(2,3,7),(2,7,6),(3,4,8),(3,8,7),(4,1,5),(4,5,8)),$);
#63=IFCSTYLEDITEM(#62,(#33),'MSB_nameplate');
#64=IFCSHAPEREPRESENTATION(#11,'Body','Tessellation',(#59,#62));
#65=IFCPRODUCTDEFINITIONSHAPE($,$,(#64));
#66=IFCLOCALPLACEMENT(#25,#9);
#67=IFCELECTRICDISTRIBUTIONBOARD('0qhC9M1tHWHx4Ov__RqvVI',#5,'MSB - 2500 A 480Y/277 V main breaker switchboard, 4-section',$,$,#66,#65,'MSB',.SWITCHBOARD.);
#68=IFCPROPERTYSINGLEVALUE('PanelName',$,IFCLABEL('MSB'),$);
#69=IFCPROPERTYSINGLEVALUE('Voltage',$,IFCLABEL('480Y/277 V'),$);
#70=IFCPROPERTYSINGLEVALUE('Phases',$,IFCINTEGER(3),$);
#71=IFCPROPERTYSINGLEVALUE('Wires',$,IFCINTEGER(4),$);
#72=IFCPROPERTYSINGLEVALUE('BusRating',$,IFCREAL(2500.),$);
#73=IFCPROPERTYSINGLEVALUE('MainsRating',$,IFCREAL(2500.),$);
#74=IFCPROPERTYSINGLEVALUE('MainDevice',$,IFCLABEL('2500 A main breaker'),$);
#75=IFCPROPERTYSINGLEVALUE('ShortCircuitRatingkA',$,IFCREAL(65.),$);
#76=IFCPROPERTYSINGLEVALUE('Sections',$,IFCINTEGER(4),$);
#77=IFCPROPERTYSINGLEVALUE('Mounting',$,IFCLABEL('Floor, on housekeeping pad'),$);
#78=IFCPROPERTYSINGLEVALUE('FeederEntry',$,IFCLABEL('Top'),$);
#79=IFCPROPERTYSINGLEVALUE('MainsType',$,IFCLABEL('Main breaker'),$);
#80=IFCPROPERTYSINGLEVALUE('FedFrom',$,IFCLABEL('UTILITY'),$);
#81=IFCPROPERTYSET('1LUVb3QqMF29lzhGiN5V20',#5,'SwitchboardSchedule',$,(#68,#69,#70,#71,#72,#73,#74,#75,#76,#77,#78,#79,#80));
#82=IFCRELDEFINESBYPROPERTIES('1MfQTdGqQxSKtx24ageR4f',#5,$,$,(#67),#81);
#83=IFCCARTESIANPOINTLIST3D(((-4.32435,1.8384,0.658),(-4.32435,2.3464,0.658),(-4.4704,2.3464,0.658),(-4.4704,1.8384,0.658),(-4.32435,1.8384,2.182),(-4.32435,2.3464,2.182),(-4.4704,2.3464,2.182),(-4.4704,1.8384,2.182)));
#84=IFCTRIANGULATEDFACESET(#83,$,$,((1,3,2),(1,4,3),(5,6,7),(5,7,8),(1,2,6),(1,6,5),(2,3,7),(2,7,6),(3,4,8),(3,8,7),(4,1,5),(4,5,8)),$);
#85=IFCSTYLEDITEM(#84,(#33),'DP-1_enclosure');
#86=IFCCARTESIANPOINTLIST3D(((-4.31835,1.9724,1.652),(-4.31835,2.2124,1.652),(-4.32435,2.2124,1.652),(-4.32435,1.9724,1.652),(-4.31835,1.9724,1.696),(-4.31835,2.2124,1.696),(-4.32435,2.2124,1.696),(-4.32435,1.9724,1.696)));
#87=IFCTRIANGULATEDFACESET(#86,$,$,((1,3,2),(1,4,3),(5,6,7),(5,7,8),(1,2,6),(1,6,5),(2,3,7),(2,7,6),(3,4,8),(3,8,7),(4,1,5),(4,5,8)),$);
#88=IFCSTYLEDITEM(#87,(#33),'DP-1_nameplate');
#89=IFCSHAPEREPRESENTATION(#11,'Body','Tessellation',(#84,#87));
#90=IFCPRODUCTDEFINITIONSHAPE($,$,(#89));
#91=IFCLOCALPLACEMENT(#25,#9);
#92=IFCELECTRICDISTRIBUTIONBOARD('0MZDwl11FY3WxPhkdWSitx',#5,'DP-1 - 400 A 480Y/277 V MB distribution panelboard, 42 spaces',$,$,#91,#90,'DP-1',.DISTRIBUTIONBOARD.);
#93=IFCPROPERTYSINGLEVALUE('PanelName',$,IFCLABEL('DP-1'),$);
#94=IFCPROPERTYSINGLEVALUE('Voltage',$,IFCLABEL('480Y/277 V'),$);
#95=IFCPROPERTYSINGLEVALUE('Phases',$,IFCINTEGER(3),$);
#96=IFCPROPERTYSINGLEVALUE('Wires',$,IFCINTEGER(4),$);
#97=IFCPROPERTYSINGLEVALUE('BusRating',$,IFCREAL(400.),$);
#98=IFCPROPERTYSINGLEVALUE('MainsRating',$,IFCREAL(400.),$);
#99=IFCPROPERTYSINGLEVALUE('MainsType',$,IFCLABEL('Main breaker'),$);
#100=IFCPROPERTYSINGLEVALUE('NumberOfCircuits',$,IFCINTEGER(42),$);
#101=IFCPROPERTYSINGLEVALUE('Mounting',$,IFCLABEL('Surface, wall'),$);
#102=IFCPROPERTYSINGLEVALUE('FeederEntry',$,IFCLABEL('Top'),$);
#103=IFCPROPERTYSINGLEVALUE('FedFrom',$,IFCLABEL('MSB'),$);
#104=IFCPROPERTYSET('2XyuCh6jnRcDYeZoRi0CP1',#5,'PanelSchedule',$,(#93,#94,#95,#96,#97,#98,#99,#100,#101,#102,#103));
#105=IFCRELDEFINESBYPROPERTIES('0lJRzQQO7aZHpbdH16FPbi',#5,$,$,(#92),#104);
#106=IFCCARTESIANPOINTLIST3D(((4.32435,2.3464,0.658),(4.32435,1.8384,0.658),(4.4704,1.8384,0.658),(4.4704,2.3464,0.658),(4.32435,2.3464,2.182),(4.32435,1.8384,2.182),(4.4704,1.8384,2.182),(4.4704,2.3464,2.182)));
#107=IFCTRIANGULATEDFACESET(#106,$,$,((1,3,2),(1,4,3),(5,6,7),(5,7,8),(1,2,6),(1,6,5),(2,3,7),(2,7,6),(3,4,8),(3,8,7),(4,1,5),(4,5,8)),$);
#108=IFCSTYLEDITEM(#107,(#33),'DP-2_enclosure');
#109=IFCCARTESIANPOINTLIST3D(((4.31835,2.2124,1.652),(4.31835,1.9724,1.652),(4.32435,1.9724,1.652),(4.32435,2.2124,1.652),(4.31835,2.2124,1.696),(4.31835,1.9724,1.696),(4.32435,1.9724,1.696),(4.32435,2.2124,1.696)));
#110=IFCTRIANGULATEDFACESET(#109,$,$,((1,3,2),(1,4,3),(5,6,7),(5,7,8),(1,2,6),(1,6,5),(2,3,7),(2,7,6),(3,4,8),(3,8,7),(4,1,5),(4,5,8)),$);
#111=IFCSTYLEDITEM(#110,(#33),'DP-2_nameplate');
#112=IFCSHAPEREPRESENTATION(#11,'Body','Tessellation',(#107,#110));
#113=IFCPRODUCTDEFINITIONSHAPE($,$,(#112));
#114=IFCLOCALPLACEMENT(#25,#9);
#115=IFCELECTRICDISTRIBUTIONBOARD('3vdsMbpbdImuCFhYdZFldp',#5,'DP-2 - 400 A 480Y/277 V MB distribution panelboard, 42 spaces',$,$,#114,#113,'DP-2',.DISTRIBUTIONBOARD.);
#116=IFCPROPERTYSINGLEVALUE('PanelName',$,IFCLABEL('DP-2'),$);
#117=IFCPROPERTYSINGLEVALUE('Voltage',$,IFCLABEL('480Y/277 V'),$);
#118=IFCPROPERTYSINGLEVALUE('Phases',$,IFCINTEGER(3),$);
#119=IFCPROPERTYSINGLEVALUE('Wires',$,IFCINTEGER(4),$);
#120=IFCPROPERTYSINGLEVALUE('BusRating',$,IFCREAL(400.),$);
#121=IFCPROPERTYSINGLEVALUE('MainsRating',$,IFCREAL(400.),$);
#122=IFCPROPERTYSINGLEVALUE('MainsType',$,IFCLABEL('Main breaker'),$);
#123=IFCPROPERTYSINGLEVALUE('NumberOfCircuits',$,IFCINTEGER(42),$);
#124=IFCPROPERTYSINGLEVALUE('Mounting',$,IFCLABEL('Surface, wall'),$);
#125=IFCPROPERTYSINGLEVALUE('FeederEntry',$,IFCLABEL('Top'),$);
#126=IFCPROPERTYSINGLEVALUE('FedFrom',$,IFCLABEL('MSB'),$);
#127=IFCPROPERTYSET('2NjM0LLyn50L3OKgSDLEtc',#5,'PanelSchedule',$,(#116,#117,#118,#119,#120,#121,#122,#123,#124,#125,#126));
#128=IFCRELDEFINESBYPROPERTIES('3J3icVV7S6KfG4vHCb$Ean',#5,$,$,(#115),#127);
#129=IFCCARTESIANPOINTLIST3D(((-4.32435,1.0304,0.8104),(-4.32435,1.5384,0.8104),(-4.4704,1.5384,0.8104),(-4.4704,1.0304,0.8104),(-4.32435,1.0304,2.0296),(-4.32435,1.5384,2.0296),(-4.4704,1.5384,2.0296),(-4.4704,1.0304,2.0296)));
#130=IFCTRIANGULATEDFACESET(#129,$,$,((1,3,2),(1,4,3),(5,6,7),(5,7,8),(1,2,6),(1,6,5),(2,3,7),(2,7,6),(3,4,8),(3,8,7),(4,1,5),(4,5,8)),$);
#131=IFCSTYLEDITEM(#130,(#33),'LP-1_enclosure');
#132=IFCCARTESIANPOINTLIST3D(((-4.31835,1.1644,1.6012),(-4.31835,1.4044,1.6012),(-4.32435,1.4044,1.6012),(-4.32435,1.1644,1.6012),(-4.31835,1.1644,1.6452),(-4.31835,1.4044,1.6452),(-4.32435,1.4044,1.6452),(-4.32435,1.1644,1.6452)));
#133=IFCTRIANGULATEDFACESET(#132,$,$,((1,3,2),(1,4,3),(5,6,7),(5,7,8),(1,2,6),(1,6,5),(2,3,7),(2,7,6),(3,4,8),(3,8,7),(4,1,5),(4,5,8)),$);
#134=IFCSTYLEDITEM(#133,(#33),'LP-1_nameplate');
#135=IFCSHAPEREPRESENTATION(#11,'Body','Tessellation',(#130,#133));
#136=IFCPRODUCTDEFINITIONSHAPE($,$,(#135));
#137=IFCLOCALPLACEMENT(#25,#9);
#138=IFCELECTRICDISTRIBUTIONBOARD('05d798$LOTFFS1_ePtWmQV',#5,'LP-1 - 100 A 480Y/277 V MLO lighting panelboard, 42 spaces',$,$,#137,#136,'LP-1',.DISTRIBUTIONBOARD.);
#139=IFCPROPERTYSINGLEVALUE('PanelName',$,IFCLABEL('LP-1'),$);
#140=IFCPROPERTYSINGLEVALUE('Voltage',$,IFCLABEL('480Y/277 V'),$);
#141=IFCPROPERTYSINGLEVALUE('Phases',$,IFCINTEGER(3),$);
#142=IFCPROPERTYSINGLEVALUE('Wires',$,IFCINTEGER(4),$);
#143=IFCPROPERTYSINGLEVALUE('BusRating',$,IFCREAL(100.),$);
#144=IFCPROPERTYSINGLEVALUE('MainsRating',$,IFCREAL(100.),$);
#145=IFCPROPERTYSINGLEVALUE('MainsType',$,IFCLABEL('Main lugs only'),$);
#146=IFCPROPERTYSINGLEVALUE('NumberOfCircuits',$,IFCINTEGER(42),$);
#147=IFCPROPERTYSINGLEVALUE('Mounting',$,IFCLABEL('Surface, wall'),$);
#148=IFCPROPERTYSINGLEVALUE('FeederEntry',$,IFCLABEL('Top'),$);
#149=IFCPROPERTYSINGLEVALUE('FedFrom',$,IFCLABEL('DP-1'),$);
#150=IFCPROPERTYSET('1COorEcrjmyDOtr24pg5Tf',#5,'PanelSchedule',$,(#139,#140,#141,#142,#143,#144,#145,#146,#147,#148,#149));
#151=IFCRELDEFINESBYPROPERTIES('36yOFsXcVhWqgK4v1TBGVT',#5,$,$,(#138),#150);
#152=IFCCARTESIANPOINTLIST3D(((4.32435,1.5384,0.8104),(4.32435,1.0304,0.8104),(4.4704,1.0304,0.8104),(4.4704,1.5384,0.8104),(4.32435,1.5384,2.0296),(4.32435,1.0304,2.0296),(4.4704,1.0304,2.0296),(4.4704,1.5384,2.0296)));
#153=IFCTRIANGULATEDFACESET(#152,$,$,((1,3,2),(1,4,3),(5,6,7),(5,7,8),(1,2,6),(1,6,5),(2,3,7),(2,7,6),(3,4,8),(3,8,7),(4,1,5),(4,5,8)),$);
#154=IFCSTYLEDITEM(#153,(#33),'LP-2_enclosure');
#155=IFCCARTESIANPOINTLIST3D(((4.31835,1.4044,1.6012),(4.31835,1.1644,1.6012),(4.32435,1.1644,1.6012),(4.32435,1.4044,1.6012),(4.31835,1.4044,1.6452),(4.31835,1.1644,1.6452),(4.32435,1.1644,1.6452),(4.32435,1.4044,1.6452)));
#156=IFCTRIANGULATEDFACESET(#155,$,$,((1,3,2),(1,4,3),(5,6,7),(5,7,8),(1,2,6),(1,6,5),(2,3,7),(2,7,6),(3,4,8),(3,8,7),(4,1,5),(4,5,8)),$);
#157=IFCSTYLEDITEM(#156,(#33),'LP-2_nameplate');
#158=IFCSHAPEREPRESENTATION(#11,'Body','Tessellation',(#153,#156));
#159=IFCPRODUCTDEFINITIONSHAPE($,$,(#158));
#160=IFCLOCALPLACEMENT(#25,#9);
#161=IFCELECTRICDISTRIBUTIONBOARD('3XK4xao4eH$Cw6ty8Tmq4T',#5,'LP-2 - 100 A 480Y/277 V MLO lighting panelboard, 42 spaces',$,$,#160,#159,'LP-2',.DISTRIBUTIONBOARD.);
#162=IFCPROPERTYSINGLEVALUE('PanelName',$,IFCLABEL('LP-2'),$);
#163=IFCPROPERTYSINGLEVALUE('Voltage',$,IFCLABEL('480Y/277 V'),$);
#164=IFCPROPERTYSINGLEVALUE('Phases',$,IFCINTEGER(3),$);
#165=IFCPROPERTYSINGLEVALUE('Wires',$,IFCINTEGER(4),$);
#166=IFCPROPERTYSINGLEVALUE('BusRating',$,IFCREAL(100.),$);
#167=IFCPROPERTYSINGLEVALUE('MainsRating',$,IFCREAL(100.),$);
#168=IFCPROPERTYSINGLEVALUE('MainsType',$,IFCLABEL('Main lugs only'),$);
#169=IFCPROPERTYSINGLEVALUE('NumberOfCircuits',$,IFCINTEGER(42),$);
#170=IFCPROPERTYSINGLEVALUE('Mounting',$,IFCLABEL('Surface, wall'),$);
#171=IFCPROPERTYSINGLEVALUE('FeederEntry',$,IFCLABEL('Top'),$);
#172=IFCPROPERTYSINGLEVALUE('FedFrom',$,IFCLABEL('DP-2'),$);
#173=IFCPROPERTYSET('39xWog13S_UDA2EeIm2lNd',#5,'PanelSchedule',$,(#162,#163,#164,#165,#166,#167,#168,#169,#170,#171,#172));
#174=IFCRELDEFINESBYPROPERTIES('0GeztXaWXGB1Kd$GjpJjI2',#5,$,$,(#161),#173);
#175=IFCCARTESIANPOINTLIST3D(((-4.32435,0.2224,0.8104),(-4.32435,0.7304,0.8104),(-4.4704,0.7304,0.8104),(-4.4704,0.2224,0.8104),(-4.32435,0.2224,2.0296),(-4.32435,0.7304,2.0296),(-4.4704,0.7304,2.0296),(-4.4704,0.2224,2.0296)));
#176=IFCTRIANGULATEDFACESET(#175,$,$,((1,3,2),(1,4,3),(5,6,7),(5,7,8),(1,2,6),(1,6,5),(2,3,7),(2,7,6),(3,4,8),(3,8,7),(4,1,5),(4,5,8)),$);
#177=IFCSTYLEDITEM(#176,(#33),'LP-3_enclosure');
#178=IFCCARTESIANPOINTLIST3D(((-4.31835,0.3564,1.6012),(-4.31835,0.5964,1.6012),(-4.32435,0.5964,1.6012),(-4.32435,0.3564,1.6012),(-4.31835,0.3564,1.6452),(-4.31835,0.5964,1.6452),(-4.32435,0.5964,1.6452),(-4.32435,0.3564,1.6452)));
#179=IFCTRIANGULATEDFACESET(#178,$,$,((1,3,2),(1,4,3),(5,6,7),(5,7,8),(1,2,6),(1,6,5),(2,3,7),(2,7,6),(3,4,8),(3,8,7),(4,1,5),(4,5,8)),$);
#180=IFCSTYLEDITEM(#179,(#33),'LP-3_nameplate');
#181=IFCSHAPEREPRESENTATION(#11,'Body','Tessellation',(#176,#179));
#182=IFCPRODUCTDEFINITIONSHAPE($,$,(#181));
#183=IFCLOCALPLACEMENT(#25,#9);
#184=IFCELECTRICDISTRIBUTIONBOARD('3LimQRsw7eqx$KnxbG$ZJ1',#5,'LP-3 - 100 A 480Y/277 V MLO lighting panelboard, 42 spaces',$,$,#183,#182,'LP-3',.DISTRIBUTIONBOARD.);
#185=IFCPROPERTYSINGLEVALUE('PanelName',$,IFCLABEL('LP-3'),$);
#186=IFCPROPERTYSINGLEVALUE('Voltage',$,IFCLABEL('480Y/277 V'),$);
#187=IFCPROPERTYSINGLEVALUE('Phases',$,IFCINTEGER(3),$);
#188=IFCPROPERTYSINGLEVALUE('Wires',$,IFCINTEGER(4),$);
#189=IFCPROPERTYSINGLEVALUE('BusRating',$,IFCREAL(100.),$);
#190=IFCPROPERTYSINGLEVALUE('MainsRating',$,IFCREAL(100.),$);
#191=IFCPROPERTYSINGLEVALUE('MainsType',$,IFCLABEL('Main lugs only'),$);
#192=IFCPROPERTYSINGLEVALUE('NumberOfCircuits',$,IFCINTEGER(42),$);
#193=IFCPROPERTYSINGLEVALUE('Mounting',$,IFCLABEL('Surface, wall'),$);
#194=IFCPROPERTYSINGLEVALUE('FeederEntry',$,IFCLABEL('Top'),$);
#195=IFCPROPERTYSINGLEVALUE('FedFrom',$,IFCLABEL('DP-1'),$);
#196=IFCPROPERTYSET('2plfQhLf_CTUHgvYeqv6k5',#5,'PanelSchedule',$,(#185,#186,#187,#188,#189,#190,#191,#192,#193,#194,#195));
#197=IFCRELDEFINESBYPROPERTIES('3zu5qMv_cggh_xw5Cp8bDZ',#5,$,$,(#184),#196);
#198=IFCCARTESIANPOINTLIST3D(((4.32435,0.7304,0.8104),(4.32435,0.2224,0.8104),(4.4704,0.2224,0.8104),(4.4704,0.7304,0.8104),(4.32435,0.7304,2.0296),(4.32435,0.2224,2.0296),(4.4704,0.2224,2.0296),(4.4704,0.7304,2.0296)));
#199=IFCTRIANGULATEDFACESET(#198,$,$,((1,3,2),(1,4,3),(5,6,7),(5,7,8),(1,2,6),(1,6,5),(2,3,7),(2,7,6),(3,4,8),(3,8,7),(4,1,5),(4,5,8)),$);
#200=IFCSTYLEDITEM(#199,(#33),'LP-4_enclosure');
#201=IFCCARTESIANPOINTLIST3D(((4.31835,0.5964,1.6012),(4.31835,0.3564,1.6012),(4.32435,0.3564,1.6012),(4.32435,0.5964,1.6012),(4.31835,0.5964,1.6452),(4.31835,0.3564,1.6452),(4.32435,0.3564,1.6452),(4.32435,0.5964,1.6452)));
#202=IFCTRIANGULATEDFACESET(#201,$,$,((1,3,2),(1,4,3),(5,6,7),(5,7,8),(1,2,6),(1,6,5),(2,3,7),(2,7,6),(3,4,8),(3,8,7),(4,1,5),(4,5,8)),$);
#203=IFCSTYLEDITEM(#202,(#33),'LP-4_nameplate');
#204=IFCSHAPEREPRESENTATION(#11,'Body','Tessellation',(#199,#202));
#205=IFCPRODUCTDEFINITIONSHAPE($,$,(#204));
#206=IFCLOCALPLACEMENT(#25,#9);
#207=IFCELECTRICDISTRIBUTIONBOARD('1lZQlGPYV4F5VuiV7CqdqW',#5,'LP-4 - 100 A 480Y/277 V MLO lighting panelboard, 42 spaces',$,$,#206,#205,'LP-4',.DISTRIBUTIONBOARD.);
#208=IFCPROPERTYSINGLEVALUE('PanelName',$,IFCLABEL('LP-4'),$);
#209=IFCPROPERTYSINGLEVALUE('Voltage',$,IFCLABEL('480Y/277 V'),$);
#210=IFCPROPERTYSINGLEVALUE('Phases',$,IFCINTEGER(3),$);
#211=IFCPROPERTYSINGLEVALUE('Wires',$,IFCINTEGER(4),$);
#212=IFCPROPERTYSINGLEVALUE('BusRating',$,IFCREAL(100.),$);
#213=IFCPROPERTYSINGLEVALUE('MainsRating',$,IFCREAL(100.),$);
#214=IFCPROPERTYSINGLEVALUE('MainsType',$,IFCLABEL('Main lugs only'),$);
#215=IFCPROPERTYSINGLEVALUE('NumberOfCircuits',$,IFCINTEGER(42),$);
#216=IFCPROPERTYSINGLEVALUE('Mounting',$,IFCLABEL('Surface, wall'),$);
#217=IFCPROPERTYSINGLEVALUE('FeederEntry',$,IFCLABEL('Top'),$);
#218=IFCPROPERTYSINGLEVALUE('FedFrom',$,IFCLABEL('DP-2'),$);
#219=IFCPROPERTYSET('0zFuiQsqxU_52ZDgiwACMh',#5,'PanelSchedule',$,(#208,#209,#210,#211,#212,#213,#214,#215,#216,#217,#218));
#220=IFCRELDEFINESBYPROPERTIES('0$zga7jtXeRdkeL_BuwNHn',#5,$,$,(#207),#219);
#221=IFCRELCONTAINEDINSPATIALSTRUCTURE('2QcmzThzz0e0YoEDADR1CL',#5,$,$,(#49,#67,#92,#115,#138,#161,#184,#207),#26);
ENDSEC;
END-ISO-10303-21;
