ISO-10303-21;
HEADER;
FILE_DESCRIPTION(('ViewDefinition [CoordinationView]'),'2;1');
FILE_NAME('electrical_room_prompt.ifc','2026-08-04T00:00:00',(''),(''),'tekton frontdoor IFC addition','tekton frontdoor','');
FILE_SCHEMA(('IFC4'));
ENDSEC;
DATA;
#1=IFCPERSON($,$,'',$,$,$,$,$);
#2=IFCORGANIZATION($,'tekton',$,$,$);
#3=IFCPERSONANDORGANIZATION(#1,#2,$);
#4=IFCAPPLICATION(#2,'1.0','tekton frontdoor IFC addition','tekton_frontdoor');
#5=IFCOWNERHISTORY(#3,#4,$,.NOCHANGE.,$,$,$,0);
#6=IFCDIRECTION((1.,0.,0.));
#7=IFCDIRECTION((0.,0.,1.));
#8=IFCCARTESIANPOINT((0.,0.,0.));
#9=IFCAXIS2PLACEMENT3D(#8,#7,#6);
#10=IFCGEOMETRICREPRESENTATIONCONTEXT($,'Model',3,1.E-05,#9,$);
#11=IFCGEOMETRICREPRESENTATIONSUBCONTEXT('Body','Model',*,*,*,*,#10,$,.MODEL_VIEW.,$);
#12=IFCSIUNIT(*,.LENGTHUNIT.,$,.METRE.);
#13=IFCSIUNIT(*,.AREAUNIT.,$,.SQUARE_METRE.);
#14=IFCSIUNIT(*,.VOLUMEUNIT.,$,.CUBIC_METRE.);
#15=IFCSIUNIT(*,.PLANEANGLEUNIT.,$,.RADIAN.);
#16=IFCSIUNIT(*,.ELECTRICVOLTAGEUNIT.,$,.VOLT.);
#17=IFCSIUNIT(*,.ELECTRICCURRENTUNIT.,$,.AMPERE.);
#18=IFCSIUNIT(*,.POWERUNIT.,$,.WATT.);
#19=IFCUNITASSIGNMENT((#12,#13,#14,#15,#16,#17,#18));
#20=IFCPROJECT('1tY8Sah0FyeGDjHbGt_vWt',#5,'electrical_room_prompt','exported from electrical_room_prompt.rvt by tekton convert (rvt.convert)',$,$,$,(#10),#19);
#21=IFCLOCALPLACEMENT($,#9);
#22=IFCSITE('2Otlrkvmtx7Uf1REpVEHzO',#5,'Site',$,$,#21,$,$,.ELEMENT.,$,$,$,$,$);
#23=IFCLOCALPLACEMENT(#21,#9);
#24=IFCBUILDING('0R8Ea26peMi5aeVAtSU6Bs',#5,'Building',$,$,#23,$,$,.ELEMENT.,$,$,$);
#25=IFCLOCALPLACEMENT(#23,#9);
#26=IFCBUILDINGSTOREY('3$ahhGa8ul6y91bIVz1ip$',#5,'L1 - Ground Floor',$,$,#25,$,$,.ELEMENT.,0.);
#27=IFCRELAGGREGATES('0gDq1dZFSe_kiHgEXyH5tk',#5,$,$,#20,(#22));
#28=IFCRELAGGREGATES('02xE1DG85cPBoFrrmSoz7i',#5,$,$,#22,(#24));
#29=IFCRELAGGREGATES('2rzk7PO2m$954MoleLbKUr',#5,$,$,#24,(#26));
#30=IFCCOLOURRGB($,0.611765,0.635294,0.639216);
#31=IFCSURFACESTYLERENDERING(#30,0.,$,$,$,$,$,$,.NOTDEFINED.);
#32=IFCSURFACESTYLE('tekton_gray',.BOTH.,(#31));
#33=IFCPRESENTATIONSTYLEASSIGNMENT((#32));
#34=IFCCARTESIANPOINTLIST3D(((-4.6325,-3.1085,0.),(4.6325,-3.1085,0.),(4.6325,-2.9875,0.),(-4.6325,-2.9875,0.),(-4.6325,-3.1085,3.6576),(4.6325,-3.1085,3.6576),(4.6325,-2.9875,3.6576),(-4.6325,-2.9875,3.6576)));
#35=IFCTRIANGULATEDFACESET(#34,$,$,((1,3,2),(1,4,3),(5,6,7),(5,7,8),(1,2,6),(1,6,5),(2,3,7),(2,7,6),(3,4,8),(3,8,7),(4,1,5),(4,5,8)),$);
#36=IFCSTYLEDITEM(#35,(#33),'wall_1');
#37=IFCCARTESIANPOINTLIST3D(((4.6325,-3.1085,0.),(4.6325,3.1085,0.),(4.5115,3.1085,0.),(4.5115,-3.1085,0.),(4.6325,-3.1085,3.6576),(4.6325,3.1085,3.6576),(4.5115,3.1085,3.6576),(4.5115,-3.1085,3.6576)));
#38=IFCTRIANGULATEDFACESET(#37,$,$,((1,3,2),(1,4,3),(5,6,7),(5,7,8),(1,2,6),(1,6,5),(2,3,7),(2,7,6),(3,4,8),(3,8,7),(4,1,5),(4,5,8)),$);
#39=IFCSTYLEDITEM(#38,(#33),'wall_2');
#40=IFCCARTESIANPOINTLIST3D(((4.6325,3.1085,0.),(-4.6325,3.1085,0.),(-4.6325,2.9875,0.),(4.6325,2.9875,0.),(4.6325,3.1085,3.6576),(-4.6325,3.1085,3.6576),(-4.6325,2.9875,3.6576),(4.6325,2.9875,3.6576)));
#41=IFCTRIANGULATEDFACESET(#40,$,$,((1,3,2),(1,4,3),(5,6,7),(5,7,8),(1,2,6),(1,6,5),(2,3,7),(2,7,6),(3,4,8),(3,8,7),(4,1,5),(4,5,8)),$);
#42=IFCSTYLEDITEM(#41,(#33),'wall_3');
#43=IFCCARTESIANPOINTLIST3D(((-4.6325,3.1085,0.),(-4.6325,-3.1085,0.),(-4.5115,-3.1085,0.),(-4.5115,3.1085,0.),(-4.6325,3.1085,3.6576),(-4.6325,-3.1085,3.6576),(-4.5115,-3.1085,3.6576),(-4.5115,3.1085,3.6576)));
#44=IFCTRIANGULATEDFACESET(#43,$,$,((1,3,2),(1,4,3),(5,6,7),(5,7,8),(1,2,6),(1,6,5),(2,3,7),(2,7,6),(3,4,8),(3,8,7),(4,1,5),(4,5,8)),$);
#45=IFCSTYLEDITEM(#44,(#33),'wall_4');
#46=IFCSHAPEREPRESENTATION(#11,'Body','Tessellation',(#35,#38,#41,#44));
#47=IFCPRODUCTDEFINITIONSHAPE($,$,(#46));
#48=IFCLOCALPLACEMENT(#25,#9);
#49=IFCBUILDINGELEMENTPROXY('3Qggpve9IHG1duPT3q41pw',#5,'electrical_room_prompt (extracted) room shell',$,$,#48,#47,$,$);
#50=IFCPROPERTYSINGLEVALUE('RoomName',$,IFCLABEL('electrical_room_prompt (extracted)'),$);
#51=IFCPROPERTYSET('01GPuHUBySKCBcCVFfuucu',#5,'RoomInformation',$,(#50));
#52=IFCRELDEFINESBYPROPERTIES('0XvLGIyYLoCktt9QA1TRdJ',#5,$,$,(#49),#51);
#53=IFCCARTESIANPOINTLIST3D(((-2.4873,1.932,0.1),(1.4127,1.932,0.1),(1.4127,2.8464,0.1),(-2.4873,2.8464,0.1),(-2.4873,1.932,2.386),(1.4127,1.932,2.386),(1.4127,2.8464,2.386),(-2.4873,2.8464,2.386)));
#54=IFCTRIANGULATEDFACESET(#53,$,$,((1,3,2),(1,4,3),(5,6,7),(5,7,8),(1,2,6),(1,6,5),(2,3,7),(2,7,6),(3,4,8),(3,8,7),(4,1,5),(4,5,8)),$);
#55=IFCSTYLEDITEM(#54,(#33),'MSB_body');
#56=IFCCARTESIANPOINTLIST3D(((-0.6573,1.926,1.602),(-0.4173,1.926,1.602),(-0.4173,1.932,1.602),(-0.6573,1.932,1.602),(-0.6573,1.926,1.646),(-0.4173,1.926,1.646),(-0.4173,1.932,1.646),(-0.6573,1.932,1.646)));
#57=IFCTRIANGULATEDFACESET(#56,$,$,((1,3,2),(1,4,3),(5,6,7),(5,7,8),(1,2,6),(1,6,5),(2,3,7),(2,7,6),(3,4,8),(3,8,7),(4,1,5),(4,5,8)),$);
#58=IFCSTYLEDITEM(#57,(#33),'MSB_nameplate');
#59=IFCSHAPEREPRESENTATION(#11,'Body','Tessellation',(#54,#57));
#60=IFCPRODUCTDEFINITIONSHAPE($,$,(#59));
#61=IFCLOCALPLACEMENT(#25,#9);
#62=IFCELECTRICDISTRIBUTIONBOARD('0qhC9M1tHWHx4Ov__RqvVI',#5,'Switchboard MSB 2500A 480Y/277',$,$,#61,#60,'MSB',.SWITCHBOARD.);
#63=IFCPROPERTYSINGLEVALUE('Width',$,IFCREAL(3.9),$);
#64=IFCPROPERTYSINGLEVALUE('Height',$,IFCREAL(2.286),$);
#65=IFCPROPERTYSINGLEVALUE('Depth',$,IFCREAL(0.9144),$);
#66=IFCPROPERTYSINGLEVALUE('PanelName',$,IFCLABEL('MSB'),$);
#67=IFCPROPERTYSINGLEVALUE('Voltage',$,IFCLABEL('480Y/277 V'),$);
#68=IFCPROPERTYSINGLEVALUE('Phases',$,IFCINTEGER(3),$);
#69=IFCPROPERTYSINGLEVALUE('Wires',$,IFCINTEGER(4),$);
#70=IFCPROPERTYSINGLEVALUE('BusRating',$,IFCREAL(2500.),$);
#71=IFCPROPERTYSINGLEVALUE('MainsType',$,IFCLABEL('MCB'),$);
#72=IFCPROPERTYSINGLEVALUE('MainsRating',$,IFCREAL(2500.),$);
#73=IFCPROPERTYSINGLEVALUE('ShortCircuitRatingkA',$,IFCREAL(65.),$);
#74=IFCPROPERTYSINGLEVALUE('Mounting',$,IFCLABEL('Floor, on housekeeping pad'),$);
#75=IFCPROPERTYSINGLEVALUE('NumberOfCircuits',$,IFCINTEGER(0),$);
#76=IFCPROPERTYSINGLEVALUE('NeutralRating',$,IFCLABEL('100%'),$);
#77=IFCPROPERTYSINGLEVALUE('Sections',$,IFCINTEGER(4),$);
#78=IFCPROPERTYSINGLEVALUE('FeederEntry',$,IFCLABEL('Top'),$);
#79=IFCPROPERTYSINGLEVALUE('Description',$,IFCLABEL('480Y/277 V, 3-phase 4-wire, 2500 A 2500 A main breaker, 65 kA SCCR, 4-section switchboard lineup (3.9 W x 2.286 H x 0.9144 D m -- OUR IFC-modeled extents; house family, no catalog record)'),$);
#80=IFCPROPERTYSET('2HlL0Zj3wJ9xw6nWNX7ypb',#5,'SwitchboardSchedule',$,(#63,#64,#65,#66,#67,#68,#69,#70,#71,#72,#73,#74,#75,#76,#77,#78,#79));
#81=IFCRELDEFINESBYPROPERTIES('0yz48rrIbCXZfzu4NG5pqt',#5,$,$,(#62),#80);
#82=IFCPROPERTYSINGLEVALUE('Manufacturer',$,IFCLABEL('unspecified'),$);
#83=IFCPROPERTYSINGLEVALUE('ModelLabel',$,IFCLABEL('house switchboard'),$);
#84=IFCPROPERTYSET('1RvpeiMElP5qfx6HCVb233',#5,'Pset_ManufacturerTypeInformation',$,(#82,#83));
#85=IFCRELDEFINESBYPROPERTIES('0lzxCtv7xfG66s$q6hQKWQ',#5,$,$,(#62),#84);
#86=IFCCARTESIANPOINTLIST3D(((-4.32435,1.8384,0.658),(-4.32435,2.3464,0.658),(-4.4704,2.3464,0.658),(-4.4704,1.8384,0.658),(-4.32435,1.8384,2.182),(-4.32435,2.3464,2.182),(-4.4704,2.3464,2.182),(-4.4704,1.8384,2.182)));
#87=IFCTRIANGULATEDFACESET(#86,$,$,((1,3,2),(1,4,3),(5,6,7),(5,7,8),(1,2,6),(1,6,5),(2,3,7),(2,7,6),(3,4,8),(3,8,7),(4,1,5),(4,5,8)),$);
#88=IFCSTYLEDITEM(#87,(#33),'DP-1_enclosure');
#89=IFCCARTESIANPOINTLIST3D(((-4.31835,1.9724,1.652),(-4.31835,2.2124,1.652),(-4.32435,2.2124,1.652),(-4.32435,1.9724,1.652),(-4.31835,1.9724,1.696),(-4.31835,2.2124,1.696),(-4.32435,2.2124,1.696),(-4.32435,1.9724,1.696)));
#90=IFCTRIANGULATEDFACESET(#89,$,$,((1,3,2),(1,4,3),(5,6,7),(5,7,8),(1,2,6),(1,6,5),(2,3,7),(2,7,6),(3,4,8),(3,8,7),(4,1,5),(4,5,8)),$);
#91=IFCSTYLEDITEM(#90,(#33),'DP-1_nameplate');
#92=IFCSHAPEREPRESENTATION(#11,'Body','Tessellation',(#87,#90));
#93=IFCPRODUCTDEFINITIONSHAPE($,$,(#92));
#94=IFCLOCALPLACEMENT(#25,#9);
#95=IFCELECTRICDISTRIBUTIONBOARD('0MZDwl11FY3WxPhkdWSitx',#5,'Distribution Panelboard DP-1 480Y/277 400A MB 42sp',$,$,#94,#93,'DP-1',.DISTRIBUTIONBOARD.);
#96=IFCPROPERTYSINGLEVALUE('Width',$,IFCREAL(0.508),$);
#97=IFCPROPERTYSINGLEVALUE('Height',$,IFCREAL(1.524),$);
#98=IFCPROPERTYSINGLEVALUE('Depth',$,IFCREAL(0.14605),$);
#99=IFCPROPERTYSINGLEVALUE('PanelName',$,IFCLABEL('DP-1'),$);
#100=IFCPROPERTYSINGLEVALUE('Voltage',$,IFCLABEL('480Y/277 V'),$);
#101=IFCPROPERTYSINGLEVALUE('Phases',$,IFCINTEGER(3),$);
#102=IFCPROPERTYSINGLEVALUE('Wires',$,IFCINTEGER(4),$);
#103=IFCPROPERTYSINGLEVALUE('BusRating',$,IFCREAL(400.),$);
#104=IFCPROPERTYSINGLEVALUE('MainsType',$,IFCLABEL('MCB'),$);
#105=IFCPROPERTYSINGLEVALUE('MainsRating',$,IFCREAL(400.),$);
#106=IFCPROPERTYSINGLEVALUE('ShortCircuitRatingkA',$,IFCREAL(14.),$);
#107=IFCPROPERTYSINGLEVALUE('Mounting',$,IFCLABEL('surface'),$);
#108=IFCPROPERTYSINGLEVALUE('NumberOfCircuits',$,IFCINTEGER(42),$);
#109=IFCPROPERTYSINGLEVALUE('NeutralRating',$,IFCLABEL('100%'),$);
#110=IFCPROPERTYSINGLEVALUE('Description',$,IFCLABEL('480Y/277 V, 3-phase 4-wire, 400 A main-breaker panelboard, 42 circuits, surface mounted (box 20 W x 60 H x 5.75 D in; generated from catalog facts)'),$);
#111=IFCPROPERTYSET('2LRqrmgMlcYfJbWiJb_WaP',#5,'PanelSchedule',$,(#96,#97,#98,#99,#100,#101,#102,#103,#104,#105,#106,#107,#108,#109,#110));
#112=IFCRELDEFINESBYPROPERTIES('3X4CjbzJv04C_APHuVfSDa',#5,$,$,(#95),#111);
#113=IFCPROPERTYSINGLEVALUE('Manufacturer',$,IFCLABEL('Eaton'),$);
#114=IFCPROPERTYSINGLEVALUE('ModelLabel',$,IFCLABEL('PRL2X'),$);
#115=IFCPROPERTYSET('0Rm5NtPBqbxmI1sZZSMOjE',#5,'Pset_ManufacturerTypeInformation',$,(#113,#114));
#116=IFCRELDEFINESBYPROPERTIES('2KXh1TweIL6E5N0ivzJKAn',#5,$,$,(#95),#115);
#117=IFCCARTESIANPOINTLIST3D(((4.32435,2.3464,0.8104),(4.32435,1.8384,0.8104),(4.4704,1.8384,0.8104),(4.4704,2.3464,0.8104),(4.32435,2.3464,2.0296),(4.32435,1.8384,2.0296),(4.4704,1.8384,2.0296),(4.4704,2.3464,2.0296)));
#118=IFCTRIANGULATEDFACESET(#117,$,$,((1,3,2),(1,4,3),(5,6,7),(5,7,8),(1,2,6),(1,6,5),(2,3,7),(2,7,6),(3,4,8),(3,8,7),(4,1,5),(4,5,8)),$);
#119=IFCSTYLEDITEM(#118,(#33),'LP-1_enclosure');
#120=IFCCARTESIANPOINTLIST3D(((4.31835,2.2124,1.6012),(4.31835,1.9724,1.6012),(4.32435,1.9724,1.6012),(4.32435,2.2124,1.6012),(4.31835,2.2124,1.6452),(4.31835,1.9724,1.6452),(4.32435,1.9724,1.6452),(4.32435,2.2124,1.6452)));
#121=IFCTRIANGULATEDFACESET(#120,$,$,((1,3,2),(1,4,3),(5,6,7),(5,7,8),(1,2,6),(1,6,5),(2,3,7),(2,7,6),(3,4,8),(3,8,7),(4,1,5),(4,5,8)),$);
#122=IFCSTYLEDITEM(#121,(#33),'LP-1_nameplate');
#123=IFCSHAPEREPRESENTATION(#11,'Body','Tessellation',(#118,#121));
#124=IFCPRODUCTDEFINITIONSHAPE($,$,(#123));
#125=IFCLOCALPLACEMENT(#25,#9);
#126=IFCELECTRICDISTRIBUTIONBOARD('05d798$LOTFFS1_ePtWmQV',#5,'Lighting Panelboard LP-1 480Y/277 100A MLO 42sp',$,$,#125,#124,'LP-1',.DISTRIBUTIONBOARD.);
#127=IFCPROPERTYSINGLEVALUE('Width',$,IFCREAL(0.508),$);
#128=IFCPROPERTYSINGLEVALUE('Height',$,IFCREAL(1.2192),$);
#129=IFCPROPERTYSINGLEVALUE('Depth',$,IFCREAL(0.14605),$);
#130=IFCPROPERTYSINGLEVALUE('PanelName',$,IFCLABEL('LP-1'),$);
#131=IFCPROPERTYSINGLEVALUE('Voltage',$,IFCLABEL('480Y/277 V'),$);
#132=IFCPROPERTYSINGLEVALUE('Phases',$,IFCINTEGER(3),$);
#133=IFCPROPERTYSINGLEVALUE('Wires',$,IFCINTEGER(4),$);
#134=IFCPROPERTYSINGLEVALUE('BusRating',$,IFCREAL(100.),$);
#135=IFCPROPERTYSINGLEVALUE('MainsType',$,IFCLABEL('MLO'),$);
#136=IFCPROPERTYSINGLEVALUE('MainsRating',$,IFCREAL(100.),$);
#137=IFCPROPERTYSINGLEVALUE('ShortCircuitRatingkA',$,IFCREAL(14.),$);
#138=IFCPROPERTYSINGLEVALUE('Mounting',$,IFCLABEL('surface'),$);
#139=IFCPROPERTYSINGLEVALUE('NumberOfCircuits',$,IFCINTEGER(42),$);
#140=IFCPROPERTYSINGLEVALUE('NeutralRating',$,IFCLABEL('100%'),$);
#141=IFCPROPERTYSINGLEVALUE('Description',$,IFCLABEL('480Y/277 V, 3-phase 4-wire, 100 A main-lugs-only panelboard, 42 circuits, surface mounted (box 20 W x 48 H x 5.75 D in; generated from catalog facts)'),$);
#142=IFCPROPERTYSET('06mFhBBKbdsU1$kdlIR4e1',#5,'PanelSchedule',$,(#127,#128,#129,#130,#131,#132,#133,#134,#135,#136,#137,#138,#139,#140,#141));
#143=IFCRELDEFINESBYPROPERTIES('0wyIu5JPw7tSqvASFJIIm6',#5,$,$,(#126),#142);
#144=IFCPROPERTYSINGLEVALUE('Manufacturer',$,IFCLABEL('Eaton'),$);
#145=IFCPROPERTYSINGLEVALUE('ModelLabel',$,IFCLABEL('PRL2X'),$);
#146=IFCPROPERTYSET('3UPXhN6yPi2crzdU2ggSm1',#5,'Pset_ManufacturerTypeInformation',$,(#144,#145));
#147=IFCRELDEFINESBYPROPERTIES('0E2ir9zNNpajoimoraD7uT',#5,$,$,(#126),#146);
#148=IFCCARTESIANPOINTLIST3D(((1.71265,2.2368,0.1),(2.48735,2.2368,0.1),(2.48735,2.8464,0.1),(1.71265,2.8464,0.1),(1.71265,2.2368,1.1922),(2.48735,2.2368,1.1922),(2.48735,2.8464,1.1922),(1.71265,2.8464,1.1922)));
#149=IFCTRIANGULATEDFACESET(#148,$,$,((1,3,2),(1,4,3),(5,6,7),(5,7,8),(1,2,6),(1,6,5),(2,3,7),(2,7,6),(3,4,8),(3,8,7),(4,1,5),(4,5,8)),$);
#150=IFCSTYLEDITEM(#149,(#33),'T1_body');
#151=IFCCARTESIANPOINTLIST3D(((1.98,2.2308,0.806133),(2.22,2.2308,0.806133),(2.22,2.2368,0.806133),(1.98,2.2368,0.806133),(1.98,2.2308,0.850133),(2.22,2.2308,0.850133),(2.22,2.2368,0.850133),(1.98,2.2368,0.850133)));
#152=IFCTRIANGULATEDFACESET(#151,$,$,((1,3,2),(1,4,3),(5,6,7),(5,7,8),(1,2,6),(1,6,5),(2,3,7),(2,7,6),(3,4,8),(3,8,7),(4,1,5),(4,5,8)),$);
#153=IFCSTYLEDITEM(#152,(#33),'T1_nameplate');
#154=IFCSHAPEREPRESENTATION(#11,'Body','Tessellation',(#149,#152));
#155=IFCPRODUCTDEFINITIONSHAPE($,$,(#154));
#156=IFCLOCALPLACEMENT(#25,#9);
#157=IFCTRANSFORMER('28$NR8lylYG3Ji9iDpFXl5',#5,'Dry Type Transformer T1 75kVA 480-208Y/120',$,$,#156,#155,'T1',$);
#158=IFCPROPERTYSINGLEVALUE('Width',$,IFCREAL(0.7747),$);
#159=IFCPROPERTYSINGLEVALUE('Height',$,IFCREAL(1.0922),$);
#160=IFCPROPERTYSINGLEVALUE('Depth',$,IFCREAL(0.6096),$);
#161=IFCPROPERTYSINGLEVALUE('kVA Rating',$,IFCREAL(807293.281253),$);
#162=IFCPROPERTYSINGLEVALUE('Primary Voltage',$,IFCREAL(480.),$);
#163=IFCPROPERTYSINGLEVALUE('Secondary Voltage',$,IFCREAL(208.),$);
#164=IFCPROPERTYSINGLEVALUE('Phases',$,IFCINTEGER(3),$);
#165=IFCPROPERTYSINGLEVALUE('Temperature Rise',$,IFCREAL(150.),$);
#166=IFCPROPERTYSINGLEVALUE('Weight',$,IFCREAL(570.),$);
#167=IFCPROPERTYSINGLEVALUE('Frame',$,IFCLABEL('FR942'),$);
#168=IFCPROPERTYSINGLEVALUE('Enclosure',$,IFCLABEL('NEMA 2 (indoor)'),$);
#169=IFCPROPERTYSINGLEVALUE('Description',$,IFCLABEL('75 kVA, 3-phase, 480 - 208Y/120 V dry-type transformer, 150 C rise, aluminum windings, frame FR942 (30.5 W x 43 H x 24 D in, 570 lb; generated from catalog facts)'),$);
#170=IFCPROPERTYSINGLEVALUE('Voltage',$,IFCLABEL('208Y/120 V'),$);
#171=IFCPROPERTYSET('2eoCvq4xpNlU5DLuPy4y9p',#5,'TransformerSchedule',$,(#158,#159,#160,#161,#162,#163,#164,#165,#166,#167,#168,#169,#170));
#172=IFCRELDEFINESBYPROPERTIES('0ULVl_B6QvJAABxJ3Nh_rA',#5,$,$,(#157),#171);
#173=IFCPROPERTYSINGLEVALUE('Manufacturer',$,IFCLABEL('Eaton'),$);
#174=IFCPROPERTYSINGLEVALUE('ModelLabel',$,IFCLABEL('V48M28T7516'),$);
#175=IFCPROPERTYSET('21wRTkkt6DzYi$_ExEVEnt',#5,'Pset_ManufacturerTypeInformation',$,(#173,#174));
#176=IFCRELDEFINESBYPROPERTIES('0fTYR4uboAb8$f6ipXQIFI',#5,$,$,(#157),#175);
#177=IFCRELCONTAINEDINSPATIALSTRUCTURE('2QcmzThzz0e0YoEDADR1CL',#5,$,$,(#49,#62,#95,#126,#157),#26);
ENDSEC;
END-ISO-10303-21;
