ISO-10303-21;
HEADER;
FILE_DESCRIPTION(('ViewDefinition [CoordinationView]'),'2;1');
FILE_NAME('bs-area-e-electrical-room.ifc','2026-07-30T03:56:20',(''),(''),'three-d-stage IFC writer','three-d-stage','');
FILE_SCHEMA(('IFC4'));
ENDSEC;
DATA;
#1=IFCPERSON('tekton-ifc','engine','tekton-ifc',$,$,$,$,$);
#2=IFCORGANIZATION($,'three-d-stage',$,$,$);
#3=IFCPERSONANDORGANIZATION(#1,#2,$);
#4=IFCAPPLICATION(#2,'1.0','three-d-stage IFC writer','three_d_stage');
#5=IFCOWNERHISTORY(#3,#4,.READWRITE.,.MODIFIED.,1785733622,#3,#4,1785383780);
#6=IFCDIRECTION((1.,0.,0.));
#7=IFCDIRECTION((0.,0.,1.));
#8=IFCCARTESIANPOINT((0.,0.,0.));
#9=IFCAXIS2PLACEMENT3D(#8,#7,#6);
#10=IFCGEOMETRICREPRESENTATIONCONTEXT($,'Model',3,1.0000000000000001E-05,#9,$);
#11=IFCGEOMETRICREPRESENTATIONSUBCONTEXT('Body','Model',*,*,*,*,#10,$,.MODEL_VIEW.,$);
#12=IFCSIUNIT(*,.LENGTHUNIT.,$,.METRE.);
#13=IFCSIUNIT(*,.AREAUNIT.,$,.SQUARE_METRE.);
#14=IFCSIUNIT(*,.VOLUMEUNIT.,$,.CUBIC_METRE.);
#15=IFCSIUNIT(*,.PLANEANGLEUNIT.,$,.RADIAN.);
#16=IFCSIUNIT(*,.ELECTRICVOLTAGEUNIT.,$,.VOLT.);
#17=IFCSIUNIT(*,.ELECTRICCURRENTUNIT.,$,.AMPERE.);
#18=IFCSIUNIT(*,.POWERUNIT.,$,.WATT.);
#19=IFCUNITASSIGNMENT((#12,#13,#14,#15,#16,#17,#18));
#20=IFCPROJECT('3vu4DB3GgF4lmiuZxD48uv',#5,'DDOT Coolidge - Area E bus storage electrical room',$,$,$,$,(#10),#19);
#21=IFCLOCALPLACEMENT($,#9);
#22=IFCSITE('2ZrhTPV7jc$Pyvu6gERV0n',#5,'Site',$,$,#21,$,$,.ELEMENT.,$,$,$,$,$);
#23=IFCLOCALPLACEMENT(#21,#9);
#24=IFCBUILDING('0u3M6DT12jyfdw5uABBl1Q',#5,'Building',$,$,#23,$,$,.ELEMENT.,$,$,$);
#25=IFCLOCALPLACEMENT(#23,#9);
#26=IFCBUILDINGSTOREY('2RXK6hFR__MBlm8h4$Hi_L',#5,'Level 1',$,$,#25,$,$,.ELEMENT.,0.);
#27=IFCRELAGGREGATES('1dXcC5O3uT7hywUxG_q77N',#5,$,$,#20,(#22));
#28=IFCRELAGGREGATES('3JnEDuEdt29jwgojgwJKV3',#5,$,$,#22,(#24));
#29=IFCRELAGGREGATES('1YJo$N1P2KIG22p6Rmq9VE',#5,$,$,#24,(#26));
#32=IFCCOLOURRGB($,0.78823500000000002,0.77647100000000002,0.74509800000000004);
#33=IFCSURFACESTYLERENDERING(#32,0.,$,$,$,$,$,$,.NOTDEFINED.);
#34=IFCSURFACESTYLE('concrete',.BOTH.,(#33));
#35=IFCPRESENTATIONSTYLEASSIGNMENT((#34));
#39=IFCCOLOURRGB($,0.92941200000000002,0.91764699999999999,0.88627500000000003);
#40=IFCSURFACESTYLERENDERING(#39,0.,$,$,$,$,$,$,.NOTDEFINED.);
#41=IFCSURFACESTYLE('painted_wall',.BOTH.,(#40));
#42=IFCPRESENTATIONSTYLEASSIGNMENT((#41));
#51=IFCPRODUCTDEFINITIONSHAPE($,$,(#374));
#52=IFCLOCALPLACEMENT(#25,#341);
#53=IFCBUILDINGELEMENTPROXY('1HIerdo5jUXwamW6MpY5VO',#5,'Bus storage electrical room shell \X2\2014\X0\ Area E','34 ft x 16 ft clear, 20 ft to structure; front wall cut away for viewing',$,#52,#51,'ROOM',.NOTDEFINED.);
#54=IFCPROPERTYSINGLEVALUE('Facility',$,IFCLABEL('DDOT Coolidge \X2\2014\X0\ bus storage / coach services'),$);
#55=IFCPROPERTYSINGLEVALUE('Area',$,IFCLABEL('E'),$);
#56=IFCPROPERTYSINGLEVALUE('ConduitRackMinElevationFt',$,IFCREAL(16.),$);
#57=IFCPROPERTYSET('1ep_yLPr1sFICW$TFdvb9m',#5,'RoomInformation',$,(#54,#55,#56));
#58=IFCRELDEFINESBYPROPERTIES('2y89lQGczZSBIiNk0MPCiR',#5,$,$,(#53),#57);
#61=IFCCOLOURRGB($,0.611765,0.63529400000000003,0.63921600000000001);
#62=IFCSURFACESTYLERENDERING(#61,0.,$,$,$,$,$,$,.NOTDEFINED.);
#63=IFCSURFACESTYLE('ansi61_gray',.BOTH.,(#62));
#64=IFCPRESENTATIONSTYLEASSIGNMENT((#63));
#71=IFCCOLOURRGB($,0.16470599999999999,0.16470599999999999,0.156863);
#72=IFCSURFACESTYLERENDERING(#71,0.,$,$,$,$,$,$,.NOTDEFINED.);
#73=IFCSURFACESTYLE('black_hardware',.BOTH.,(#72));
#74=IFCPRESENTATIONSTYLEASSIGNMENT((#73));
#78=IFCCOLOURRGB($,0.95686300000000002,0.94901999999999997,0.91764699999999999);
#79=IFCSURFACESTYLERENDERING(#78,0.,$,$,$,$,$,$,.NOTDEFINED.);
#80=IFCSURFACESTYLE('white_label',.BOTH.,(#79));
#81=IFCPRESENTATIONSTYLEASSIGNMENT((#80));
#85=IFCCOLOURRGB($,0.70588200000000001,0.72548999999999997,0.70980399999999999);
#86=IFCSURFACESTYLERENDERING(#85,0.,$,$,$,$,$,$,.NOTDEFINED.);
#87=IFCSURFACESTYLE('galvanized_steel',.BOTH.,(#86));
#88=IFCPRESENTATIONSTYLEASSIGNMENT((#87));
#91=IFCPRODUCTDEFINITIONSHAPE($,$,(#610));
#92=IFCLOCALPLACEMENT(#25,#561);
#93=IFCELECTRICDISTRIBUTIONBOARD('14wy3TQKz4SSS_bPCufWif',#5,'B-HG4','Panelboard, 480Y/277 V; fed from MDB via BS-FD1020',$,#92,#91,'B-HG4',.DISTRIBUTIONBOARD.);
#94=IFCPROPERTYSINGLEVALUE('PanelName',$,IFCLABEL('B-HG4'),$);
#95=IFCPROPERTYSINGLEVALUE('Voltage',$,IFCLABEL('480Y/277 V'),$);
#96=IFCPROPERTYSINGLEVALUE('FedFrom',$,IFCLABEL('MDB via BS-FD1020'),$);
#97=IFCPROPERTYSINGLEVALUE('FeederRun',$,IFCLABEL('BS-FD1020'),$);
#98=IFCPROPERTYSINGLEVALUE('CenterlineFromGrid16BS',$,IFCLENGTHMEASURE(1.3990320000000001),$);
#99=IFCPROPERTYSINGLEVALUE('TopOfPanelAFF',$,IFCLENGTHMEASURE(1.9812000000000001),$);
#100=IFCPROPERTYSET('3wxedkK9HIdezpGOJ2sNe$',#5,'PanelSchedule',$,(#94,#95,#96,#97,#98,#99));
#101=IFCRELDEFINESBYPROPERTIES('2XUR1FXRAkU7lni8Cks_Gv',#5,$,$,(#93),#100);
#118=IFCPRODUCTDEFINITIONSHAPE($,$,(#663));
#119=IFCLOCALPLACEMENT(#25,#614);
#120=IFCELECTRICDISTRIBUTIONBOARD('3DvI2ISY4IImiqWQhTxkaE',#5,'B-LR1','Panelboard, 208Y/120 V; fed from XFMR-LR1 via BS-FD1011',$,#119,#118,'B-LR1',.DISTRIBUTIONBOARD.);
#121=IFCPROPERTYSINGLEVALUE('PanelName',$,IFCLABEL('B-LR1'),$);
#122=IFCPROPERTYSINGLEVALUE('Voltage',$,IFCLABEL('208Y/120 V'),$);
#123=IFCPROPERTYSINGLEVALUE('FedFrom',$,IFCLABEL('XFMR-LR1 via BS-FD1011'),$);
#124=IFCPROPERTYSINGLEVALUE('FeederRun',$,IFCLABEL('BS-FD1011'),$);
#125=IFCPROPERTYSINGLEVALUE('CenterlineFromGrid16BS',$,IFCLENGTHMEASURE(2.1945600000000001),$);
#126=IFCPROPERTYSINGLEVALUE('TopOfPanelAFF',$,IFCLENGTHMEASURE(1.9812000000000001),$);
#127=IFCPROPERTYSET('0xU$jTSsAa038PUR710TbN',#5,'PanelSchedule',$,(#121,#122,#123,#124,#125,#126));
#128=IFCRELDEFINESBYPROPERTIES('37kIbRi1R9Eu93dP0$QdV2',#5,$,$,(#120),#127);
#145=IFCPRODUCTDEFINITIONSHAPE($,$,(#716));
#146=IFCLOCALPLACEMENT(#25,#667);
#147=IFCELECTRICDISTRIBUTIONBOARD('24SK5_hAD4yTgagh7XJomU',#5,'B-HQ1','Panelboard, 480Y/277 V; fed from B-HD1 via BS-FD1009',$,#146,#145,'B-HQ1',.DISTRIBUTIONBOARD.);
#148=IFCPROPERTYSINGLEVALUE('PanelName',$,IFCLABEL('B-HQ1'),$);
#149=IFCPROPERTYSINGLEVALUE('Voltage',$,IFCLABEL('480Y/277 V'),$);
#150=IFCPROPERTYSINGLEVALUE('FedFrom',$,IFCLABEL('B-HD1 via BS-FD1009'),$);
#151=IFCPROPERTYSINGLEVALUE('FeederRun',$,IFCLABEL('BS-FD1009'),$);
#152=IFCPROPERTYSINGLEVALUE('CenterlineFromGrid16BS',$,IFCLENGTHMEASURE(4.9072800000000001),$);
#153=IFCPROPERTYSINGLEVALUE('TopOfPanelAFF',$,IFCLENGTHMEASURE(1.9812000000000001),$);
#154=IFCPROPERTYSET('1PJoQeoDc04q6WXn0YlLgY',#5,'PanelSchedule',$,(#148,#149,#150,#151,#152,#153));
#155=IFCRELDEFINESBYPROPERTIES('0z44MZQTGCHQgdbegEstwr',#5,$,$,(#147),#154);
#172=IFCPRODUCTDEFINITIONSHAPE($,$,(#769));
#173=IFCLOCALPLACEMENT(#25,#720);
#174=IFCELECTRICDISTRIBUTIONBOARD('22NJUdFAn19_LzhIA33mnL',#5,'B-LQ1','Panelboard, 208Y/120 V; fed from XFMR-LQ1 via BS-FD1013',$,#173,#172,'B-LQ1',.DISTRIBUTIONBOARD.);
#175=IFCPROPERTYSINGLEVALUE('PanelName',$,IFCLABEL('B-LQ1'),$);
#176=IFCPROPERTYSINGLEVALUE('Voltage',$,IFCLABEL('208Y/120 V'),$);
#177=IFCPROPERTYSINGLEVALUE('FedFrom',$,IFCLABEL('XFMR-LQ1 via BS-FD1013'),$);
#178=IFCPROPERTYSINGLEVALUE('FeederRun',$,IFCLABEL('BS-FD1013'),$);
#179=IFCPROPERTYSINGLEVALUE('CenterlineFromGrid16BS',$,IFCLENGTHMEASURE(5.6144160000000003),$);
#180=IFCPROPERTYSINGLEVALUE('TopOfPanelAFF',$,IFCLENGTHMEASURE(1.9812000000000001),$);
#181=IFCPROPERTYSET('3myleGXZYTDpirnGd$GOmb',#5,'PanelSchedule',$,(#175,#176,#177,#178,#179,#180));
#182=IFCRELDEFINESBYPROPERTIES('1sZEStocC4hTg73EKCiyqE',#5,$,$,(#174),#181);
#199=IFCPRODUCTDEFINITIONSHAPE($,$,(#822));
#200=IFCLOCALPLACEMENT(#25,#773);
#201=IFCELECTRICDISTRIBUTIONBOARD('3G3sP66IX_rWVMLu8BB5Vf',#5,'B-SLQ1','Panelboard, 208Y/120 V (verify system); fed from XFMR-B-SLQ1 (run not in BS-EP7-00 \X2\2014\X0\ verify)',$,#200,#199,'B-SLQ1',.DISTRIBUTIONBOARD.);
#202=IFCPROPERTYSINGLEVALUE('PanelName',$,IFCLABEL('B-SLQ1'),$);
#203=IFCPROPERTYSINGLEVALUE('Voltage',$,IFCLABEL('208Y/120 V (verify system)'),$);
#204=IFCPROPERTYSINGLEVALUE('FedFrom',$,IFCLABEL('XFMR-B-SLQ1 (run not in BS-EP7-00 \X2\2014\X0\ verify)'),$);
#205=IFCPROPERTYSINGLEVALUE('FeederRun',$,IFCLABEL('ASSUMED'),$);
#206=IFCPROPERTYSINGLEVALUE('CenterlineFromGrid16BS',$,IFCLENGTHMEASURE(6.3093599999999999),$);
#207=IFCPROPERTYSINGLEVALUE('TopOfPanelAFF',$,IFCLENGTHMEASURE(1.9812000000000001),$);
#208=IFCPROPERTYSET('3xAp_8ZbvNgE6grHUfwZem',#5,'PanelSchedule',$,(#202,#203,#204,#205,#206,#207));
#209=IFCRELDEFINESBYPROPERTIES('1$Ad0P6N4RqFWUOM4Rqs0P',#5,$,$,(#201),#208);
#226=IFCPRODUCTDEFINITIONSHAPE($,$,(#875));
#227=IFCLOCALPLACEMENT(#25,#826);
#228=IFCELECTRICDISTRIBUTIONBOARD('2ROiznUzrJyvmqvVQaZ1Am',#5,'B-SHQ1','Panelboard, 480Y/277 V (verify); fed from MDB (run not in BS-EP7-00 \X2\2014\X0\ verify)',$,#227,#226,'B-SHQ1',.DISTRIBUTIONBOARD.);
#229=IFCPROPERTYSINGLEVALUE('PanelName',$,IFCLABEL('B-SHQ1'),$);
#230=IFCPROPERTYSINGLEVALUE('Voltage',$,IFCLABEL('480Y/277 V (verify)'),$);
#231=IFCPROPERTYSINGLEVALUE('FedFrom',$,IFCLABEL('MDB (run not in BS-EP7-00 \X2\2014\X0\ verify)'),$);
#232=IFCPROPERTYSINGLEVALUE('FeederRun',$,IFCLABEL('ASSUMED'),$);
#233=IFCPROPERTYSINGLEVALUE('CenterlineFromGrid16BS',$,IFCLENGTHMEASURE(8.8331040000000005),$);
#234=IFCPROPERTYSINGLEVALUE('TopOfPanelAFF',$,IFCLENGTHMEASURE(1.9812000000000001),$);
#235=IFCPROPERTYSET('0MEudkiMUplzYyuHkg45w9',#5,'PanelSchedule',$,(#229,#230,#231,#232,#233,#234));
#236=IFCRELDEFINESBYPROPERTIES('3MqM7jFS6JY8ANY0mHztNi',#5,$,$,(#228),#235);
#250=IFCPRODUCTDEFINITIONSHAPE($,$,(#435));
#251=IFCLOCALPLACEMENT(#25,#378);
#252=IFCTRANSFORMER('3ZGqadb7cqrHWdSOgOJ5IP',#5,'XFMR-LR1','45 kVA dry-type, 480 V delta \X2\2013\X0\ 208Y/120 V, feeds B-LR1; location assumed pending BS-EQ1-01-E callout geometry',$,#251,#250,'XFMR-LR1',.VOLTAGE.);
#253=IFCPROPERTYSINGLEVALUE('RatingkVA',$,IFCREAL(45.),$);
#254=IFCPROPERTYSINGLEVALUE('Primary',$,IFCLABEL('480 V delta'),$);
#255=IFCPROPERTYSINGLEVALUE('Secondary',$,IFCLABEL('208Y/120 V'),$);
#256=IFCPROPERTYSINGLEVALUE('Feeds',$,IFCLABEL('B-LR1'),$);
#257=IFCPROPERTYSINGLEVALUE('LocationStatus',$,IFCLABEL('ASSUMED \X2\2014\X0\ VERIFY'),$);
#258=IFCPROPERTYSET('3OeL$1QER9FYZGEoSnV6SX',#5,'TransformerSchedule',$,(#253,#254,#255,#256,#257));
#259=IFCRELDEFINESBYPROPERTIES('2fqumhTks7gWSKPELV$_3J',#5,$,$,(#252),#258);
#273=IFCPRODUCTDEFINITIONSHAPE($,$,(#496));
#274=IFCLOCALPLACEMENT(#25,#439);
#275=IFCTRANSFORMER('1GSig9yRHZTFmNw4W2rrkJ',#5,'XFMR-LQ1','45 kVA dry-type, 480 V delta \X2\2013\X0\ 208Y/120 V, feeds B-LQ1; location assumed pending BS-EQ1-01-E callout geometry',$,#274,#273,'XFMR-LQ1',.VOLTAGE.);
#276=IFCPROPERTYSINGLEVALUE('RatingkVA',$,IFCREAL(45.),$);
#277=IFCPROPERTYSINGLEVALUE('Primary',$,IFCLABEL('480 V delta'),$);
#278=IFCPROPERTYSINGLEVALUE('Secondary',$,IFCLABEL('208Y/120 V'),$);
#279=IFCPROPERTYSINGLEVALUE('Feeds',$,IFCLABEL('B-LQ1'),$);
#280=IFCPROPERTYSINGLEVALUE('LocationStatus',$,IFCLABEL('ASSUMED \X2\2014\X0\ VERIFY'),$);
#281=IFCPROPERTYSET('2$QYnwTdUTHxY1RBMb6KjE',#5,'TransformerSchedule',$,(#276,#277,#278,#279,#280));
#282=IFCRELDEFINESBYPROPERTIES('3ranWTSWehcjYcMBQzi2nj',#5,$,$,(#275),#281);
#296=IFCPRODUCTDEFINITIONSHAPE($,$,(#557));
#297=IFCLOCALPLACEMENT(#25,#500);
#298=IFCTRANSFORMER('1FngqFXpqY8UAT7YnXTYfU',#5,'XFMR-B-SLQ1','45 kVA dry-type, 480 V delta \X2\2013\X0\ 208Y/120 V, feeds B-SLQ1; location assumed pending BS-EQ1-01-E callout geometry',$,#297,#296,'XFMR-B-SLQ1',.VOLTAGE.);
#299=IFCPROPERTYSINGLEVALUE('RatingkVA',$,IFCREAL(45.),$);
#300=IFCPROPERTYSINGLEVALUE('Primary',$,IFCLABEL('480 V delta'),$);
#301=IFCPROPERTYSINGLEVALUE('Secondary',$,IFCLABEL('208Y/120 V'),$);
#302=IFCPROPERTYSINGLEVALUE('Feeds',$,IFCLABEL('B-SLQ1'),$);
#303=IFCPROPERTYSINGLEVALUE('LocationStatus',$,IFCLABEL('ASSUMED \X2\2014\X0\ VERIFY'),$);
#304=IFCPROPERTYSET('2yv09qbKhQdpU7Qu6R3dxn',#5,'TransformerSchedule',$,(#299,#300,#301,#302,#303));
#305=IFCRELDEFINESBYPROPERTIES('0TFQMYarG9hKFBJeKoetpF',#5,$,$,(#298),#304);
#306=IFCCARTESIANPOINTLIST3D(((-4.2466999999999997,0.28839999999999999,4.9897),(-4.2466999999999997,1.8084,4.9897),(-4.2466999999999997,0.28839999999999999,4.9486999999999997),(-4.2466999999999997,1.8084,4.9486999999999997),(-4.2877000000000001,1.8084,4.9897),(-4.2877000000000001,0.28839999999999999,4.9897),(-4.2877000000000001,1.8084,4.9486999999999997),(-4.2877000000000001,0.28839999999999999,4.9486999999999997),(-4.2877000000000001,1.8084,4.9897),(-4.2466999999999997,1.8084,4.9897),(-4.2877000000000001,0.28839999999999999,4.9897),(-4.2466999999999997,0.28839999999999999,4.9897),(-4.2877000000000001,0.28839999999999999,4.9486999999999997),(-4.2466999999999997,0.28839999999999999,4.9486999999999997),(-4.2877000000000001,1.8084,4.9486999999999997),(-4.2466999999999997,1.8084,4.9486999999999997),(-4.2877000000000001,0.28839999999999999,4.9897),(-4.2466999999999997,0.28839999999999999,4.9897),(-4.2877000000000001,0.28839999999999999,4.9486999999999997),(-4.2466999999999997,0.28839999999999999,4.9486999999999997),(-4.2466999999999997,1.8084,4.9897),(-4.2877000000000001,1.8084,4.9897),(-4.2466999999999997,1.8084,4.9486999999999997),(-4.2877000000000001,1.8084,4.9486999999999997),(-4.2671999999999999,1.7524,6.0045599999999997),(-4.2629580000000002,1.754157,6.0045599999999997),(-4.2611999999999997,1.7584,6.0045599999999997),(-4.2629580000000002,1.762643,6.0045599999999997),(-4.2671999999999999,1.7644,6.0045599999999997),(-4.2714420000000004,1.762643,6.0045599999999997),(-4.2732000000000001,1.7584,6.0045599999999997),(-4.2714420000000004,1.754157,6.0045599999999997),(-4.2671999999999999,1.7524,6.0045599999999997),(-4.2671999999999999,1.7524,4.9691999999999998),(-4.2629580000000002,1.754157,4.9691999999999998),(-4.2611999999999997,1.7584,4.9691999999999998),(-4.2629580000000002,1.762643,4.9691999999999998),(-4.2671999999999999,1.7644,4.9691999999999998),(-4.2714420000000004,1.762643,4.9691999999999998),(-4.2732000000000001,1.7584,4.9691999999999998),(-4.2714420000000004,1.754157,4.9691999999999998),(-4.2671999999999999,1.7524,4.9691999999999998),(-4.2671999999999999,1.7584,6.0045599999999997),(-4.2671999999999999,1.7584,6.0045599999999997),(-4.2671999999999999,1.7584,6.0045599999999997),(-4.2671999999999999,1.7584,6.0045599999999997),(-4.2671999999999999,1.7584,6.0045599999999997),(-4.2671999999999999,1.7584,6.0045599999999997),(-4.2671999999999999,1.7584,6.0045599999999997),(-4.2671999999999999,1.7584,6.0045599999999997),(-4.2671999999999999,1.7524,6.0045599999999997),(-4.2629580000000002,1.754157,6.0045599999999997),(-4.2611999999999997,1.7584,6.0045599999999997),(-4.2629580000000002,1.762643,6.0045599999999997),(-4.2671999999999999,1.7644,6.0045599999999997),(-4.2714420000000004,1.762643,6.0045599999999997),(-4.2732000000000001,1.7584,6.0045599999999997),(-4.2714420000000004,1.754157,6.0045599999999997),(-4.2671999999999999,1.7524,6.0045599999999997),(-4.2671999999999999,1.7584,4.9691999999999998),(-4.2671999999999999,1.7584,4.9691999999999998),(-4.2671999999999999,1.7584,4.9691999999999998),(-4.2671999999999999,1.7584,4.9691999999999998),(-4.2671999999999999,1.7584,4.9691999999999998),(-4.2671999999999999,1.7584,4.9691999999999998),(-4.2671999999999999,1.7584,4.9691999999999998),(-4.2671999999999999,1.7584,4.9691999999999998),(-4.2671999999999999,1.7524,4.9691999999999998),(-4.2629580000000002,1.754157,4.9691999999999998),(-4.2611999999999997,1.7584,4.9691999999999998),(-4.2629580000000002,1.762643,4.9691999999999998),(-4.2671999999999999,1.7644,4.9691999999999998),(-4.2714420000000004,1.762643,4.9691999999999998),(-4.2732000000000001,1.7584,4.9691999999999998),(-4.2714420000000004,1.754157,4.9691999999999998),(-4.2671999999999999,1.7524,4.9691999999999998),(-4.2671999999999999,0.33239999999999997,6.0045599999999997),(-4.2629580000000002,0.33415699999999998,6.0045599999999997),(-4.2611999999999997,0.33839999999999998,6.0045599999999997),(-4.2629580000000002,0.34264299999999998,6.0045599999999997),(-4.2671999999999999,0.34439999999999998,6.0045599999999997),(-4.2714420000000004,0.34264299999999998,6.0045599999999997),(-4.2732000000000001,0.33839999999999998,6.0045599999999997),(-4.2714420000000004,0.33415699999999998,6.0045599999999997),(-4.2671999999999999,0.33239999999999997,6.0045599999999997),(-4.2671999999999999,0.33239999999999997,4.9691999999999998),(-4.2629580000000002,0.33415699999999998,4.9691999999999998),(-4.2611999999999997,0.33839999999999998,4.9691999999999998),(-4.2629580000000002,0.34264299999999998,4.9691999999999998),(-4.2671999999999999,0.34439999999999998,4.9691999999999998),(-4.2714420000000004,0.34264299999999998,4.9691999999999998),(-4.2732000000000001,0.33839999999999998,4.9691999999999998),(-4.2714420000000004,0.33415699999999998,4.9691999999999998),(-4.2671999999999999,0.33239999999999997,4.9691999999999998),(-4.2671999999999999,0.33839999999999998,6.0045599999999997),(-4.2671999999999999,0.33839999999999998,6.0045599999999997),(-4.2671999999999999,0.33839999999999998,6.0045599999999997),(-4.2671999999999999,0.33839999999999998,6.0045599999999997),(-4.2671999999999999,0.33839999999999998,6.0045599999999997),(-4.2671999999999999,0.33839999999999998,6.0045599999999997),(-4.2671999999999999,0.33839999999999998,6.0045599999999997),(-4.2671999999999999,0.33839999999999998,6.0045599999999997),(-4.2671999999999999,0.33239999999999997,6.0045599999999997),(-4.2629580000000002,0.33415699999999998,6.0045599999999997),(-4.2611999999999997,0.33839999999999998,6.0045599999999997),(-4.2629580000000002,0.34264299999999998,6.0045599999999997),(-4.2671999999999999,0.34439999999999998,6.0045599999999997),(-4.2714420000000004,0.34264299999999998,6.0045599999999997),(-4.2732000000000001,0.33839999999999998,6.0045599999999997),(-4.2714420000000004,0.33415699999999998,6.0045599999999997),(-4.2671999999999999,0.33239999999999997,6.0045599999999997),(-4.2671999999999999,0.33839999999999998,4.9691999999999998),(-4.2671999999999999,0.33839999999999998,4.9691999999999998),(-4.2671999999999999,0.33839999999999998,4.9691999999999998),(-4.2671999999999999,0.33839999999999998,4.9691999999999998),(-4.2671999999999999,0.33839999999999998,4.9691999999999998),(-4.2671999999999999,0.33839999999999998,4.9691999999999998),(-4.2671999999999999,0.33839999999999998,4.9691999999999998),(-4.2671999999999999,0.33839999999999998,4.9691999999999998),(-4.2671999999999999,0.33239999999999997,4.9691999999999998),(-4.2629580000000002,0.33415699999999998,4.9691999999999998),(-4.2611999999999997,0.33839999999999998,4.9691999999999998),(-4.2629580000000002,0.34264299999999998,4.9691999999999998),(-4.2671999999999999,0.34439999999999998,4.9691999999999998),(-4.2714420000000004,0.34264299999999998,4.9691999999999998),(-4.2732000000000001,0.33839999999999998,4.9691999999999998),(-4.2714420000000004,0.33415699999999998,4.9691999999999998),(-4.2671999999999999,0.33239999999999997,4.9691999999999998),(-4.2371999999999996,1.7283999999999999,6.0245600000000001),(-4.2371999999999996,1.7884,6.0245600000000001),(-4.2371999999999996,1.7283999999999999,6.0045599999999997),(-4.2371999999999996,1.7884,6.0045599999999997),(-4.2972000000000001,1.7884,6.0245600000000001),(-4.2972000000000001,1.7283999999999999,6.0245600000000001),(-4.2972000000000001,1.7884,6.0045599999999997),(-4.2972000000000001,1.7283999999999999,6.0045599999999997),(-4.2972000000000001,1.7884,6.0245600000000001),(-4.2371999999999996,1.7884,6.0245600000000001),(-4.2972000000000001,1.7283999999999999,6.0245600000000001),(-4.2371999999999996,1.7283999999999999,6.0245600000000001),(-4.2972000000000001,1.7283999999999999,6.0045599999999997),(-4.2371999999999996,1.7283999999999999,6.0045599999999997),(-4.2972000000000001,1.7884,6.0045599999999997),(-4.2371999999999996,1.7884,6.0045599999999997),(-4.2972000000000001,1.7283999999999999,6.0245600000000001),(-4.2371999999999996,1.7283999999999999,6.0245600000000001),(-4.2972000000000001,1.7283999999999999,6.0045599999999997),(-4.2371999999999996,1.7283999999999999,6.0045599999999997),(-4.2371999999999996,1.7884,6.0245600000000001),(-4.2972000000000001,1.7884,6.0245600000000001),(-4.2371999999999996,1.7884,6.0045599999999997),(-4.2972000000000001,1.7884,6.0045599999999997),(-4.2371999999999996,0.30840000000000001,6.0245600000000001),(-4.2371999999999996,0.36840000000000001,6.0245600000000001),(-4.2371999999999996,0.30840000000000001,6.0045599999999997),(-4.2371999999999996,0.36840000000000001,6.0045599999999997),(-4.2972000000000001,0.36840000000000001,6.0245600000000001),(-4.2972000000000001,0.30840000000000001,6.0245600000000001),(-4.2972000000000001,0.36840000000000001,6.0045599999999997),(-4.2972000000000001,0.30840000000000001,6.0045599999999997),(-4.2972000000000001,0.36840000000000001,6.0245600000000001),(-4.2371999999999996,0.36840000000000001,6.0245600000000001),(-4.2972000000000001,0.30840000000000001,6.0245600000000001),(-4.2371999999999996,0.30840000000000001,6.0245600000000001),(-4.2972000000000001,0.30840000000000001,6.0045599999999997),(-4.2371999999999996,0.30840000000000001,6.0045599999999997),(-4.2972000000000001,0.36840000000000001,6.0045599999999997),(-4.2371999999999996,0.36840000000000001,6.0045599999999997),(-4.2972000000000001,0.30840000000000001,6.0245600000000001),(-4.2371999999999996,0.30840000000000001,6.0245600000000001),(-4.2972000000000001,0.30840000000000001,6.0045599999999997),(-4.2371999999999996,0.30840000000000001,6.0045599999999997),(-4.2371999999999996,0.36840000000000001,6.0245600000000001),(-4.2972000000000001,0.36840000000000001,6.0245600000000001),(-4.2371999999999996,0.36840000000000001,6.0045599999999997),(-4.2972000000000001,0.36840000000000001,6.0045599999999997)));
#307=IFCTRIANGULATEDFACESET(#306,$,$,((1,3,2),(3,4,2),(5,7,6),(7,8,6),(9,11,10),(11,12,10),(13,15,14),(15,16,14),(17,19,18),(19,20,18),(21,23,22),(23,24,22),(25,34,26),(34,35,26),(26,35,27),(35,36,27),(27,36,28),(36,37,28),(28,37,29),(37,38,29),(29,38,30),(38,39,30),(30,39,31),(39,40,31),(31,40,32),(40,41,32),(32,41,33),(41,42,33),(51,52,43),(52,53,44),(53,54,45),(54,55,46),(55,56,47),(56,57,48),(57,58,49),(58,59,50),(69,68,60),(70,69,61),(71,70,62),(72,71,63),(73,72,64),(74,73,65),(75,74,66),(76,75,67),(77,86,78),(86,87,78),(78,87,79),(87,88,79),(79,88,80),(88,89,80),(80,89,81),(89,90,81),(81,90,82),(90,91,82),(82,91,83),(91,92,83),(83,92,84),(92,93,84),(84,93,85),(93,94,85),(103,104,95),(104,105,96),(105,106,97),(106,107,98),(107,108,99),(108,109,100),(109,110,101),(110,111,102),(121,120,112),(122,121,113),(123,122,114),(124,123,115),(125,124,116),(126,125,117),(127,126,118),(128,127,119),(129,131,130),(131,132,130),(133,135,134),(135,136,134),(137,139,138),(139,140,138),(141,143,142),(143,144,142),(145,147,146),(147,148,146),(149,151,150),(151,152,150),(153,155,154),(155,156,154),(157,159,158),(159,160,158),(161,163,162),(163,164,162),(165,167,166),(167,168,166),(169,171,170),(171,172,170),(173,175,174),(175,176,174)),$);
#308=IFCSTYLEDITEM(#307,(#88),'trapeze_01');
#309=IFCCARTESIANPOINTLIST3D(((-1.8083,0.28839999999999999,4.9897),(-1.8083,1.8084,4.9897),(-1.8083,0.28839999999999999,4.9486999999999997),(-1.8083,1.8084,4.9486999999999997),(-1.8492999999999999,1.8084,4.9897),(-1.8492999999999999,0.28839999999999999,4.9897),(-1.8492999999999999,1.8084,4.9486999999999997),(-1.8492999999999999,0.28839999999999999,4.9486999999999997),(-1.8492999999999999,1.8084,4.9897),(-1.8083,1.8084,4.9897),(-1.8492999999999999,0.28839999999999999,4.9897),(-1.8083,0.28839999999999999,4.9897),(-1.8492999999999999,0.28839999999999999,4.9486999999999997),(-1.8083,0.28839999999999999,4.9486999999999997),(-1.8492999999999999,1.8084,4.9486999999999997),(-1.8083,1.8084,4.9486999999999997),(-1.8492999999999999,0.28839999999999999,4.9897),(-1.8083,0.28839999999999999,4.9897),(-1.8492999999999999,0.28839999999999999,4.9486999999999997),(-1.8083,0.28839999999999999,4.9486999999999997),(-1.8083,1.8084,4.9897),(-1.8492999999999999,1.8084,4.9897),(-1.8083,1.8084,4.9486999999999997),(-1.8492999999999999,1.8084,4.9486999999999997),(-1.8288,1.7524,6.0045599999999997),(-1.824557,1.754157,6.0045599999999997),(-1.8228,1.7584,6.0045599999999997),(-1.824557,1.762643,6.0045599999999997),(-1.8288,1.7644,6.0045599999999997),(-1.833043,1.762643,6.0045599999999997),(-1.8348,1.7584,6.0045599999999997),(-1.833043,1.754157,6.0045599999999997),(-1.8288,1.7524,6.0045599999999997),(-1.8288,1.7524,4.9691999999999998),(-1.824557,1.754157,4.9691999999999998),(-1.8228,1.7584,4.9691999999999998),(-1.824557,1.762643,4.9691999999999998),(-1.8288,1.7644,4.9691999999999998),(-1.833043,1.762643,4.9691999999999998),(-1.8348,1.7584,4.9691999999999998),(-1.833043,1.754157,4.9691999999999998),(-1.8288,1.7524,4.9691999999999998),(-1.8288,1.7584,6.0045599999999997),(-1.8288,1.7584,6.0045599999999997),(-1.8288,1.7584,6.0045599999999997),(-1.8288,1.7584,6.0045599999999997),(-1.8288,1.7584,6.0045599999999997),(-1.8288,1.7584,6.0045599999999997),(-1.8288,1.7584,6.0045599999999997),(-1.8288,1.7584,6.0045599999999997),(-1.8288,1.7524,6.0045599999999997),(-1.824557,1.754157,6.0045599999999997),(-1.8228,1.7584,6.0045599999999997),(-1.824557,1.762643,6.0045599999999997),(-1.8288,1.7644,6.0045599999999997),(-1.833043,1.762643,6.0045599999999997),(-1.8348,1.7584,6.0045599999999997),(-1.833043,1.754157,6.0045599999999997),(-1.8288,1.7524,6.0045599999999997),(-1.8288,1.7584,4.9691999999999998),(-1.8288,1.7584,4.9691999999999998),(-1.8288,1.7584,4.9691999999999998),(-1.8288,1.7584,4.9691999999999998),(-1.8288,1.7584,4.9691999999999998),(-1.8288,1.7584,4.9691999999999998),(-1.8288,1.7584,4.9691999999999998),(-1.8288,1.7584,4.9691999999999998),(-1.8288,1.7524,4.9691999999999998),(-1.824557,1.754157,4.9691999999999998),(-1.8228,1.7584,4.9691999999999998),(-1.824557,1.762643,4.9691999999999998),(-1.8288,1.7644,4.9691999999999998),(-1.833043,1.762643,4.9691999999999998),(-1.8348,1.7584,4.9691999999999998),(-1.833043,1.754157,4.9691999999999998),(-1.8288,1.7524,4.9691999999999998),(-1.8288,0.33239999999999997,6.0045599999999997),(-1.824557,0.33415699999999998,6.0045599999999997),(-1.8228,0.33839999999999998,6.0045599999999997),(-1.824557,0.34264299999999998,6.0045599999999997),(-1.8288,0.34439999999999998,6.0045599999999997),(-1.833043,0.34264299999999998,6.0045599999999997),(-1.8348,0.33839999999999998,6.0045599999999997),(-1.833043,0.33415699999999998,6.0045599999999997),(-1.8288,0.33239999999999997,6.0045599999999997),(-1.8288,0.33239999999999997,4.9691999999999998),(-1.824557,0.33415699999999998,4.9691999999999998),(-1.8228,0.33839999999999998,4.9691999999999998),(-1.824557,0.34264299999999998,4.9691999999999998),(-1.8288,0.34439999999999998,4.9691999999999998),(-1.833043,0.34264299999999998,4.9691999999999998),(-1.8348,0.33839999999999998,4.9691999999999998),(-1.833043,0.33415699999999998,4.9691999999999998),(-1.8288,0.33239999999999997,4.9691999999999998),(-1.8288,0.33839999999999998,6.0045599999999997),(-1.8288,0.33839999999999998,6.0045599999999997),(-1.8288,0.33839999999999998,6.0045599999999997),(-1.8288,0.33839999999999998,6.0045599999999997),(-1.8288,0.33839999999999998,6.0045599999999997),(-1.8288,0.33839999999999998,6.0045599999999997),(-1.8288,0.33839999999999998,6.0045599999999997),(-1.8288,0.33839999999999998,6.0045599999999997),(-1.8288,0.33239999999999997,6.0045599999999997),(-1.824557,0.33415699999999998,6.0045599999999997),(-1.8228,0.33839999999999998,6.0045599999999997),(-1.824557,0.34264299999999998,6.0045599999999997),(-1.8288,0.34439999999999998,6.0045599999999997),(-1.833043,0.34264299999999998,6.0045599999999997),(-1.8348,0.33839999999999998,6.0045599999999997),(-1.833043,0.33415699999999998,6.0045599999999997),(-1.8288,0.33239999999999997,6.0045599999999997),(-1.8288,0.33839999999999998,4.9691999999999998),(-1.8288,0.33839999999999998,4.9691999999999998),(-1.8288,0.33839999999999998,4.9691999999999998),(-1.8288,0.33839999999999998,4.9691999999999998),(-1.8288,0.33839999999999998,4.9691999999999998),(-1.8288,0.33839999999999998,4.9691999999999998),(-1.8288,0.33839999999999998,4.9691999999999998),(-1.8288,0.33839999999999998,4.9691999999999998),(-1.8288,0.33239999999999997,4.9691999999999998),(-1.824557,0.33415699999999998,4.9691999999999998),(-1.8228,0.33839999999999998,4.9691999999999998),(-1.824557,0.34264299999999998,4.9691999999999998),(-1.8288,0.34439999999999998,4.9691999999999998),(-1.833043,0.34264299999999998,4.9691999999999998),(-1.8348,0.33839999999999998,4.9691999999999998),(-1.833043,0.33415699999999998,4.9691999999999998),(-1.8288,0.33239999999999997,4.9691999999999998),(-1.7988,1.7283999999999999,6.0245600000000001),(-1.7988,1.7884,6.0245600000000001),(-1.7988,1.7283999999999999,6.0045599999999997),(-1.7988,1.7884,6.0045599999999997),(-1.8588,1.7884,6.0245600000000001),(-1.8588,1.7283999999999999,6.0245600000000001),(-1.8588,1.7884,6.0045599999999997),(-1.8588,1.7283999999999999,6.0045599999999997),(-1.8588,1.7884,6.0245600000000001),(-1.7988,1.7884,6.0245600000000001),(-1.8588,1.7283999999999999,6.0245600000000001),(-1.7988,1.7283999999999999,6.0245600000000001),(-1.8588,1.7283999999999999,6.0045599999999997),(-1.7988,1.7283999999999999,6.0045599999999997),(-1.8588,1.7884,6.0045599999999997),(-1.7988,1.7884,6.0045599999999997),(-1.8588,1.7283999999999999,6.0245600000000001),(-1.7988,1.7283999999999999,6.0245600000000001),(-1.8588,1.7283999999999999,6.0045599999999997),(-1.7988,1.7283999999999999,6.0045599999999997),(-1.7988,1.7884,6.0245600000000001),(-1.8588,1.7884,6.0245600000000001),(-1.7988,1.7884,6.0045599999999997),(-1.8588,1.7884,6.0045599999999997),(-1.7988,0.30840000000000001,6.0245600000000001),(-1.7988,0.36840000000000001,6.0245600000000001),(-1.7988,0.30840000000000001,6.0045599999999997),(-1.7988,0.36840000000000001,6.0045599999999997),(-1.8588,0.36840000000000001,6.0245600000000001),(-1.8588,0.30840000000000001,6.0245600000000001),(-1.8588,0.36840000000000001,6.0045599999999997),(-1.8588,0.30840000000000001,6.0045599999999997),(-1.8588,0.36840000000000001,6.0245600000000001),(-1.7988,0.36840000000000001,6.0245600000000001),(-1.8588,0.30840000000000001,6.0245600000000001),(-1.7988,0.30840000000000001,6.0245600000000001),(-1.8588,0.30840000000000001,6.0045599999999997),(-1.7988,0.30840000000000001,6.0045599999999997),(-1.8588,0.36840000000000001,6.0045599999999997),(-1.7988,0.36840000000000001,6.0045599999999997),(-1.8588,0.30840000000000001,6.0245600000000001),(-1.7988,0.30840000000000001,6.0245600000000001),(-1.8588,0.30840000000000001,6.0045599999999997),(-1.7988,0.30840000000000001,6.0045599999999997),(-1.7988,0.36840000000000001,6.0245600000000001),(-1.8588,0.36840000000000001,6.0245600000000001),(-1.7988,0.36840000000000001,6.0045599999999997),(-1.8588,0.36840000000000001,6.0045599999999997)));
#310=IFCTRIANGULATEDFACESET(#309,$,$,((1,3,2),(3,4,2),(5,7,6),(7,8,6),(9,11,10),(11,12,10),(13,15,14),(15,16,14),(17,19,18),(19,20,18),(21,23,22),(23,24,22),(25,34,26),(34,35,26),(26,35,27),(35,36,27),(27,36,28),(36,37,28),(28,37,29),(37,38,29),(29,38,30),(38,39,30),(30,39,31),(39,40,31),(31,40,32),(40,41,32),(32,41,33),(41,42,33),(51,52,43),(52,53,44),(53,54,45),(54,55,46),(55,56,47),(56,57,48),(57,58,49),(58,59,50),(69,68,60),(70,69,61),(71,70,62),(72,71,63),(73,72,64),(74,73,65),(75,74,66),(76,75,67),(77,86,78),(86,87,78),(78,87,79),(87,88,79),(79,88,80),(88,89,80),(80,89,81),(89,90,81),(81,90,82),(90,91,82),(82,91,83),(91,92,83),(83,92,84),(92,93,84),(84,93,85),(93,94,85),(103,104,95),(104,105,96),(105,106,97),(106,107,98),(107,108,99),(108,109,100),(109,110,101),(110,111,102),(121,120,112),(122,121,113),(123,122,114),(124,123,115),(125,124,116),(126,125,117),(127,126,118),(128,127,119),(129,131,130),(131,132,130),(133,135,134),(135,136,134),(137,139,138),(139,140,138),(141,143,142),(143,144,142),(145,147,146),(147,148,146),(149,151,150),(151,152,150),(153,155,154),(155,156,154),(157,159,158),(159,160,158),(161,163,162),(163,164,162),(165,167,166),(167,168,166),(169,171,170),(171,172,170),(173,175,174),(175,176,174)),$);
#311=IFCSTYLEDITEM(#310,(#88),'trapeze_02');
#312=IFCCARTESIANPOINTLIST3D(((0.63009999999999999,0.28839999999999999,4.9897),(0.63009999999999999,1.8084,4.9897),(0.63009999999999999,0.28839999999999999,4.9486999999999997),(0.63009999999999999,1.8084,4.9486999999999997),(0.58909999999999996,1.8084,4.9897),(0.58909999999999996,0.28839999999999999,4.9897),(0.58909999999999996,1.8084,4.9486999999999997),(0.58909999999999996,0.28839999999999999,4.9486999999999997),(0.58909999999999996,1.8084,4.9897),(0.63009999999999999,1.8084,4.9897),(0.58909999999999996,0.28839999999999999,4.9897),(0.63009999999999999,0.28839999999999999,4.9897),(0.58909999999999996,0.28839999999999999,4.9486999999999997),(0.63009999999999999,0.28839999999999999,4.9486999999999997),(0.58909999999999996,1.8084,4.9486999999999997),(0.63009999999999999,1.8084,4.9486999999999997),(0.58909999999999996,0.28839999999999999,4.9897),(0.63009999999999999,0.28839999999999999,4.9897),(0.58909999999999996,0.28839999999999999,4.9486999999999997),(0.63009999999999999,0.28839999999999999,4.9486999999999997),(0.63009999999999999,1.8084,4.9897),(0.58909999999999996,1.8084,4.9897),(0.63009999999999999,1.8084,4.9486999999999997),(0.58909999999999996,1.8084,4.9486999999999997),(0.60960000000000003,1.7524,6.0045599999999997),(0.61384300000000003,1.754157,6.0045599999999997),(0.61560000000000004,1.7584,6.0045599999999997),(0.61384300000000003,1.762643,6.0045599999999997),(0.60960000000000003,1.7644,6.0045599999999997),(0.60535700000000003,1.762643,6.0045599999999997),(0.60360000000000003,1.7584,6.0045599999999997),(0.60535700000000003,1.754157,6.0045599999999997),(0.60960000000000003,1.7524,6.0045599999999997),(0.60960000000000003,1.7524,4.9691999999999998),(0.61384300000000003,1.754157,4.9691999999999998),(0.61560000000000004,1.7584,4.9691999999999998),(0.61384300000000003,1.762643,4.9691999999999998),(0.60960000000000003,1.7644,4.9691999999999998),(0.60535700000000003,1.762643,4.9691999999999998),(0.60360000000000003,1.7584,4.9691999999999998),(0.60535700000000003,1.754157,4.9691999999999998),(0.60960000000000003,1.7524,4.9691999999999998),(0.60960000000000003,1.7584,6.0045599999999997),(0.60960000000000003,1.7584,6.0045599999999997),(0.60960000000000003,1.7584,6.0045599999999997),(0.60960000000000003,1.7584,6.0045599999999997),(0.60960000000000003,1.7584,6.0045599999999997),(0.60960000000000003,1.7584,6.0045599999999997),(0.60960000000000003,1.7584,6.0045599999999997),(0.60960000000000003,1.7584,6.0045599999999997),(0.60960000000000003,1.7524,6.0045599999999997),(0.61384300000000003,1.754157,6.0045599999999997),(0.61560000000000004,1.7584,6.0045599999999997),(0.61384300000000003,1.762643,6.0045599999999997),(0.60960000000000003,1.7644,6.0045599999999997),(0.60535700000000003,1.762643,6.0045599999999997),(0.60360000000000003,1.7584,6.0045599999999997),(0.60535700000000003,1.754157,6.0045599999999997),(0.60960000000000003,1.7524,6.0045599999999997),(0.60960000000000003,1.7584,4.9691999999999998),(0.60960000000000003,1.7584,4.9691999999999998),(0.60960000000000003,1.7584,4.9691999999999998),(0.60960000000000003,1.7584,4.9691999999999998),(0.60960000000000003,1.7584,4.9691999999999998),(0.60960000000000003,1.7584,4.9691999999999998),(0.60960000000000003,1.7584,4.9691999999999998),(0.60960000000000003,1.7584,4.9691999999999998),(0.60960000000000003,1.7524,4.9691999999999998),(0.61384300000000003,1.754157,4.9691999999999998),(0.61560000000000004,1.7584,4.9691999999999998),(0.61384300000000003,1.762643,4.9691999999999998),(0.60960000000000003,1.7644,4.9691999999999998),(0.60535700000000003,1.762643,4.9691999999999998),(0.60360000000000003,1.7584,4.9691999999999998),(0.60535700000000003,1.754157,4.9691999999999998),(0.60960000000000003,1.7524,4.9691999999999998),(0.60960000000000003,0.33239999999999997,6.0045599999999997),(0.61384300000000003,0.33415699999999998,6.0045599999999997),(0.61560000000000004,0.33839999999999998,6.0045599999999997),(0.61384300000000003,0.34264299999999998,6.0045599999999997),(0.60960000000000003,0.34439999999999998,6.0045599999999997),(0.60535700000000003,0.34264299999999998,6.0045599999999997),(0.60360000000000003,0.33839999999999998,6.0045599999999997),(0.60535700000000003,0.33415699999999998,6.0045599999999997),(0.60960000000000003,0.33239999999999997,6.0045599999999997),(0.60960000000000003,0.33239999999999997,4.9691999999999998),(0.61384300000000003,0.33415699999999998,4.9691999999999998),(0.61560000000000004,0.33839999999999998,4.9691999999999998),(0.61384300000000003,0.34264299999999998,4.9691999999999998),(0.60960000000000003,0.34439999999999998,4.9691999999999998),(0.60535700000000003,0.34264299999999998,4.9691999999999998),(0.60360000000000003,0.33839999999999998,4.9691999999999998),(0.60535700000000003,0.33415699999999998,4.9691999999999998),(0.60960000000000003,0.33239999999999997,4.9691999999999998),(0.60960000000000003,0.33839999999999998,6.0045599999999997),(0.60960000000000003,0.33839999999999998,6.0045599999999997),(0.60960000000000003,0.33839999999999998,6.0045599999999997),(0.60960000000000003,0.33839999999999998,6.0045599999999997),(0.60960000000000003,0.33839999999999998,6.0045599999999997),(0.60960000000000003,0.33839999999999998,6.0045599999999997),(0.60960000000000003,0.33839999999999998,6.0045599999999997),(0.60960000000000003,0.33839999999999998,6.0045599999999997),(0.60960000000000003,0.33239999999999997,6.0045599999999997),(0.61384300000000003,0.33415699999999998,6.0045599999999997),(0.61560000000000004,0.33839999999999998,6.0045599999999997),(0.61384300000000003,0.34264299999999998,6.0045599999999997),(0.60960000000000003,0.34439999999999998,6.0045599999999997),(0.60535700000000003,0.34264299999999998,6.0045599999999997),(0.60360000000000003,0.33839999999999998,6.0045599999999997),(0.60535700000000003,0.33415699999999998,6.0045599999999997),(0.60960000000000003,0.33239999999999997,6.0045599999999997),(0.60960000000000003,0.33839999999999998,4.9691999999999998),(0.60960000000000003,0.33839999999999998,4.9691999999999998),(0.60960000000000003,0.33839999999999998,4.9691999999999998),(0.60960000000000003,0.33839999999999998,4.9691999999999998),(0.60960000000000003,0.33839999999999998,4.9691999999999998),(0.60960000000000003,0.33839999999999998,4.9691999999999998),(0.60960000000000003,0.33839999999999998,4.9691999999999998),(0.60960000000000003,0.33839999999999998,4.9691999999999998),(0.60960000000000003,0.33239999999999997,4.9691999999999998),(0.61384300000000003,0.33415699999999998,4.9691999999999998),(0.61560000000000004,0.33839999999999998,4.9691999999999998),(0.61384300000000003,0.34264299999999998,4.9691999999999998),(0.60960000000000003,0.34439999999999998,4.9691999999999998),(0.60535700000000003,0.34264299999999998,4.9691999999999998),(0.60360000000000003,0.33839999999999998,4.9691999999999998),(0.60535700000000003,0.33415699999999998,4.9691999999999998),(0.60960000000000003,0.33239999999999997,4.9691999999999998),(0.63959999999999995,1.7283999999999999,6.0245600000000001),(0.63959999999999995,1.7884,6.0245600000000001),(0.63959999999999995,1.7283999999999999,6.0045599999999997),(0.63959999999999995,1.7884,6.0045599999999997),(0.5796,1.7884,6.0245600000000001),(0.5796,1.7283999999999999,6.0245600000000001),(0.5796,1.7884,6.0045599999999997),(0.5796,1.7283999999999999,6.0045599999999997),(0.5796,1.7884,6.0245600000000001),(0.63959999999999995,1.7884,6.0245600000000001),(0.5796,1.7283999999999999,6.0245600000000001),(0.63959999999999995,1.7283999999999999,6.0245600000000001),(0.5796,1.7283999999999999,6.0045599999999997),(0.63959999999999995,1.7283999999999999,6.0045599999999997),(0.5796,1.7884,6.0045599999999997),(0.63959999999999995,1.7884,6.0045599999999997),(0.5796,1.7283999999999999,6.0245600000000001),(0.63959999999999995,1.7283999999999999,6.0245600000000001),(0.5796,1.7283999999999999,6.0045599999999997),(0.63959999999999995,1.7283999999999999,6.0045599999999997),(0.63959999999999995,1.7884,6.0245600000000001),(0.5796,1.7884,6.0245600000000001),(0.63959999999999995,1.7884,6.0045599999999997),(0.5796,1.7884,6.0045599999999997),(0.63959999999999995,0.30840000000000001,6.0245600000000001),(0.63959999999999995,0.36840000000000001,6.0245600000000001),(0.63959999999999995,0.30840000000000001,6.0045599999999997),(0.63959999999999995,0.36840000000000001,6.0045599999999997),(0.5796,0.36840000000000001,6.0245600000000001),(0.5796,0.30840000000000001,6.0245600000000001),(0.5796,0.36840000000000001,6.0045599999999997),(0.5796,0.30840000000000001,6.0045599999999997),(0.5796,0.36840000000000001,6.0245600000000001),(0.63959999999999995,0.36840000000000001,6.0245600000000001),(0.5796,0.30840000000000001,6.0245600000000001),(0.63959999999999995,0.30840000000000001,6.0245600000000001),(0.5796,0.30840000000000001,6.0045599999999997),(0.63959999999999995,0.30840000000000001,6.0045599999999997),(0.5796,0.36840000000000001,6.0045599999999997),(0.63959999999999995,0.36840000000000001,6.0045599999999997),(0.5796,0.30840000000000001,6.0245600000000001),(0.63959999999999995,0.30840000000000001,6.0245600000000001),(0.5796,0.30840000000000001,6.0045599999999997),(0.63959999999999995,0.30840000000000001,6.0045599999999997),(0.63959999999999995,0.36840000000000001,6.0245600000000001),(0.5796,0.36840000000000001,6.0245600000000001),(0.63959999999999995,0.36840000000000001,6.0045599999999997),(0.5796,0.36840000000000001,6.0045599999999997)));
#313=IFCTRIANGULATEDFACESET(#312,$,$,((1,3,2),(3,4,2),(5,7,6),(7,8,6),(9,11,10),(11,12,10),(13,15,14),(15,16,14),(17,19,18),(19,20,18),(21,23,22),(23,24,22),(25,34,26),(34,35,26),(26,35,27),(35,36,27),(27,36,28),(36,37,28),(28,37,29),(37,38,29),(29,38,30),(38,39,30),(30,39,31),(39,40,31),(31,40,32),(40,41,32),(32,41,33),(41,42,33),(51,52,43),(52,53,44),(53,54,45),(54,55,46),(55,56,47),(56,57,48),(57,58,49),(58,59,50),(69,68,60),(70,69,61),(71,70,62),(72,71,63),(73,72,64),(74,73,65),(75,74,66),(76,75,67),(77,86,78),(86,87,78),(78,87,79),(87,88,79),(79,88,80),(88,89,80),(80,89,81),(89,90,81),(81,90,82),(90,91,82),(82,91,83),(91,92,83),(83,92,84),(92,93,84),(84,93,85),(93,94,85),(103,104,95),(104,105,96),(105,106,97),(106,107,98),(107,108,99),(108,109,100),(109,110,101),(110,111,102),(121,120,112),(122,121,113),(123,122,114),(124,123,115),(125,124,116),(126,125,117),(127,126,118),(128,127,119),(129,131,130),(131,132,130),(133,135,134),(135,136,134),(137,139,138),(139,140,138),(141,143,142),(143,144,142),(145,147,146),(147,148,146),(149,151,150),(151,152,150),(153,155,154),(155,156,154),(157,159,158),(159,160,158),(161,163,162),(163,164,162),(165,167,166),(167,168,166),(169,171,170),(171,172,170),(173,175,174),(175,176,174)),$);
#314=IFCSTYLEDITEM(#313,(#88),'trapeze_03');
#315=IFCCARTESIANPOINTLIST3D(((3.0684999999999998,0.28839999999999999,4.9897),(3.0684999999999998,1.8084,4.9897),(3.0684999999999998,0.28839999999999999,4.9486999999999997),(3.0684999999999998,1.8084,4.9486999999999997),(3.0274999999999999,1.8084,4.9897),(3.0274999999999999,0.28839999999999999,4.9897),(3.0274999999999999,1.8084,4.9486999999999997),(3.0274999999999999,0.28839999999999999,4.9486999999999997),(3.0274999999999999,1.8084,4.9897),(3.0684999999999998,1.8084,4.9897),(3.0274999999999999,0.28839999999999999,4.9897),(3.0684999999999998,0.28839999999999999,4.9897),(3.0274999999999999,0.28839999999999999,4.9486999999999997),(3.0684999999999998,0.28839999999999999,4.9486999999999997),(3.0274999999999999,1.8084,4.9486999999999997),(3.0684999999999998,1.8084,4.9486999999999997),(3.0274999999999999,0.28839999999999999,4.9897),(3.0684999999999998,0.28839999999999999,4.9897),(3.0274999999999999,0.28839999999999999,4.9486999999999997),(3.0684999999999998,0.28839999999999999,4.9486999999999997),(3.0684999999999998,1.8084,4.9897),(3.0274999999999999,1.8084,4.9897),(3.0684999999999998,1.8084,4.9486999999999997),(3.0274999999999999,1.8084,4.9486999999999997),(3.048,1.7524,6.0045599999999997),(3.0522429999999998,1.754157,6.0045599999999997),(3.0539999999999998,1.7584,6.0045599999999997),(3.0522429999999998,1.762643,6.0045599999999997),(3.048,1.7644,6.0045599999999997),(3.0437569999999998,1.762643,6.0045599999999997),(3.0419999999999998,1.7584,6.0045599999999997),(3.0437569999999998,1.754157,6.0045599999999997),(3.048,1.7524,6.0045599999999997),(3.048,1.7524,4.9691999999999998),(3.0522429999999998,1.754157,4.9691999999999998),(3.0539999999999998,1.7584,4.9691999999999998),(3.0522429999999998,1.762643,4.9691999999999998),(3.048,1.7644,4.9691999999999998),(3.0437569999999998,1.762643,4.9691999999999998),(3.0419999999999998,1.7584,4.9691999999999998),(3.0437569999999998,1.754157,4.9691999999999998),(3.048,1.7524,4.9691999999999998),(3.048,1.7584,6.0045599999999997),(3.048,1.7584,6.0045599999999997),(3.048,1.7584,6.0045599999999997),(3.048,1.7584,6.0045599999999997),(3.048,1.7584,6.0045599999999997),(3.048,1.7584,6.0045599999999997),(3.048,1.7584,6.0045599999999997),(3.048,1.7584,6.0045599999999997),(3.048,1.7524,6.0045599999999997),(3.0522429999999998,1.754157,6.0045599999999997),(3.0539999999999998,1.7584,6.0045599999999997),(3.0522429999999998,1.762643,6.0045599999999997),(3.048,1.7644,6.0045599999999997),(3.0437569999999998,1.762643,6.0045599999999997),(3.0419999999999998,1.7584,6.0045599999999997),(3.0437569999999998,1.754157,6.0045599999999997),(3.048,1.7524,6.0045599999999997),(3.048,1.7584,4.9691999999999998),(3.048,1.7584,4.9691999999999998),(3.048,1.7584,4.9691999999999998),(3.048,1.7584,4.9691999999999998),(3.048,1.7584,4.9691999999999998),(3.048,1.7584,4.9691999999999998),(3.048,1.7584,4.9691999999999998),(3.048,1.7584,4.9691999999999998),(3.048,1.7524,4.9691999999999998),(3.0522429999999998,1.754157,4.9691999999999998),(3.0539999999999998,1.7584,4.9691999999999998),(3.0522429999999998,1.762643,4.9691999999999998),(3.048,1.7644,4.9691999999999998),(3.0437569999999998,1.762643,4.9691999999999998),(3.0419999999999998,1.7584,4.9691999999999998),(3.0437569999999998,1.754157,4.9691999999999998),(3.048,1.7524,4.9691999999999998),(3.048,0.33239999999999997,6.0045599999999997),(3.0522429999999998,0.33415699999999998,6.0045599999999997),(3.0539999999999998,0.33839999999999998,6.0045599999999997),(3.0522429999999998,0.34264299999999998,6.0045599999999997),(3.048,0.34439999999999998,6.0045599999999997),(3.0437569999999998,0.34264299999999998,6.0045599999999997),(3.0419999999999998,0.33839999999999998,6.0045599999999997),(3.0437569999999998,0.33415699999999998,6.0045599999999997),(3.048,0.33239999999999997,6.0045599999999997),(3.048,0.33239999999999997,4.9691999999999998),(3.0522429999999998,0.33415699999999998,4.9691999999999998),(3.0539999999999998,0.33839999999999998,4.9691999999999998),(3.0522429999999998,0.34264299999999998,4.9691999999999998),(3.048,0.34439999999999998,4.9691999999999998),(3.0437569999999998,0.34264299999999998,4.9691999999999998),(3.0419999999999998,0.33839999999999998,4.9691999999999998),(3.0437569999999998,0.33415699999999998,4.9691999999999998),(3.048,0.33239999999999997,4.9691999999999998),(3.048,0.33839999999999998,6.0045599999999997),(3.048,0.33839999999999998,6.0045599999999997),(3.048,0.33839999999999998,6.0045599999999997),(3.048,0.33839999999999998,6.0045599999999997),(3.048,0.33839999999999998,6.0045599999999997),(3.048,0.33839999999999998,6.0045599999999997),(3.048,0.33839999999999998,6.0045599999999997),(3.048,0.33839999999999998,6.0045599999999997),(3.048,0.33239999999999997,6.0045599999999997),(3.0522429999999998,0.33415699999999998,6.0045599999999997),(3.0539999999999998,0.33839999999999998,6.0045599999999997),(3.0522429999999998,0.34264299999999998,6.0045599999999997),(3.048,0.34439999999999998,6.0045599999999997),(3.0437569999999998,0.34264299999999998,6.0045599999999997),(3.0419999999999998,0.33839999999999998,6.0045599999999997),(3.0437569999999998,0.33415699999999998,6.0045599999999997),(3.048,0.33239999999999997,6.0045599999999997),(3.048,0.33839999999999998,4.9691999999999998),(3.048,0.33839999999999998,4.9691999999999998),(3.048,0.33839999999999998,4.9691999999999998),(3.048,0.33839999999999998,4.9691999999999998),(3.048,0.33839999999999998,4.9691999999999998),(3.048,0.33839999999999998,4.9691999999999998),(3.048,0.33839999999999998,4.9691999999999998),(3.048,0.33839999999999998,4.9691999999999998),(3.048,0.33239999999999997,4.9691999999999998),(3.0522429999999998,0.33415699999999998,4.9691999999999998),(3.0539999999999998,0.33839999999999998,4.9691999999999998),(3.0522429999999998,0.34264299999999998,4.9691999999999998),(3.048,0.34439999999999998,4.9691999999999998),(3.0437569999999998,0.34264299999999998,4.9691999999999998),(3.0419999999999998,0.33839999999999998,4.9691999999999998),(3.0437569999999998,0.33415699999999998,4.9691999999999998),(3.048,0.33239999999999997,4.9691999999999998),(3.0779999999999998,1.7283999999999999,6.0245600000000001),(3.0779999999999998,1.7884,6.0245600000000001),(3.0779999999999998,1.7283999999999999,6.0045599999999997),(3.0779999999999998,1.7884,6.0045599999999997),(3.0179999999999998,1.7884,6.0245600000000001),(3.0179999999999998,1.7283999999999999,6.0245600000000001),(3.0179999999999998,1.7884,6.0045599999999997),(3.0179999999999998,1.7283999999999999,6.0045599999999997),(3.0179999999999998,1.7884,6.0245600000000001),(3.0779999999999998,1.7884,6.0245600000000001),(3.0179999999999998,1.7283999999999999,6.0245600000000001),(3.0779999999999998,1.7283999999999999,6.0245600000000001),(3.0179999999999998,1.7283999999999999,6.0045599999999997),(3.0779999999999998,1.7283999999999999,6.0045599999999997),(3.0179999999999998,1.7884,6.0045599999999997),(3.0779999999999998,1.7884,6.0045599999999997),(3.0179999999999998,1.7283999999999999,6.0245600000000001),(3.0779999999999998,1.7283999999999999,6.0245600000000001),(3.0179999999999998,1.7283999999999999,6.0045599999999997),(3.0779999999999998,1.7283999999999999,6.0045599999999997),(3.0779999999999998,1.7884,6.0245600000000001),(3.0179999999999998,1.7884,6.0245600000000001),(3.0779999999999998,1.7884,6.0045599999999997),(3.0179999999999998,1.7884,6.0045599999999997),(3.0779999999999998,0.30840000000000001,6.0245600000000001),(3.0779999999999998,0.36840000000000001,6.0245600000000001),(3.0779999999999998,0.30840000000000001,6.0045599999999997),(3.0779999999999998,0.36840000000000001,6.0045599999999997),(3.0179999999999998,0.36840000000000001,6.0245600000000001),(3.0179999999999998,0.30840000000000001,6.0245600000000001),(3.0179999999999998,0.36840000000000001,6.0045599999999997),(3.0179999999999998,0.30840000000000001,6.0045599999999997),(3.0179999999999998,0.36840000000000001,6.0245600000000001),(3.0779999999999998,0.36840000000000001,6.0245600000000001),(3.0179999999999998,0.30840000000000001,6.0245600000000001),(3.0779999999999998,0.30840000000000001,6.0245600000000001),(3.0179999999999998,0.30840000000000001,6.0045599999999997),(3.0779999999999998,0.30840000000000001,6.0045599999999997),(3.0179999999999998,0.36840000000000001,6.0045599999999997),(3.0779999999999998,0.36840000000000001,6.0045599999999997),(3.0179999999999998,0.30840000000000001,6.0245600000000001),(3.0779999999999998,0.30840000000000001,6.0245600000000001),(3.0179999999999998,0.30840000000000001,6.0045599999999997),(3.0779999999999998,0.30840000000000001,6.0045599999999997),(3.0779999999999998,0.36840000000000001,6.0245600000000001),(3.0179999999999998,0.36840000000000001,6.0245600000000001),(3.0779999999999998,0.36840000000000001,6.0045599999999997),(3.0179999999999998,0.36840000000000001,6.0045599999999997)));
#316=IFCTRIANGULATEDFACESET(#315,$,$,((1,3,2),(3,4,2),(5,7,6),(7,8,6),(9,11,10),(11,12,10),(13,15,14),(15,16,14),(17,19,18),(19,20,18),(21,23,22),(23,24,22),(25,34,26),(34,35,26),(26,35,27),(35,36,27),(27,36,28),(36,37,28),(28,37,29),(37,38,29),(29,38,30),(38,39,30),(30,39,31),(39,40,31),(31,40,32),(40,41,32),(32,41,33),(41,42,33),(51,52,43),(52,53,44),(53,54,45),(54,55,46),(55,56,47),(56,57,48),(57,58,49),(58,59,50),(69,68,60),(70,69,61),(71,70,62),(72,71,63),(73,72,64),(74,73,65),(75,74,66),(76,75,67),(77,86,78),(86,87,78),(78,87,79),(87,88,79),(79,88,80),(88,89,80),(80,89,81),(89,90,81),(81,90,82),(90,91,82),(82,91,83),(91,92,83),(83,92,84),(92,93,84),(84,93,85),(93,94,85),(103,104,95),(104,105,96),(105,106,97),(106,107,98),(107,108,99),(108,109,100),(109,110,101),(110,111,102),(121,120,112),(122,121,113),(123,122,114),(124,123,115),(125,124,116),(126,125,117),(127,126,118),(128,127,119),(129,131,130),(131,132,130),(133,135,134),(135,136,134),(137,139,138),(139,140,138),(141,143,142),(143,144,142),(145,147,146),(147,148,146),(149,151,150),(151,152,150),(153,155,154),(155,156,154),(157,159,158),(159,160,158),(161,163,162),(163,164,162),(165,167,166),(167,168,166),(169,171,170),(171,172,170),(173,175,174),(175,176,174)),$);
#317=IFCSTYLEDITEM(#316,(#88),'trapeze_04');
#318=IFCSHAPEREPRESENTATION(#11,'Body','Tessellation',(#307,#310,#313,#316));
#319=IFCPRODUCTDEFINITIONSHAPE($,$,(#318));
#320=IFCLOCALPLACEMENT(#25,#9);
#321=IFCDISCRETEACCESSORY('3PwxoDEU6RTNBkPNIHha$b',#5,'Trapeze hangers \X2\2014\X0\ 1-5/8 in strut on 3/8 in rods, rack at 16 ft 6 in AFF',$,$,#320,#319,'HANGERS',.BRACKET.);
#322=IFCPROPERTYSINGLEVALUE('StrutSize',$,IFCLABEL('1-5/8 in x 1-5/8 in, 12 ga'),$);
#323=IFCPROPERTYSINGLEVALUE('StrutLengthEach',$,IFCLENGTHMEASURE(1.7),$);
#324=IFCPROPERTYSINGLEVALUE('RodSize',$,IFCLABEL('3/8 in-16 threaded rod'),$);
#325=IFCPROPERTYSINGLEVALUE('RodLengthEach',$,IFCLENGTHMEASURE(1.0353600000000001),$);
#326=IFCPROPERTYSINGLEVALUE('SpacingFt',$,IFCREAL(8.),$);
#327=IFCPROPERTYSET('3IGg0l0vz4YnuI8RqFo$k9',#5,'SupportSchedule',$,(#322,#323,#324,#325,#326));
#328=IFCRELDEFINESBYPROPERTIES('0vIPO1PDoPdYbEsAnguG4B',#5,$,$,(#321),#327);
#329=IFCRELCONTAINEDINSPATIALSTRUCTURE('31qnrqOXw2hbm0CztIpNjc',#5,$,$,(#53,#93,#120,#147,#174,#201,#228,#252,#275,#298,#321),#26);
#330=IFCBUILDINGELEMENTPROXYTYPE('2coTlFBf95x9K4gPBkVpE2',#5,'Building Element Proxy 10763x6096x200mm',$,$,$,$,$,$,.NOTDEFINED.);
#331=IFCRELDEFINESBYTYPE('3A$GwQxKnBJv43ngR3bfe2',#5,$,$,(#53),#330);
#332=IFCTRANSFORMERTYPE('2UE7aC4jX2_9G7vrNnuAy7',#5,'Transformer 760x610x510mm',$,$,$,$,$,$,.VOLTAGE.);
#333=IFCRELDEFINESBYTYPE('2cPVikpj97MglELh0_gn3z',#5,$,$,(#252,#275,#298),#332);
#334=IFCELECTRICDISTRIBUTIONBOARDTYPE('0C9SE97I5DZPJXVgZI_bVu',#5,'Electric Distribution Board 914x508x150mm',$,$,$,$,$,$,.DISTRIBUTIONBOARD.);
#335=IFCRELDEFINESBYTYPE('2RPPnRZTH4aOBl8mnruq94',#5,$,$,(#93,#120,#147,#174,#201,#228),#334);
#336=IFCDISCRETEACCESSORYTYPE('2_npiVctfCl9t9btid3jIU',#5,'Discrete Accessory 1520x1076x60mm',$,$,$,$,$,$,.BRACKET.);
#337=IFCRELDEFINESBYTYPE('37qnj8awT0ZgGj16C6dXs0',#5,$,$,(#321),#336);
#338=IFCCARTESIANPOINT((0.,2.5384000000000002,0.));
#339=IFCDIRECTION((0.,0.,1.));
#340=IFCDIRECTION((1.,0.,0.));
#341=IFCAXIS2PLACEMENT3D(#338,#339,#340);
#342=IFCRECTANGLEPROFILEDEF(.AREA.,$,$,10.763199999999999,5.0768000000000004);
#343=IFCCARTESIANPOINT((0.,-2.4384000000000006,-0.14999999999999999));
#344=IFCDIRECTION((0.,0.,1.));
#345=IFCDIRECTION((1.,0.,0.));
#346=IFCAXIS2PLACEMENT3D(#343,#344,#345);
#347=IFCDIRECTION((0.,0.,1.));
#348=IFCEXTRUDEDAREASOLID(#342,#346,#347,0.14999999999999999);
#349=IFCSTYLEDITEM(#348,(#35),'floor_slab');
#350=IFCRECTANGLEPROFILEDEF(.AREA.,$,$,10.763199999999999,0.19999999999999973);
#351=IFCCARTESIANPOINT((0.,0.,0.));
#352=IFCDIRECTION((0.,0.,1.));
#353=IFCDIRECTION((1.,0.,0.));
#354=IFCAXIS2PLACEMENT3D(#351,#352,#353);
#355=IFCDIRECTION((0.,0.,1.));
#356=IFCEXTRUDEDAREASOLID(#350,#354,#355,6.0960000000000001);
#357=IFCSTYLEDITEM(#356,(#42),'wall_north_panelwall');
#358=IFCRECTANGLEPROFILEDEF(.AREA.,$,$,0.19999999999999929,4.8768000000000002);
#359=IFCCARTESIANPOINT((-5.2816000000000001,-2.5384000000000002,0.));
#360=IFCDIRECTION((0.,0.,1.));
#361=IFCDIRECTION((1.,0.,0.));
#362=IFCAXIS2PLACEMENT3D(#359,#360,#361);
#363=IFCDIRECTION((0.,0.,1.));
#364=IFCEXTRUDEDAREASOLID(#358,#362,#363,6.0960000000000001);
#365=IFCSTYLEDITEM(#364,(#42),'wall_west');
#366=IFCRECTANGLEPROFILEDEF(.AREA.,$,$,0.19999999999999929,4.8768000000000002);
#367=IFCCARTESIANPOINT((5.2816000000000001,-2.5384000000000002,0.));
#368=IFCDIRECTION((0.,0.,1.));
#369=IFCDIRECTION((1.,0.,0.));
#370=IFCAXIS2PLACEMENT3D(#367,#368,#369);
#371=IFCDIRECTION((0.,0.,1.));
#372=IFCEXTRUDEDAREASOLID(#366,#370,#371,6.0960000000000001);
#373=IFCSTYLEDITEM(#372,(#42),'wall_east');
#374=IFCSHAPEREPRESENTATION(#11,'Body','SweptSolid',(#348,#356,#364,#372));
#375=IFCCARTESIANPOINT((-2.9870400000000004,-2.0334000000000003,0.10000000000000001));
#376=IFCDIRECTION((0.,0.,1.));
#377=IFCDIRECTION((1.,0.,0.));
#378=IFCAXIS2PLACEMENT3D(#375,#376,#377);
#379=IFCRECTANGLEPROFILEDEF(.AREA.,$,$,0.81000000000000005,0.70999999999999996);
#380=IFCCARTESIANPOINT((0.,4.4408920985006262E-16,-0.10000000000000001));
#381=IFCDIRECTION((0.,0.,1.));
#382=IFCDIRECTION((1.,0.,0.));
#383=IFCAXIS2PLACEMENT3D(#380,#381,#382);
#384=IFCDIRECTION((0.,0.,1.));
#385=IFCEXTRUDEDAREASOLID(#379,#383,#384,0.10000000000000001);
#386=IFCSTYLEDITEM(#385,(#35),'xfmrlr1_pad');
#387=IFCRECTANGLEPROFILEDEF(.AREA.,$,$,0.60999999999999988,0.51000000000000023);
#388=IFCCARTESIANPOINT((0.,0.,0.));
#389=IFCDIRECTION((0.,0.,1.));
#390=IFCDIRECTION((1.,0.,0.));
#391=IFCAXIS2PLACEMENT3D(#388,#389,#390);
#392=IFCDIRECTION((0.,0.,1.));
#393=IFCEXTRUDEDAREASOLID(#387,#391,#392,0.76000000000000001);
#394=IFCSTYLEDITEM(#393,(#64),'xfmrlr1_enclosure');
#395=IFCRECTANGLEPROFILEDEF(.AREA.,$,$,0.45750000000000002,0.0060000000000000053);
#396=IFCCARTESIANPOINT((0.,0.25900000000000034,0.11399999999999999));
#397=IFCDIRECTION((0.,0.,1.));
#398=IFCDIRECTION((1.,0.,0.));
#399=IFCAXIS2PLACEMENT3D(#396,#397,#398);
#400=IFCDIRECTION((0.,0.,1.));
#401=IFCEXTRUDEDAREASOLID(#395,#399,#400,0.012000000000000011);
#402=IFCSTYLEDITEM(#401,(#74),'xfmrlr1_louvers');
#403=IFCRECTANGLEPROFILEDEF(.AREA.,$,$,0.45750000000000002,0.0060000000000000053);
#404=IFCCARTESIANPOINT((0.,0.25900000000000034,0.14399999999999999));
#405=IFCDIRECTION((0.,0.,1.));
#406=IFCDIRECTION((1.,0.,0.));
#407=IFCAXIS2PLACEMENT3D(#404,#405,#406);
#408=IFCDIRECTION((0.,0.,1.));
#409=IFCEXTRUDEDAREASOLID(#403,#407,#408,0.012000000000000011);
#410=IFCSTYLEDITEM(#409,(#74),'xfmrlr1_louvers');
#411=IFCRECTANGLEPROFILEDEF(.AREA.,$,$,0.45750000000000002,0.0060000000000000053);
#412=IFCCARTESIANPOINT((0.,0.25900000000000034,0.17400000000000002));
#413=IFCDIRECTION((0.,0.,1.));
#414=IFCDIRECTION((1.,0.,0.));
#415=IFCAXIS2PLACEMENT3D(#412,#413,#414);
#416=IFCDIRECTION((0.,0.,1.));
#417=IFCEXTRUDEDAREASOLID(#411,#415,#416,0.011999999999999955);
#418=IFCSTYLEDITEM(#417,(#74),'xfmrlr1_louvers');
#419=IFCRECTANGLEPROFILEDEF(.AREA.,$,$,0.45750000000000002,0.0060000000000000053);
#420=IFCCARTESIANPOINT((0.,0.25900000000000034,0.20399999999999999));
#421=IFCDIRECTION((0.,0.,1.));
#422=IFCDIRECTION((1.,0.,0.));
#423=IFCAXIS2PLACEMENT3D(#420,#421,#422);
#424=IFCDIRECTION((0.,0.,1.));
#425=IFCEXTRUDEDAREASOLID(#419,#423,#424,0.012000000000000011);
#426=IFCSTYLEDITEM(#425,(#74),'xfmrlr1_louvers');
#427=IFCRECTANGLEPROFILEDEF(.AREA.,$,$,0.12000000000000011,0.0020000000000000018);
#428=IFCCARTESIANPOINT((4.4408920985006262E-16,0.25700000000000012,0.59999999999999998));
#429=IFCDIRECTION((0.,0.,1.));
#430=IFCDIRECTION((1.,0.,0.));
#431=IFCAXIS2PLACEMENT3D(#428,#429,#430);
#432=IFCDIRECTION((0.,0.,1.));
#433=IFCEXTRUDEDAREASOLID(#427,#431,#432,0.040000000000000036);
#434=IFCSTYLEDITEM(#433,(#81),'xfmrlr1_nameplate');
#435=IFCSHAPEREPRESENTATION(#11,'Body','SweptSolid',(#385,#393,#401,#409,#417,#425,#433));
#436=IFCCARTESIANPOINT((-0.36575999999999997,-2.0334000000000003,0.10000000000000001));
#437=IFCDIRECTION((0.,0.,1.));
#438=IFCDIRECTION((1.,0.,0.));
#439=IFCAXIS2PLACEMENT3D(#436,#437,#438);
#440=IFCRECTANGLEPROFILEDEF(.AREA.,$,$,0.81000000000000005,0.70999999999999996);
#441=IFCCARTESIANPOINT((-5.5511151231257827E-17,4.4408920985006262E-16,-0.10000000000000001));
#442=IFCDIRECTION((0.,0.,1.));
#443=IFCDIRECTION((1.,0.,0.));
#444=IFCAXIS2PLACEMENT3D(#441,#442,#443);
#445=IFCDIRECTION((0.,0.,1.));
#446=IFCEXTRUDEDAREASOLID(#440,#444,#445,0.10000000000000001);
#447=IFCSTYLEDITEM(#446,(#35),'xfmrlq1_pad');
#448=IFCRECTANGLEPROFILEDEF(.AREA.,$,$,0.60999999999999999,0.51000000000000023);
#449=IFCCARTESIANPOINT((0.,0.,0.));
#450=IFCDIRECTION((0.,0.,1.));
#451=IFCDIRECTION((1.,0.,0.));
#452=IFCAXIS2PLACEMENT3D(#449,#450,#451);
#453=IFCDIRECTION((0.,0.,1.));
#454=IFCEXTRUDEDAREASOLID(#448,#452,#453,0.76000000000000001);
#455=IFCSTYLEDITEM(#454,(#64),'xfmrlq1_enclosure');
#456=IFCRECTANGLEPROFILEDEF(.AREA.,$,$,0.45750000000000002,0.0060000000000000053);
#457=IFCCARTESIANPOINT((-5.5511151231257827E-17,0.25900000000000034,0.11399999999999999));
#458=IFCDIRECTION((0.,0.,1.));
#459=IFCDIRECTION((1.,0.,0.));
#460=IFCAXIS2PLACEMENT3D(#457,#458,#459);
#461=IFCDIRECTION((0.,0.,1.));
#462=IFCEXTRUDEDAREASOLID(#456,#460,#461,0.012000000000000011);
#463=IFCSTYLEDITEM(#462,(#74),'xfmrlq1_louvers');
#464=IFCRECTANGLEPROFILEDEF(.AREA.,$,$,0.45750000000000002,0.0060000000000000053);
#465=IFCCARTESIANPOINT((-5.5511151231257827E-17,0.25900000000000034,0.14399999999999999));
#466=IFCDIRECTION((0.,0.,1.));
#467=IFCDIRECTION((1.,0.,0.));
#468=IFCAXIS2PLACEMENT3D(#465,#466,#467);
#469=IFCDIRECTION((0.,0.,1.));
#470=IFCEXTRUDEDAREASOLID(#464,#468,#469,0.012000000000000011);
#471=IFCSTYLEDITEM(#470,(#74),'xfmrlq1_louvers');
#472=IFCRECTANGLEPROFILEDEF(.AREA.,$,$,0.45750000000000002,0.0060000000000000053);
#473=IFCCARTESIANPOINT((-5.5511151231257827E-17,0.25900000000000034,0.17400000000000002));
#474=IFCDIRECTION((0.,0.,1.));
#475=IFCDIRECTION((1.,0.,0.));
#476=IFCAXIS2PLACEMENT3D(#473,#474,#475);
#477=IFCDIRECTION((0.,0.,1.));
#478=IFCEXTRUDEDAREASOLID(#472,#476,#477,0.011999999999999955);
#479=IFCSTYLEDITEM(#478,(#74),'xfmrlq1_louvers');
#480=IFCRECTANGLEPROFILEDEF(.AREA.,$,$,0.45750000000000002,0.0060000000000000053);
#481=IFCCARTESIANPOINT((-5.5511151231257827E-17,0.25900000000000034,0.20399999999999999));
#482=IFCDIRECTION((0.,0.,1.));
#483=IFCDIRECTION((1.,0.,0.));
#484=IFCAXIS2PLACEMENT3D(#481,#482,#483);
#485=IFCDIRECTION((0.,0.,1.));
#486=IFCEXTRUDEDAREASOLID(#480,#484,#485,0.012000000000000011);
#487=IFCSTYLEDITEM(#486,(#74),'xfmrlq1_louvers');
#488=IFCRECTANGLEPROFILEDEF(.AREA.,$,$,0.12000000000000005,0.0020000000000000018);
#489=IFCCARTESIANPOINT((-5.5511151231257827E-17,0.25700000000000012,0.59999999999999998));
#490=IFCDIRECTION((0.,0.,1.));
#491=IFCDIRECTION((1.,0.,0.));
#492=IFCAXIS2PLACEMENT3D(#489,#490,#491);
#493=IFCDIRECTION((0.,0.,1.));
#494=IFCEXTRUDEDAREASOLID(#488,#492,#493,0.040000000000000036);
#495=IFCSTYLEDITEM(#494,(#81),'xfmrlq1_nameplate');
#496=IFCSHAPEREPRESENTATION(#11,'Body','SweptSolid',(#446,#454,#462,#470,#478,#486,#494));
#497=IFCCARTESIANPOINT((1.70688,-2.0334000000000003,0.10000000000000001));
#498=IFCDIRECTION((0.,0.,1.));
#499=IFCDIRECTION((1.,0.,0.));
#500=IFCAXIS2PLACEMENT3D(#497,#498,#499);
#501=IFCRECTANGLEPROFILEDEF(.AREA.,$,$,0.81000000000000028,0.70999999999999996);
#502=IFCCARTESIANPOINT((2.2204460492503131E-16,4.4408920985006262E-16,-0.10000000000000001));
#503=IFCDIRECTION((0.,0.,1.));
#504=IFCDIRECTION((1.,0.,0.));
#505=IFCAXIS2PLACEMENT3D(#502,#503,#504);
#506=IFCDIRECTION((0.,0.,1.));
#507=IFCEXTRUDEDAREASOLID(#501,#505,#506,0.10000000000000001);
#508=IFCSTYLEDITEM(#507,(#35),'xfmrbslq1_pad');
#509=IFCRECTANGLEPROFILEDEF(.AREA.,$,$,0.6100000000000001,0.51000000000000023);
#510=IFCCARTESIANPOINT((0.,0.,0.));
#511=IFCDIRECTION((0.,0.,1.));
#512=IFCDIRECTION((1.,0.,0.));
#513=IFCAXIS2PLACEMENT3D(#510,#511,#512);
#514=IFCDIRECTION((0.,0.,1.));
#515=IFCEXTRUDEDAREASOLID(#509,#513,#514,0.76000000000000001);
#516=IFCSTYLEDITEM(#515,(#64),'xfmrbslq1_enclosure');
#517=IFCRECTANGLEPROFILEDEF(.AREA.,$,$,0.45750000000000002,0.0060000000000000053);
#518=IFCCARTESIANPOINT((0.,0.25900000000000034,0.11399999999999999));
#519=IFCDIRECTION((0.,0.,1.));
#520=IFCDIRECTION((1.,0.,0.));
#521=IFCAXIS2PLACEMENT3D(#518,#519,#520);
#522=IFCDIRECTION((0.,0.,1.));
#523=IFCEXTRUDEDAREASOLID(#517,#521,#522,0.012000000000000011);
#524=IFCSTYLEDITEM(#523,(#74),'xfmrbslq1_louvers');
#525=IFCRECTANGLEPROFILEDEF(.AREA.,$,$,0.45750000000000002,0.0060000000000000053);
#526=IFCCARTESIANPOINT((0.,0.25900000000000034,0.14399999999999999));
#527=IFCDIRECTION((0.,0.,1.));
#528=IFCDIRECTION((1.,0.,0.));
#529=IFCAXIS2PLACEMENT3D(#526,#527,#528);
#530=IFCDIRECTION((0.,0.,1.));
#531=IFCEXTRUDEDAREASOLID(#525,#529,#530,0.012000000000000011);
#532=IFCSTYLEDITEM(#531,(#74),'xfmrbslq1_louvers');
#533=IFCRECTANGLEPROFILEDEF(.AREA.,$,$,0.45750000000000002,0.0060000000000000053);
#534=IFCCARTESIANPOINT((0.,0.25900000000000034,0.17400000000000002));
#535=IFCDIRECTION((0.,0.,1.));
#536=IFCDIRECTION((1.,0.,0.));
#537=IFCAXIS2PLACEMENT3D(#534,#535,#536);
#538=IFCDIRECTION((0.,0.,1.));
#539=IFCEXTRUDEDAREASOLID(#533,#537,#538,0.011999999999999955);
#540=IFCSTYLEDITEM(#539,(#74),'xfmrbslq1_louvers');
#541=IFCRECTANGLEPROFILEDEF(.AREA.,$,$,0.45750000000000002,0.0060000000000000053);
#542=IFCCARTESIANPOINT((0.,0.25900000000000034,0.20399999999999999));
#543=IFCDIRECTION((0.,0.,1.));
#544=IFCDIRECTION((1.,0.,0.));
#545=IFCAXIS2PLACEMENT3D(#542,#543,#544);
#546=IFCDIRECTION((0.,0.,1.));
#547=IFCEXTRUDEDAREASOLID(#541,#545,#546,0.012000000000000011);
#548=IFCSTYLEDITEM(#547,(#74),'xfmrbslq1_louvers');
#549=IFCRECTANGLEPROFILEDEF(.AREA.,$,$,0.12000000000000011,0.0020000000000000018);
#550=IFCCARTESIANPOINT((0.,0.25700000000000012,0.59999999999999998));
#551=IFCDIRECTION((0.,0.,1.));
#552=IFCDIRECTION((1.,0.,0.));
#553=IFCAXIS2PLACEMENT3D(#550,#551,#552);
#554=IFCDIRECTION((0.,0.,1.));
#555=IFCEXTRUDEDAREASOLID(#549,#553,#554,0.040000000000000036);
#556=IFCSTYLEDITEM(#555,(#81),'xfmrbslq1_nameplate');
#557=IFCSHAPEREPRESENTATION(#11,'Body','SweptSolid',(#507,#515,#523,#531,#539,#547,#555));
#558=IFCCARTESIANPOINT((-3.7825700000000002,2.3184,1.0671999999999999));
#559=IFCDIRECTION((0.,0.,1.));
#560=IFCDIRECTION((1.,0.,0.));
#561=IFCAXIS2PLACEMENT3D(#558,#559,#560);
#562=IFCRECTANGLEPROFILEDEF(.AREA.,$,$,0.50800000000000001,0.15000000000000036);
#563=IFCCARTESIANPOINT((0.,0.,0.));
#564=IFCDIRECTION((0.,0.,1.));
#565=IFCDIRECTION((1.,0.,0.));
#566=IFCAXIS2PLACEMENT3D(#563,#564,#565);
#567=IFCDIRECTION((0.,0.,1.));
#568=IFCEXTRUDEDAREASOLID(#562,#566,#567,0.91400000000000015);
#569=IFCSTYLEDITEM(#568,(#64),'bhg4_enclosure');
#570=IFCRECTANGLEPROFILEDEF(.AREA.,$,$,0.47799999999999976,0.0040000000000000036);
#571=IFCCARTESIANPOINT((4.4408920985006262E-16,-0.077999999999999847,0.015000000000000124));
#572=IFCDIRECTION((0.,0.,1.));
#573=IFCDIRECTION((1.,0.,0.));
#574=IFCAXIS2PLACEMENT3D(#571,#572,#573);
#575=IFCDIRECTION((0.,0.,1.));
#576=IFCEXTRUDEDAREASOLID(#570,#574,#575,0.8839999999999999);
#577=IFCSTYLEDITEM(#576,(#64),'bhg4_door');
#578=IFCRECTANGLEPROFILEDEF(.AREA.,$,$,0.020000000000000018,0.014000000000000234);
#579=IFCCARTESIANPOINT((0.20400000000000063,-0.084000000000000075,0.42200000000000015));
#580=IFCDIRECTION((0.,0.,1.));
#581=IFCDIRECTION((1.,0.,0.));
#582=IFCAXIS2PLACEMENT3D(#579,#580,#581);
#583=IFCDIRECTION((0.,0.,1.));
#584=IFCEXTRUDEDAREASOLID(#578,#582,#583,0.06999999999999984);
#585=IFCSTYLEDITEM(#584,(#74),'bhg4_latch');
#586=IFCRECTANGLEPROFILEDEF(.AREA.,$,$,0.10999999999999988,0.0019999999999997797);
#587=IFCCARTESIANPOINT((4.4408920985006262E-16,-0.080999999999999961,0.80900000000000016));
#588=IFCDIRECTION((0.,0.,1.));
#589=IFCDIRECTION((1.,0.,0.));
#590=IFCAXIS2PLACEMENT3D(#587,#588,#589);
#591=IFCDIRECTION((0.,0.,1.));
#592=IFCEXTRUDEDAREASOLID(#586,#590,#591,0.029999999999999805);
#593=IFCSTYLEDITEM(#592,(#81),'bhg4_nameplate');
#594=IFCRECTANGLEPROFILEDEF(.AREA.,$,$,0.040999999999999925,0.040999999999999925);
#595=IFCCARTESIANPOINT((-0.16999999999999948,0.095999999999999641,-1.0671999999999999));
#596=IFCDIRECTION((0.,0.,1.));
#597=IFCDIRECTION((1.,0.,0.));
#598=IFCAXIS2PLACEMENT3D(#595,#596,#597);
#599=IFCDIRECTION((0.,0.,1.));
#600=IFCEXTRUDEDAREASOLID(#594,#598,#599,2.1000000000000001);
#601=IFCSTYLEDITEM(#600,(#88),'bhg4_strut_backing');
#602=IFCRECTANGLEPROFILEDEF(.AREA.,$,$,0.040999999999999925,0.040999999999999925);
#603=IFCCARTESIANPOINT((0.17000000000000037,0.095999999999999641,-1.0671999999999999));
#604=IFCDIRECTION((0.,0.,1.));
#605=IFCDIRECTION((1.,0.,0.));
#606=IFCAXIS2PLACEMENT3D(#603,#604,#605);
#607=IFCDIRECTION((0.,0.,1.));
#608=IFCEXTRUDEDAREASOLID(#602,#606,#607,2.1000000000000001);
#609=IFCSTYLEDITEM(#608,(#88),'bhg4_strut_backing');
#610=IFCSHAPEREPRESENTATION(#11,'Body','SweptSolid',(#568,#576,#584,#592,#600,#608));
#611=IFCCARTESIANPOINT((-2.9870399999999995,2.3184,1.0671999999999999));
#612=IFCDIRECTION((0.,0.,1.));
#613=IFCDIRECTION((1.,0.,0.));
#614=IFCAXIS2PLACEMENT3D(#611,#612,#613);
#615=IFCRECTANGLEPROFILEDEF(.AREA.,$,$,0.50800000000000001,0.15000000000000036);
#616=IFCCARTESIANPOINT((0.,0.,0.));
#617=IFCDIRECTION((0.,0.,1.));
#618=IFCDIRECTION((1.,0.,0.));
#619=IFCAXIS2PLACEMENT3D(#616,#617,#618);
#620=IFCDIRECTION((0.,0.,1.));
#621=IFCEXTRUDEDAREASOLID(#615,#619,#620,0.91400000000000015);
#622=IFCSTYLEDITEM(#621,(#64),'blr1_enclosure');
#623=IFCRECTANGLEPROFILEDEF(.AREA.,$,$,0.47799999999999976,0.0040000000000000036);
#624=IFCCARTESIANPOINT((-4.4408920985006262E-16,-0.077999999999999847,0.015000000000000124));
#625=IFCDIRECTION((0.,0.,1.));
#626=IFCDIRECTION((1.,0.,0.));
#627=IFCAXIS2PLACEMENT3D(#624,#625,#626);
#628=IFCDIRECTION((0.,0.,1.));
#629=IFCEXTRUDEDAREASOLID(#623,#627,#628,0.8839999999999999);
#630=IFCSTYLEDITEM(#629,(#64),'blr1_door');
#631=IFCRECTANGLEPROFILEDEF(.AREA.,$,$,0.020000000000000018,0.014000000000000234);
#632=IFCCARTESIANPOINT((0.20399999999999929,-0.084000000000000075,0.42200000000000015));
#633=IFCDIRECTION((0.,0.,1.));
#634=IFCDIRECTION((1.,0.,0.));
#635=IFCAXIS2PLACEMENT3D(#632,#633,#634);
#636=IFCDIRECTION((0.,0.,1.));
#637=IFCEXTRUDEDAREASOLID(#631,#635,#636,0.06999999999999984);
#638=IFCSTYLEDITEM(#637,(#74),'blr1_latch');
#639=IFCRECTANGLEPROFILEDEF(.AREA.,$,$,0.10999999999999988,0.0019999999999997797);
#640=IFCCARTESIANPOINT((-8.8817841970012523E-16,-0.080999999999999961,0.80900000000000016));
#641=IFCDIRECTION((0.,0.,1.));
#642=IFCDIRECTION((1.,0.,0.));
#643=IFCAXIS2PLACEMENT3D(#640,#641,#642);
#644=IFCDIRECTION((0.,0.,1.));
#645=IFCEXTRUDEDAREASOLID(#639,#643,#644,0.029999999999999805);
#646=IFCSTYLEDITEM(#645,(#81),'blr1_nameplate');
#647=IFCRECTANGLEPROFILEDEF(.AREA.,$,$,0.040999999999999925,0.040999999999999925);
#648=IFCCARTESIANPOINT((-0.17000000000000082,0.095999999999999641,-1.0671999999999999));
#649=IFCDIRECTION((0.,0.,1.));
#650=IFCDIRECTION((1.,0.,0.));
#651=IFCAXIS2PLACEMENT3D(#648,#649,#650);
#652=IFCDIRECTION((0.,0.,1.));
#653=IFCEXTRUDEDAREASOLID(#647,#651,#652,2.1000000000000001);
#654=IFCSTYLEDITEM(#653,(#88),'blr1_strut_backing');
#655=IFCRECTANGLEPROFILEDEF(.AREA.,$,$,0.041000000000000369,0.040999999999999925);
#656=IFCCARTESIANPOINT((0.16999999999999948,0.095999999999999641,-1.0671999999999999));
#657=IFCDIRECTION((0.,0.,1.));
#658=IFCDIRECTION((1.,0.,0.));
#659=IFCAXIS2PLACEMENT3D(#656,#657,#658);
#660=IFCDIRECTION((0.,0.,1.));
#661=IFCEXTRUDEDAREASOLID(#655,#659,#660,2.1000000000000001);
#662=IFCSTYLEDITEM(#661,(#88),'blr1_strut_backing');
#663=IFCSHAPEREPRESENTATION(#11,'Body','SweptSolid',(#621,#629,#637,#645,#653,#661));
#664=IFCCARTESIANPOINT((-0.27431999999999995,2.3184,1.0671999999999999));
#665=IFCDIRECTION((0.,0.,1.));
#666=IFCDIRECTION((1.,0.,0.));
#667=IFCAXIS2PLACEMENT3D(#664,#665,#666);
#668=IFCRECTANGLEPROFILEDEF(.AREA.,$,$,0.50800000000000001,0.15000000000000036);
#669=IFCCARTESIANPOINT((0.,0.,0.));
#670=IFCDIRECTION((0.,0.,1.));
#671=IFCDIRECTION((1.,0.,0.));
#672=IFCAXIS2PLACEMENT3D(#669,#670,#671);
#673=IFCDIRECTION((0.,0.,1.));
#674=IFCEXTRUDEDAREASOLID(#668,#672,#673,0.91400000000000015);
#675=IFCSTYLEDITEM(#674,(#64),'bhq1_enclosure');
#676=IFCRECTANGLEPROFILEDEF(.AREA.,$,$,0.47799999999999998,0.0040000000000000036);
#677=IFCCARTESIANPOINT((-5.5511151231257827E-17,-0.077999999999999847,0.015000000000000124));
#678=IFCDIRECTION((0.,0.,1.));
#679=IFCDIRECTION((1.,0.,0.));
#680=IFCAXIS2PLACEMENT3D(#677,#678,#679);
#681=IFCDIRECTION((0.,0.,1.));
#682=IFCEXTRUDEDAREASOLID(#676,#680,#681,0.8839999999999999);
#683=IFCSTYLEDITEM(#682,(#64),'bhq1_door');
#684=IFCRECTANGLEPROFILEDEF(.AREA.,$,$,0.020000000000000004,0.014000000000000234);
#685=IFCCARTESIANPOINT((0.20399999999999996,-0.084000000000000075,0.42200000000000015));
#686=IFCDIRECTION((0.,0.,1.));
#687=IFCDIRECTION((1.,0.,0.));
#688=IFCAXIS2PLACEMENT3D(#685,#686,#687);
#689=IFCDIRECTION((0.,0.,1.));
#690=IFCEXTRUDEDAREASOLID(#684,#688,#689,0.06999999999999984);
#691=IFCSTYLEDITEM(#690,(#74),'bhq1_latch');
#692=IFCRECTANGLEPROFILEDEF(.AREA.,$,$,0.11000000000000001,0.0019999999999997797);
#693=IFCCARTESIANPOINT((-5.5511151231257827E-17,-0.080999999999999961,0.80900000000000016));
#694=IFCDIRECTION((0.,0.,1.));
#695=IFCDIRECTION((1.,0.,0.));
#696=IFCAXIS2PLACEMENT3D(#693,#694,#695);
#697=IFCDIRECTION((0.,0.,1.));
#698=IFCEXTRUDEDAREASOLID(#692,#696,#697,0.029999999999999805);
#699=IFCSTYLEDITEM(#698,(#81),'bhq1_nameplate');
#700=IFCRECTANGLEPROFILEDEF(.AREA.,$,$,0.041000000000000036,0.040999999999999925);
#701=IFCCARTESIANPOINT((-0.1700000000000001,0.095999999999999641,-1.0671999999999999));
#702=IFCDIRECTION((0.,0.,1.));
#703=IFCDIRECTION((1.,0.,0.));
#704=IFCAXIS2PLACEMENT3D(#701,#702,#703);
#705=IFCDIRECTION((0.,0.,1.));
#706=IFCEXTRUDEDAREASOLID(#700,#704,#705,2.1000000000000001);
#707=IFCSTYLEDITEM(#706,(#88),'bhq1_strut_backing');
#708=IFCRECTANGLEPROFILEDEF(.AREA.,$,$,0.040999999999999995,0.040999999999999925);
#709=IFCCARTESIANPOINT((0.16999999999999996,0.095999999999999641,-1.0671999999999999));
#710=IFCDIRECTION((0.,0.,1.));
#711=IFCDIRECTION((1.,0.,0.));
#712=IFCAXIS2PLACEMENT3D(#709,#710,#711);
#713=IFCDIRECTION((0.,0.,1.));
#714=IFCEXTRUDEDAREASOLID(#708,#712,#713,2.1000000000000001);
#715=IFCSTYLEDITEM(#714,(#88),'bhq1_strut_backing');
#716=IFCSHAPEREPRESENTATION(#11,'Body','SweptSolid',(#674,#682,#690,#698,#706,#714));
#717=IFCCARTESIANPOINT((0.43281999999999998,2.3184,1.0671999999999999));
#718=IFCDIRECTION((0.,0.,1.));
#719=IFCDIRECTION((1.,0.,0.));
#720=IFCAXIS2PLACEMENT3D(#717,#718,#719);
#721=IFCRECTANGLEPROFILEDEF(.AREA.,$,$,0.50800000000000001,0.15000000000000036);
#722=IFCCARTESIANPOINT((0.,0.,0.));
#723=IFCDIRECTION((0.,0.,1.));
#724=IFCDIRECTION((1.,0.,0.));
#725=IFCAXIS2PLACEMENT3D(#722,#723,#724);
#726=IFCDIRECTION((0.,0.,1.));
#727=IFCEXTRUDEDAREASOLID(#721,#725,#726,0.91400000000000015);
#728=IFCSTYLEDITEM(#727,(#64),'blq1_enclosure');
#729=IFCRECTANGLEPROFILEDEF(.AREA.,$,$,0.47799999999999998,0.0040000000000000036);
#730=IFCCARTESIANPOINT((0.,-0.077999999999999847,0.015000000000000124));
#731=IFCDIRECTION((0.,0.,1.));
#732=IFCDIRECTION((1.,0.,0.));
#733=IFCAXIS2PLACEMENT3D(#730,#731,#732);
#734=IFCDIRECTION((0.,0.,1.));
#735=IFCEXTRUDEDAREASOLID(#729,#733,#734,0.8839999999999999);
#736=IFCSTYLEDITEM(#735,(#64),'blq1_door');
#737=IFCRECTANGLEPROFILEDEF(.AREA.,$,$,0.019999999999999907,0.014000000000000234);
#738=IFCCARTESIANPOINT((0.20399999999999996,-0.084000000000000075,0.42200000000000015));
#739=IFCDIRECTION((0.,0.,1.));
#740=IFCDIRECTION((1.,0.,0.));
#741=IFCAXIS2PLACEMENT3D(#738,#739,#740);
#742=IFCDIRECTION((0.,0.,1.));
#743=IFCEXTRUDEDAREASOLID(#737,#741,#742,0.06999999999999984);
#744=IFCSTYLEDITEM(#743,(#74),'blq1_latch');
#745=IFCRECTANGLEPROFILEDEF(.AREA.,$,$,0.10999999999999999,0.0019999999999997797);
#746=IFCCARTESIANPOINT((0.,-0.080999999999999961,0.80900000000000016));
#747=IFCDIRECTION((0.,0.,1.));
#748=IFCDIRECTION((1.,0.,0.));
#749=IFCAXIS2PLACEMENT3D(#746,#747,#748);
#750=IFCDIRECTION((0.,0.,1.));
#751=IFCEXTRUDEDAREASOLID(#745,#749,#750,0.029999999999999805);
#752=IFCSTYLEDITEM(#751,(#81),'blq1_nameplate');
#753=IFCRECTANGLEPROFILEDEF(.AREA.,$,$,0.041000000000000009,0.040999999999999925);
#754=IFCCARTESIANPOINT((-0.16999999999999998,0.095999999999999641,-1.0671999999999999));
#755=IFCDIRECTION((0.,0.,1.));
#756=IFCDIRECTION((1.,0.,0.));
#757=IFCAXIS2PLACEMENT3D(#754,#755,#756);
#758=IFCDIRECTION((0.,0.,1.));
#759=IFCEXTRUDEDAREASOLID(#753,#757,#758,2.1000000000000001);
#760=IFCSTYLEDITEM(#759,(#88),'blq1_strut_backing');
#761=IFCRECTANGLEPROFILEDEF(.AREA.,$,$,0.041000000000000036,0.040999999999999925);
#762=IFCCARTESIANPOINT((0.17000000000000004,0.095999999999999641,-1.0671999999999999));
#763=IFCDIRECTION((0.,0.,1.));
#764=IFCDIRECTION((1.,0.,0.));
#765=IFCAXIS2PLACEMENT3D(#762,#763,#764);
#766=IFCDIRECTION((0.,0.,1.));
#767=IFCEXTRUDEDAREASOLID(#761,#765,#766,2.1000000000000001);
#768=IFCSTYLEDITEM(#767,(#88),'blq1_strut_backing');
#769=IFCSHAPEREPRESENTATION(#11,'Body','SweptSolid',(#727,#735,#743,#751,#759,#767));
#770=IFCCARTESIANPOINT((1.1277600000000001,2.3184,1.0671999999999999));
#771=IFCDIRECTION((0.,0.,1.));
#772=IFCDIRECTION((1.,0.,0.));
#773=IFCAXIS2PLACEMENT3D(#770,#771,#772);
#774=IFCRECTANGLEPROFILEDEF(.AREA.,$,$,0.50800000000000012,0.15000000000000036);
#775=IFCCARTESIANPOINT((0.,0.,0.));
#776=IFCDIRECTION((0.,0.,1.));
#777=IFCDIRECTION((1.,0.,0.));
#778=IFCAXIS2PLACEMENT3D(#775,#776,#777);
#779=IFCDIRECTION((0.,0.,1.));
#780=IFCEXTRUDEDAREASOLID(#774,#778,#779,0.91400000000000015);
#781=IFCSTYLEDITEM(#780,(#64),'bslq1_enclosure');
#782=IFCRECTANGLEPROFILEDEF(.AREA.,$,$,0.47799999999999998,0.0040000000000000036);
#783=IFCCARTESIANPOINT((0.,-0.077999999999999847,0.015000000000000124));
#784=IFCDIRECTION((0.,0.,1.));
#785=IFCDIRECTION((1.,0.,0.));
#786=IFCAXIS2PLACEMENT3D(#783,#784,#785);
#787=IFCDIRECTION((0.,0.,1.));
#788=IFCEXTRUDEDAREASOLID(#782,#786,#787,0.8839999999999999);
#789=IFCSTYLEDITEM(#788,(#64),'bslq1_door');
#790=IFCRECTANGLEPROFILEDEF(.AREA.,$,$,0.020000000000000018,0.014000000000000234);
#791=IFCCARTESIANPOINT((0.20399999999999996,-0.084000000000000075,0.42200000000000015));
#792=IFCDIRECTION((0.,0.,1.));
#793=IFCDIRECTION((1.,0.,0.));
#794=IFCAXIS2PLACEMENT3D(#791,#792,#793);
#795=IFCDIRECTION((0.,0.,1.));
#796=IFCEXTRUDEDAREASOLID(#790,#794,#795,0.06999999999999984);
#797=IFCSTYLEDITEM(#796,(#74),'bslq1_latch');
#798=IFCRECTANGLEPROFILEDEF(.AREA.,$,$,0.1100000000000001,0.0019999999999997797);
#799=IFCCARTESIANPOINT((-2.2204460492503131E-16,-0.080999999999999961,0.80900000000000016));
#800=IFCDIRECTION((0.,0.,1.));
#801=IFCDIRECTION((1.,0.,0.));
#802=IFCAXIS2PLACEMENT3D(#799,#800,#801);
#803=IFCDIRECTION((0.,0.,1.));
#804=IFCEXTRUDEDAREASOLID(#798,#802,#803,0.029999999999999805);
#805=IFCSTYLEDITEM(#804,(#81),'bslq1_nameplate');
#806=IFCRECTANGLEPROFILEDEF(.AREA.,$,$,0.041000000000000036,0.040999999999999925);
#807=IFCCARTESIANPOINT((-0.17000000000000004,0.095999999999999641,-1.0671999999999999));
#808=IFCDIRECTION((0.,0.,1.));
#809=IFCDIRECTION((1.,0.,0.));
#810=IFCAXIS2PLACEMENT3D(#807,#808,#809);
#811=IFCDIRECTION((0.,0.,1.));
#812=IFCEXTRUDEDAREASOLID(#806,#810,#811,2.1000000000000001);
#813=IFCSTYLEDITEM(#812,(#88),'bslq1_strut_backing');
#814=IFCRECTANGLEPROFILEDEF(.AREA.,$,$,0.040999999999999925,0.040999999999999925);
#815=IFCCARTESIANPOINT((0.16999999999999993,0.095999999999999641,-1.0671999999999999));
#816=IFCDIRECTION((0.,0.,1.));
#817=IFCDIRECTION((1.,0.,0.));
#818=IFCAXIS2PLACEMENT3D(#815,#816,#817);
#819=IFCDIRECTION((0.,0.,1.));
#820=IFCEXTRUDEDAREASOLID(#814,#818,#819,2.1000000000000001);
#821=IFCSTYLEDITEM(#820,(#88),'bslq1_strut_backing');
#822=IFCSHAPEREPRESENTATION(#11,'Body','SweptSolid',(#780,#788,#796,#804,#812,#820));
#823=IFCCARTESIANPOINT((3.6515,2.3184,1.0671999999999999));
#824=IFCDIRECTION((0.,0.,1.));
#825=IFCDIRECTION((1.,0.,0.));
#826=IFCAXIS2PLACEMENT3D(#823,#824,#825);
#827=IFCRECTANGLEPROFILEDEF(.AREA.,$,$,0.50800000000000001,0.15000000000000036);
#828=IFCCARTESIANPOINT((0.,0.,0.));
#829=IFCDIRECTION((0.,0.,1.));
#830=IFCDIRECTION((1.,0.,0.));
#831=IFCAXIS2PLACEMENT3D(#828,#829,#830);
#832=IFCDIRECTION((0.,0.,1.));
#833=IFCEXTRUDEDAREASOLID(#827,#831,#832,0.91400000000000015);
#834=IFCSTYLEDITEM(#833,(#64),'bshq1_enclosure');
#835=IFCRECTANGLEPROFILEDEF(.AREA.,$,$,0.47799999999999976,0.0040000000000000036);
#836=IFCCARTESIANPOINT((0.,-0.077999999999999847,0.015000000000000124));
#837=IFCDIRECTION((0.,0.,1.));
#838=IFCDIRECTION((1.,0.,0.));
#839=IFCAXIS2PLACEMENT3D(#836,#837,#838);
#840=IFCDIRECTION((0.,0.,1.));
#841=IFCEXTRUDEDAREASOLID(#835,#839,#840,0.8839999999999999);
#842=IFCSTYLEDITEM(#841,(#64),'bshq1_door');
#843=IFCRECTANGLEPROFILEDEF(.AREA.,$,$,0.020000000000000018,0.014000000000000234);
#844=IFCCARTESIANPOINT((0.20400000000000018,-0.084000000000000075,0.42200000000000015));
#845=IFCDIRECTION((0.,0.,1.));
#846=IFCDIRECTION((1.,0.,0.));
#847=IFCAXIS2PLACEMENT3D(#844,#845,#846);
#848=IFCDIRECTION((0.,0.,1.));
#849=IFCEXTRUDEDAREASOLID(#843,#847,#848,0.06999999999999984);
#850=IFCSTYLEDITEM(#849,(#74),'bshq1_latch');
#851=IFCRECTANGLEPROFILEDEF(.AREA.,$,$,0.11000000000000032,0.0019999999999997797);
#852=IFCCARTESIANPOINT((0.,-0.080999999999999961,0.80900000000000016));
#853=IFCDIRECTION((0.,0.,1.));
#854=IFCDIRECTION((1.,0.,0.));
#855=IFCAXIS2PLACEMENT3D(#852,#853,#854);
#856=IFCDIRECTION((0.,0.,1.));
#857=IFCEXTRUDEDAREASOLID(#851,#855,#856,0.029999999999999805);
#858=IFCSTYLEDITEM(#857,(#81),'bshq1_nameplate');
#859=IFCRECTANGLEPROFILEDEF(.AREA.,$,$,0.040999999999999925,0.040999999999999925);
#860=IFCCARTESIANPOINT((-0.17000000000000037,0.095999999999999641,-1.0671999999999999));
#861=IFCDIRECTION((0.,0.,1.));
#862=IFCDIRECTION((1.,0.,0.));
#863=IFCAXIS2PLACEMENT3D(#860,#861,#862);
#864=IFCDIRECTION((0.,0.,1.));
#865=IFCEXTRUDEDAREASOLID(#859,#863,#864,2.1000000000000001);
#866=IFCSTYLEDITEM(#865,(#88),'bshq1_strut_backing');
#867=IFCRECTANGLEPROFILEDEF(.AREA.,$,$,0.040999999999999925,0.040999999999999925);
#868=IFCCARTESIANPOINT((0.17000000000000037,0.095999999999999641,-1.0671999999999999));
#869=IFCDIRECTION((0.,0.,1.));
#870=IFCDIRECTION((1.,0.,0.));
#871=IFCAXIS2PLACEMENT3D(#868,#869,#870);
#872=IFCDIRECTION((0.,0.,1.));
#873=IFCEXTRUDEDAREASOLID(#867,#871,#872,2.1000000000000001);
#874=IFCSTYLEDITEM(#873,(#88),'bshq1_strut_backing');
#875=IFCSHAPEREPRESENTATION(#11,'Body','SweptSolid',(#833,#841,#849,#857,#865,#873));
ENDSEC;
END-ISO-10303-21;
