ISO-10303-21;
HEADER;
FILE_DESCRIPTION(('ViewDefinition [CoordinationView]'),'2;1');
FILE_NAME('bs-area-e-electrical-room.ifc','2026-07-30T03:56:20',(''),(''),'three-d-stage IFC writer','three-d-stage','');
FILE_SCHEMA(('IFC4'));
ENDSEC;
DATA;
#1=IFCPERSON($,$,'',$,$,$,$,$);
#2=IFCORGANIZATION($,'three-d-stage',$,$,$);
#3=IFCPERSONANDORGANIZATION(#1,#2,$);
#4=IFCAPPLICATION(#2,'1.0','three-d-stage IFC writer','three_d_stage');
#5=IFCOWNERHISTORY(#3,#4,$,.NOCHANGE.,$,$,$,1785383780);
#6=IFCDIRECTION((1.,0.,0.));
#7=IFCDIRECTION((0.,0.,1.));
#8=IFCCARTESIANPOINT((0.,0.,0.));
#9=IFCAXIS2PLACEMENT3D(#8,#7,#6);
#10=IFCGEOMETRICREPRESENTATIONCONTEXT($,'Model',3,1.E-05,#9,$);
#11=IFCGEOMETRICREPRESENTATIONSUBCONTEXT('Body','Model',*,*,*,*,#10,$,.MODEL_VIEW.,$);
#12=IFCSIUNIT(*,.LENGTHUNIT.,$,.METRE.);
#13=IFCSIUNIT(*,.AREAUNIT.,$,.SQUARE_METRE.);
#14=IFCSIUNIT(*,.VOLUMEUNIT.,$,.CUBIC_METRE.);
#15=IFCSIUNIT(*,.PLANEANGLEUNIT.,$,.RADIAN.);
#16=IFCSIUNIT(*,.ELECTRICVOLTAGEUNIT.,$,.VOLT.);
#17=IFCSIUNIT(*,.ELECTRICCURRENTUNIT.,$,.AMPERE.);
#18=IFCSIUNIT(*,.POWERUNIT.,$,.WATT.);
#19=IFCUNITASSIGNMENT((#12,#13,#14,#15,#16,#17,#18));
#20=IFCPROJECT('3vu4DB3GgF4lmiuZxD48uv',#5,'DDOT Coolidge - Area E bus storage electrical room',$,$,$,$,(#10),#19);
#21=IFCLOCALPLACEMENT($,#9);
#22=IFCSITE('2ZrhTPV7jc$Pyvu6gERV0n',#5,'Site',$,$,#21,$,$,.ELEMENT.,$,$,$,$,$);
#23=IFCLOCALPLACEMENT(#21,#9);
#24=IFCBUILDING('0u3M6DT12jyfdw5uABBl1Q',#5,'Building',$,$,#23,$,$,.ELEMENT.,$,$,$);
#25=IFCLOCALPLACEMENT(#23,#9);
#26=IFCBUILDINGSTOREY('2RXK6hFR__MBlm8h4$Hi_L',#5,'Level 1',$,$,#25,$,$,.ELEMENT.,0.);
#27=IFCRELAGGREGATES('1dXcC5O3uT7hywUxG_q77N',#5,$,$,#20,(#22));
#28=IFCRELAGGREGATES('3JnEDuEdt29jwgojgwJKV3',#5,$,$,#22,(#24));
#29=IFCRELAGGREGATES('1YJo$N1P2KIG22p6Rmq9VE',#5,$,$,#24,(#26));
#30=IFCCARTESIANPOINTLIST3D(((5.3816,-2.4384,0.),(5.3816,2.6384,0.),(5.3816,-2.4384,-0.15),(5.3816,2.6384,-0.15),(-5.3816,2.6384,0.),(-5.3816,-2.4384,0.),(-5.3816,2.6384,-0.15),(-5.3816,-2.4384,-0.15),(-5.3816,2.6384,0.),(5.3816,2.6384,0.),(-5.3816,-2.4384,0.),(5.3816,-2.4384,0.),(-5.3816,-2.4384,-0.15),(5.3816,-2.4384,-0.15),(-5.3816,2.6384,-0.15),(5.3816,2.6384,-0.15),(-5.3816,-2.4384,0.),(5.3816,-2.4384,0.),(-5.3816,-2.4384,-0.15),(5.3816,-2.4384,-0.15),(5.3816,2.6384,0.),(-5.3816,2.6384,0.),(5.3816,2.6384,-0.15),(-5.3816,2.6384,-0.15)));
#31=IFCTRIANGULATEDFACESET(#30,$,$,((1,3,2),(3,4,2),(5,7,6),(7,8,6),(9,11,10),(11,12,10),(13,15,14),(15,16,14),(17,19,18),(19,20,18),(21,23,22),(23,24,22)),$);
#32=IFCCOLOURRGB($,0.788235,0.776471,0.745098);
#33=IFCSURFACESTYLERENDERING(#32,0.,$,$,$,$,$,$,.NOTDEFINED.);
#34=IFCSURFACESTYLE('concrete',.BOTH.,(#33));
#35=IFCPRESENTATIONSTYLEASSIGNMENT((#34));
#36=IFCSTYLEDITEM(#31,(#35),'floor_slab');
#37=IFCCARTESIANPOINTLIST3D(((5.3816,2.4384,6.096),(5.3816,2.6384,6.096),(5.3816,2.4384,-0.),(5.3816,2.6384,-0.),(-5.3816,2.6384,6.096),(-5.3816,2.4384,6.096),(-5.3816,2.6384,-0.),(-5.3816,2.4384,-0.),(-5.3816,2.6384,6.096),(5.3816,2.6384,6.096),(-5.3816,2.4384,6.096),(5.3816,2.4384,6.096),(-5.3816,2.4384,-0.),(5.3816,2.4384,-0.),(-5.3816,2.6384,-0.),(5.3816,2.6384,-0.),(-5.3816,2.4384,6.096),(5.3816,2.4384,6.096),(-5.3816,2.4384,-0.),(5.3816,2.4384,-0.),(5.3816,2.6384,6.096),(-5.3816,2.6384,6.096),(5.3816,2.6384,-0.),(-5.3816,2.6384,-0.)));
#38=IFCTRIANGULATEDFACESET(#37,$,$,((1,3,2),(3,4,2),(5,7,6),(7,8,6),(9,11,10),(11,12,10),(13,15,14),(15,16,14),(17,19,18),(19,20,18),(21,23,22),(23,24,22)),$);
#39=IFCCOLOURRGB($,0.929412,0.917647,0.886275);
#40=IFCSURFACESTYLERENDERING(#39,0.,$,$,$,$,$,$,.NOTDEFINED.);
#41=IFCSURFACESTYLE('painted_wall',.BOTH.,(#40));
#42=IFCPRESENTATIONSTYLEASSIGNMENT((#41));
#43=IFCSTYLEDITEM(#38,(#42),'wall_north_panelwall');
#44=IFCCARTESIANPOINTLIST3D(((-5.1816,-2.4384,6.096),(-5.1816,2.4384,6.096),(-5.1816,-2.4384,-0.),(-5.1816,2.4384,-0.),(-5.3816,2.4384,6.096),(-5.3816,-2.4384,6.096),(-5.3816,2.4384,-0.),(-5.3816,-2.4384,-0.),(-5.3816,2.4384,6.096),(-5.1816,2.4384,6.096),(-5.3816,-2.4384,6.096),(-5.1816,-2.4384,6.096),(-5.3816,-2.4384,-0.),(-5.1816,-2.4384,-0.),(-5.3816,2.4384,-0.),(-5.1816,2.4384,-0.),(-5.3816,-2.4384,6.096),(-5.1816,-2.4384,6.096),(-5.3816,-2.4384,-0.),(-5.1816,-2.4384,-0.),(-5.1816,2.4384,6.096),(-5.3816,2.4384,6.096),(-5.1816,2.4384,-0.),(-5.3816,2.4384,-0.)));
#45=IFCTRIANGULATEDFACESET(#44,$,$,((1,3,2),(3,4,2),(5,7,6),(7,8,6),(9,11,10),(11,12,10),(13,15,14),(15,16,14),(17,19,18),(19,20,18),(21,23,22),(23,24,22)),$);
#46=IFCSTYLEDITEM(#45,(#42),'wall_west');
#47=IFCCARTESIANPOINTLIST3D(((5.3816,-2.4384,6.096),(5.3816,2.4384,6.096),(5.3816,-2.4384,-0.),(5.3816,2.4384,-0.),(5.1816,2.4384,6.096),(5.1816,-2.4384,6.096),(5.1816,2.4384,-0.),(5.1816,-2.4384,-0.),(5.1816,2.4384,6.096),(5.3816,2.4384,6.096),(5.1816,-2.4384,6.096),(5.3816,-2.4384,6.096),(5.1816,-2.4384,-0.),(5.3816,-2.4384,-0.),(5.1816,2.4384,-0.),(5.3816,2.4384,-0.),(5.1816,-2.4384,6.096),(5.3816,-2.4384,6.096),(5.1816,-2.4384,-0.),(5.3816,-2.4384,-0.),(5.3816,2.4384,6.096),(5.1816,2.4384,6.096),(5.3816,2.4384,-0.),(5.1816,2.4384,-0.)));
#48=IFCTRIANGULATEDFACESET(#47,$,$,((1,3,2),(3,4,2),(5,7,6),(7,8,6),(9,11,10),(11,12,10),(13,15,14),(15,16,14),(17,19,18),(19,20,18),(21,23,22),(23,24,22)),$);
#49=IFCSTYLEDITEM(#48,(#42),'wall_east');
#50=IFCSHAPEREPRESENTATION(#11,'Body','Tessellation',(#31,#38,#45,#48));
#51=IFCPRODUCTDEFINITIONSHAPE($,$,(#50));
#52=IFCLOCALPLACEMENT(#25,#9);
#53=IFCBUILDINGELEMENTPROXY('1HIerdo5jUXwamW6MpY5VO',#5,'Bus storage electrical room shell \X2\2014\X0\ Area E','34 ft x 16 ft clear, 20 ft to structure; front wall cut away for viewing',$,#52,#51,'ROOM',.NOTDEFINED.);
#54=IFCPROPERTYSINGLEVALUE('Facility',$,IFCLABEL('DDOT Coolidge \X2\2014\X0\ bus storage / coach services'),$);
#55=IFCPROPERTYSINGLEVALUE('Area',$,IFCLABEL('E'),$);
#56=IFCPROPERTYSINGLEVALUE('ConduitRackMinElevationFt',$,IFCREAL(16.),$);
#57=IFCPROPERTYSET('1ep_yLPr1sFICW$TFdvb9m',#5,'RoomInformation',$,(#54,#55,#56));
#58=IFCRELDEFINESBYPROPERTIES('2y89lQGczZSBIiNk0MPCiR',#5,$,$,(#53),#57);
#59=IFCCARTESIANPOINTLIST3D(((-3.528568,2.2434,1.9812),(-3.528568,2.3934,1.9812),(-3.528568,2.2434,1.0672),(-3.528568,2.3934,1.0672),(-4.036568,2.3934,1.9812),(-4.036568,2.2434,1.9812),(-4.036568,2.3934,1.0672),(-4.036568,2.2434,1.0672),(-4.036568,2.3934,1.9812),(-3.528568,2.3934,1.9812),(-4.036568,2.2434,1.9812),(-3.528568,2.2434,1.9812),(-4.036568,2.2434,1.0672),(-3.528568,2.2434,1.0672),(-4.036568,2.3934,1.0672),(-3.528568,2.3934,1.0672),(-4.036568,2.2434,1.9812),(-3.528568,2.2434,1.9812),(-4.036568,2.2434,1.0672),(-3.528568,2.2434,1.0672),(-3.528568,2.3934,1.9812),(-4.036568,2.3934,1.9812),(-3.528568,2.3934,1.0672),(-4.036568,2.3934,1.0672)));
#60=IFCTRIANGULATEDFACESET(#59,$,$,((1,3,2),(3,4,2),(5,7,6),(7,8,6),(9,11,10),(11,12,10),(13,15,14),(15,16,14),(17,19,18),(19,20,18),(21,23,22),(23,24,22)),$);
#61=IFCCOLOURRGB($,0.611765,0.635294,0.639216);
#62=IFCSURFACESTYLERENDERING(#61,0.,$,$,$,$,$,$,.NOTDEFINED.);
#63=IFCSURFACESTYLE('ansi61_gray',.BOTH.,(#62));
#64=IFCPRESENTATIONSTYLEASSIGNMENT((#63));
#65=IFCSTYLEDITEM(#60,(#64),'bhg4_enclosure');
#66=IFCCARTESIANPOINTLIST3D(((-3.543568,2.2384,1.9662),(-3.543568,2.2424,1.9662),(-3.543568,2.2384,1.0822),(-3.543568,2.2424,1.0822),(-4.021568,2.2424,1.9662),(-4.021568,2.2384,1.9662),(-4.021568,2.2424,1.0822),(-4.021568,2.2384,1.0822),(-4.021568,2.2424,1.9662),(-3.543568,2.2424,1.9662),(-4.021568,2.2384,1.9662),(-3.543568,2.2384,1.9662),(-4.021568,2.2384,1.0822),(-3.543568,2.2384,1.0822),(-4.021568,2.2424,1.0822),(-3.543568,2.2424,1.0822),(-4.021568,2.2384,1.9662),(-3.543568,2.2384,1.9662),(-4.021568,2.2384,1.0822),(-3.543568,2.2384,1.0822),(-3.543568,2.2424,1.9662),(-4.021568,2.2424,1.9662),(-3.543568,2.2424,1.0822),(-4.021568,2.2424,1.0822)));
#67=IFCTRIANGULATEDFACESET(#66,$,$,((1,3,2),(3,4,2),(5,7,6),(7,8,6),(9,11,10),(11,12,10),(13,15,14),(15,16,14),(17,19,18),(19,20,18),(21,23,22),(23,24,22)),$);
#68=IFCSTYLEDITEM(#67,(#64),'bhg4_door');
#69=IFCCARTESIANPOINTLIST3D(((-3.568568,2.2274,1.5592),(-3.568568,2.2414,1.5592),(-3.568568,2.2274,1.4892),(-3.568568,2.2414,1.4892),(-3.588568,2.2414,1.5592),(-3.588568,2.2274,1.5592),(-3.588568,2.2414,1.4892),(-3.588568,2.2274,1.4892),(-3.588568,2.2414,1.5592),(-3.568568,2.2414,1.5592),(-3.588568,2.2274,1.5592),(-3.568568,2.2274,1.5592),(-3.588568,2.2274,1.4892),(-3.568568,2.2274,1.4892),(-3.588568,2.2414,1.4892),(-3.568568,2.2414,1.4892),(-3.588568,2.2274,1.5592),(-3.568568,2.2274,1.5592),(-3.588568,2.2274,1.4892),(-3.568568,2.2274,1.4892),(-3.568568,2.2414,1.5592),(-3.588568,2.2414,1.5592),(-3.568568,2.2414,1.4892),(-3.588568,2.2414,1.4892)));
#70=IFCTRIANGULATEDFACESET(#69,$,$,((1,3,2),(3,4,2),(5,7,6),(7,8,6),(9,11,10),(11,12,10),(13,15,14),(15,16,14),(17,19,18),(19,20,18),(21,23,22),(23,24,22)),$);
#71=IFCCOLOURRGB($,0.164706,0.164706,0.156863);
#72=IFCSURFACESTYLERENDERING(#71,0.,$,$,$,$,$,$,.NOTDEFINED.);
#73=IFCSURFACESTYLE('black_hardware',.BOTH.,(#72));
#74=IFCPRESENTATIONSTYLEASSIGNMENT((#73));
#75=IFCSTYLEDITEM(#70,(#74),'bhg4_latch');
#76=IFCCARTESIANPOINTLIST3D(((-3.727568,2.2364,1.9062),(-3.727568,2.2384,1.9062),(-3.727568,2.2364,1.8762),(-3.727568,2.2384,1.8762),(-3.837568,2.2384,1.9062),(-3.837568,2.2364,1.9062),(-3.837568,2.2384,1.8762),(-3.837568,2.2364,1.8762),(-3.837568,2.2384,1.9062),(-3.727568,2.2384,1.9062),(-3.837568,2.2364,1.9062),(-3.727568,2.2364,1.9062),(-3.837568,2.2364,1.8762),(-3.727568,2.2364,1.8762),(-3.837568,2.2384,1.8762),(-3.727568,2.2384,1.8762),(-3.837568,2.2364,1.9062),(-3.727568,2.2364,1.9062),(-3.837568,2.2364,1.8762),(-3.727568,2.2364,1.8762),(-3.727568,2.2384,1.9062),(-3.837568,2.2384,1.9062),(-3.727568,2.2384,1.8762),(-3.837568,2.2384,1.8762)));
#77=IFCTRIANGULATEDFACESET(#76,$,$,((1,3,2),(3,4,2),(5,7,6),(7,8,6),(9,11,10),(11,12,10),(13,15,14),(15,16,14),(17,19,18),(19,20,18),(21,23,22),(23,24,22)),$);
#78=IFCCOLOURRGB($,0.956863,0.94902,0.917647);
#79=IFCSURFACESTYLERENDERING(#78,0.,$,$,$,$,$,$,.NOTDEFINED.);
#80=IFCSURFACESTYLE('white_label',.BOTH.,(#79));
#81=IFCPRESENTATIONSTYLEASSIGNMENT((#80));
#82=IFCSTYLEDITEM(#77,(#81),'bhg4_nameplate');
#83=IFCCARTESIANPOINTLIST3D(((-3.932068,2.3939,2.1),(-3.932068,2.4349,2.1),(-3.932068,2.3939,0.),(-3.932068,2.4349,0.),(-3.973068,2.4349,2.1),(-3.973068,2.3939,2.1),(-3.973068,2.4349,0.),(-3.973068,2.3939,0.),(-3.973068,2.4349,2.1),(-3.932068,2.4349,2.1),(-3.973068,2.3939,2.1),(-3.932068,2.3939,2.1),(-3.973068,2.3939,0.),(-3.932068,2.3939,0.),(-3.973068,2.4349,0.),(-3.932068,2.4349,0.),(-3.973068,2.3939,2.1),(-3.932068,2.3939,2.1),(-3.973068,2.3939,0.),(-3.932068,2.3939,0.),(-3.932068,2.4349,2.1),(-3.973068,2.4349,2.1),(-3.932068,2.4349,0.),(-3.973068,2.4349,0.),(-3.592068,2.3939,2.1),(-3.592068,2.4349,2.1),(-3.592068,2.3939,0.),(-3.592068,2.4349,0.),(-3.633068,2.4349,2.1),(-3.633068,2.3939,2.1),(-3.633068,2.4349,0.),(-3.633068,2.3939,0.),(-3.633068,2.4349,2.1),(-3.592068,2.4349,2.1),(-3.633068,2.3939,2.1),(-3.592068,2.3939,2.1),(-3.633068,2.3939,0.),(-3.592068,2.3939,0.),(-3.633068,2.4349,0.),(-3.592068,2.4349,0.),(-3.633068,2.3939,2.1),(-3.592068,2.3939,2.1),(-3.633068,2.3939,0.),(-3.592068,2.3939,0.),(-3.592068,2.4349,2.1),(-3.633068,2.4349,2.1),(-3.592068,2.4349,0.),(-3.633068,2.4349,0.)));
#84=IFCTRIANGULATEDFACESET(#83,$,$,((1,3,2),(3,4,2),(5,7,6),(7,8,6),(9,11,10),(11,12,10),(13,15,14),(15,16,14),(17,19,18),(19,20,18),(21,23,22),(23,24,22),(25,27,26),(27,28,26),(29,31,30),(31,32,30),(33,35,34),(35,36,34),(37,39,38),(39,40,38),(41,43,42),(43,44,42),(45,47,46),(47,48,46)),$);
#85=IFCCOLOURRGB($,0.705882,0.72549,0.709804);
#86=IFCSURFACESTYLERENDERING(#85,0.,$,$,$,$,$,$,.NOTDEFINED.);
#87=IFCSURFACESTYLE('galvanized_steel',.BOTH.,(#86));
#88=IFCPRESENTATIONSTYLEASSIGNMENT((#87));
#89=IFCSTYLEDITEM(#84,(#88),'bhg4_strut_backing');
#90=IFCSHAPEREPRESENTATION(#11,'Body','Tessellation',(#60,#67,#70,#77,#84));
#91=IFCPRODUCTDEFINITIONSHAPE($,$,(#90));
#92=IFCLOCALPLACEMENT(#25,#9);
#93=IFCELECTRICDISTRIBUTIONBOARD('14wy3TQKz4SSS_bPCufWif',#5,'B-HG4','Panelboard, 480Y/277 V; fed from MDB via BS-FD1020',$,#92,#91,'B-HG4',.DISTRIBUTIONBOARD.);
#94=IFCPROPERTYSINGLEVALUE('PanelName',$,IFCLABEL('B-HG4'),$);
#95=IFCPROPERTYSINGLEVALUE('Voltage',$,IFCLABEL('480Y/277 V'),$);
#96=IFCPROPERTYSINGLEVALUE('FedFrom',$,IFCLABEL('MDB via BS-FD1020'),$);
#97=IFCPROPERTYSINGLEVALUE('FeederRun',$,IFCLABEL('BS-FD1020'),$);
#98=IFCPROPERTYSINGLEVALUE('CenterlineFromGrid16BS',$,IFCLENGTHMEASURE(1.399032),$);
#99=IFCPROPERTYSINGLEVALUE('TopOfPanelAFF',$,IFCLENGTHMEASURE(1.9812),$);
#100=IFCPROPERTYSET('3wxedkK9HIdezpGOJ2sNe$',#5,'PanelSchedule',$,(#94,#95,#96,#97,#98,#99));
#101=IFCRELDEFINESBYPROPERTIES('2XUR1FXRAkU7lni8Cks_Gv',#5,$,$,(#93),#100);
#102=IFCCARTESIANPOINTLIST3D(((-2.73304,2.2434,1.9812),(-2.73304,2.3934,1.9812),(-2.73304,2.2434,1.0672),(-2.73304,2.3934,1.0672),(-3.24104,2.3934,1.9812),(-3.24104,2.2434,1.9812),(-3.24104,2.3934,1.0672),(-3.24104,2.2434,1.0672),(-3.24104,2.3934,1.9812),(-2.73304,2.3934,1.9812),(-3.24104,2.2434,1.9812),(-2.73304,2.2434,1.9812),(-3.24104,2.2434,1.0672),(-2.73304,2.2434,1.0672),(-3.24104,2.3934,1.0672),(-2.73304,2.3934,1.0672),(-3.24104,2.2434,1.9812),(-2.73304,2.2434,1.9812),(-3.24104,2.2434,1.0672),(-2.73304,2.2434,1.0672),(-2.73304,2.3934,1.9812),(-3.24104,2.3934,1.9812),(-2.73304,2.3934,1.0672),(-3.24104,2.3934,1.0672)));
#103=IFCTRIANGULATEDFACESET(#102,$,$,((1,3,2),(3,4,2),(5,7,6),(7,8,6),(9,11,10),(11,12,10),(13,15,14),(15,16,14),(17,19,18),(19,20,18),(21,23,22),(23,24,22)),$);
#104=IFCSTYLEDITEM(#103,(#64),'blr1_enclosure');
#105=IFCCARTESIANPOINTLIST3D(((-2.74804,2.2384,1.9662),(-2.74804,2.2424,1.9662),(-2.74804,2.2384,1.0822),(-2.74804,2.2424,1.0822),(-3.22604,2.2424,1.9662),(-3.22604,2.2384,1.9662),(-3.22604,2.2424,1.0822),(-3.22604,2.2384,1.0822),(-3.22604,2.2424,1.9662),(-2.74804,2.2424,1.9662),(-3.22604,2.2384,1.9662),(-2.74804,2.2384,1.9662),(-3.22604,2.2384,1.0822),(-2.74804,2.2384,1.0822),(-3.22604,2.2424,1.0822),(-2.74804,2.2424,1.0822),(-3.22604,2.2384,1.9662),(-2.74804,2.2384,1.9662),(-3.22604,2.2384,1.0822),(-2.74804,2.2384,1.0822),(-2.74804,2.2424,1.9662),(-3.22604,2.2424,1.9662),(-2.74804,2.2424,1.0822),(-3.22604,2.2424,1.0822)));
#106=IFCTRIANGULATEDFACESET(#105,$,$,((1,3,2),(3,4,2),(5,7,6),(7,8,6),(9,11,10),(11,12,10),(13,15,14),(15,16,14),(17,19,18),(19,20,18),(21,23,22),(23,24,22)),$);
#107=IFCSTYLEDITEM(#106,(#64),'blr1_door');
#108=IFCCARTESIANPOINTLIST3D(((-2.77304,2.2274,1.5592),(-2.77304,2.2414,1.5592),(-2.77304,2.2274,1.4892),(-2.77304,2.2414,1.4892),(-2.79304,2.2414,1.5592),(-2.79304,2.2274,1.5592),(-2.79304,2.2414,1.4892),(-2.79304,2.2274,1.4892),(-2.79304,2.2414,1.5592),(-2.77304,2.2414,1.5592),(-2.79304,2.2274,1.5592),(-2.77304,2.2274,1.5592),(-2.79304,2.2274,1.4892),(-2.77304,2.2274,1.4892),(-2.79304,2.2414,1.4892),(-2.77304,2.2414,1.4892),(-2.79304,2.2274,1.5592),(-2.77304,2.2274,1.5592),(-2.79304,2.2274,1.4892),(-2.77304,2.2274,1.4892),(-2.77304,2.2414,1.5592),(-2.79304,2.2414,1.5592),(-2.77304,2.2414,1.4892),(-2.79304,2.2414,1.4892)));
#109=IFCTRIANGULATEDFACESET(#108,$,$,((1,3,2),(3,4,2),(5,7,6),(7,8,6),(9,11,10),(11,12,10),(13,15,14),(15,16,14),(17,19,18),(19,20,18),(21,23,22),(23,24,22)),$);
#110=IFCSTYLEDITEM(#109,(#74),'blr1_latch');
#111=IFCCARTESIANPOINTLIST3D(((-2.93204,2.2364,1.9062),(-2.93204,2.2384,1.9062),(-2.93204,2.2364,1.8762),(-2.93204,2.2384,1.8762),(-3.04204,2.2384,1.9062),(-3.04204,2.2364,1.9062),(-3.04204,2.2384,1.8762),(-3.04204,2.2364,1.8762),(-3.04204,2.2384,1.9062),(-2.93204,2.2384,1.9062),(-3.04204,2.2364,1.9062),(-2.93204,2.2364,1.9062),(-3.04204,2.2364,1.8762),(-2.93204,2.2364,1.8762),(-3.04204,2.2384,1.8762),(-2.93204,2.2384,1.8762),(-3.04204,2.2364,1.9062),(-2.93204,2.2364,1.9062),(-3.04204,2.2364,1.8762),(-2.93204,2.2364,1.8762),(-2.93204,2.2384,1.9062),(-3.04204,2.2384,1.9062),(-2.93204,2.2384,1.8762),(-3.04204,2.2384,1.8762)));
#112=IFCTRIANGULATEDFACESET(#111,$,$,((1,3,2),(3,4,2),(5,7,6),(7,8,6),(9,11,10),(11,12,10),(13,15,14),(15,16,14),(17,19,18),(19,20,18),(21,23,22),(23,24,22)),$);
#113=IFCSTYLEDITEM(#112,(#81),'blr1_nameplate');
#114=IFCCARTESIANPOINTLIST3D(((-3.13654,2.3939,2.1),(-3.13654,2.4349,2.1),(-3.13654,2.3939,0.),(-3.13654,2.4349,0.),(-3.17754,2.4349,2.1),(-3.17754,2.3939,2.1),(-3.17754,2.4349,0.),(-3.17754,2.3939,0.),(-3.17754,2.4349,2.1),(-3.13654,2.4349,2.1),(-3.17754,2.3939,2.1),(-3.13654,2.3939,2.1),(-3.17754,2.3939,0.),(-3.13654,2.3939,0.),(-3.17754,2.4349,0.),(-3.13654,2.4349,0.),(-3.17754,2.3939,2.1),(-3.13654,2.3939,2.1),(-3.17754,2.3939,0.),(-3.13654,2.3939,0.),(-3.13654,2.4349,2.1),(-3.17754,2.4349,2.1),(-3.13654,2.4349,0.),(-3.17754,2.4349,0.),(-2.79654,2.3939,2.1),(-2.79654,2.4349,2.1),(-2.79654,2.3939,0.),(-2.79654,2.4349,0.),(-2.83754,2.4349,2.1),(-2.83754,2.3939,2.1),(-2.83754,2.4349,0.),(-2.83754,2.3939,0.),(-2.83754,2.4349,2.1),(-2.79654,2.4349,2.1),(-2.83754,2.3939,2.1),(-2.79654,2.3939,2.1),(-2.83754,2.3939,0.),(-2.79654,2.3939,0.),(-2.83754,2.4349,0.),(-2.79654,2.4349,0.),(-2.83754,2.3939,2.1),(-2.79654,2.3939,2.1),(-2.83754,2.3939,0.),(-2.79654,2.3939,0.),(-2.79654,2.4349,2.1),(-2.83754,2.4349,2.1),(-2.79654,2.4349,0.),(-2.83754,2.4349,0.)));
#115=IFCTRIANGULATEDFACESET(#114,$,$,((1,3,2),(3,4,2),(5,7,6),(7,8,6),(9,11,10),(11,12,10),(13,15,14),(15,16,14),(17,19,18),(19,20,18),(21,23,22),(23,24,22),(25,27,26),(27,28,26),(29,31,30),(31,32,30),(33,35,34),(35,36,34),(37,39,38),(39,40,38),(41,43,42),(43,44,42),(45,47,46),(47,48,46)),$);
#116=IFCSTYLEDITEM(#115,(#88),'blr1_strut_backing');
#117=IFCSHAPEREPRESENTATION(#11,'Body','Tessellation',(#103,#106,#109,#112,#115));
#118=IFCPRODUCTDEFINITIONSHAPE($,$,(#117));
#119=IFCLOCALPLACEMENT(#25,#9);
#120=IFCELECTRICDISTRIBUTIONBOARD('3DvI2ISY4IImiqWQhTxkaE',#5,'B-LR1','Panelboard, 208Y/120 V; fed from XFMR-LR1 via BS-FD1011',$,#119,#118,'B-LR1',.DISTRIBUTIONBOARD.);
#121=IFCPROPERTYSINGLEVALUE('PanelName',$,IFCLABEL('B-LR1'),$);
#122=IFCPROPERTYSINGLEVALUE('Voltage',$,IFCLABEL('208Y/120 V'),$);
#123=IFCPROPERTYSINGLEVALUE('FedFrom',$,IFCLABEL('XFMR-LR1 via BS-FD1011'),$);
#124=IFCPROPERTYSINGLEVALUE('FeederRun',$,IFCLABEL('BS-FD1011'),$);
#125=IFCPROPERTYSINGLEVALUE('CenterlineFromGrid16BS',$,IFCLENGTHMEASURE(2.19456),$);
#126=IFCPROPERTYSINGLEVALUE('TopOfPanelAFF',$,IFCLENGTHMEASURE(1.9812),$);
#127=IFCPROPERTYSET('0xU$jTSsAa038PUR710TbN',#5,'PanelSchedule',$,(#121,#122,#123,#124,#125,#126));
#128=IFCRELDEFINESBYPROPERTIES('37kIbRi1R9Eu93dP0$QdV2',#5,$,$,(#120),#127);
#129=IFCCARTESIANPOINTLIST3D(((-0.02032,2.2434,1.9812),(-0.02032,2.3934,1.9812),(-0.02032,2.2434,1.0672),(-0.02032,2.3934,1.0672),(-0.52832,2.3934,1.9812),(-0.52832,2.2434,1.9812),(-0.52832,2.3934,1.0672),(-0.52832,2.2434,1.0672),(-0.52832,2.3934,1.9812),(-0.02032,2.3934,1.9812),(-0.52832,2.2434,1.9812),(-0.02032,2.2434,1.9812),(-0.52832,2.2434,1.0672),(-0.02032,2.2434,1.0672),(-0.52832,2.3934,1.0672),(-0.02032,2.3934,1.0672),(-0.52832,2.2434,1.9812),(-0.02032,2.2434,1.9812),(-0.52832,2.2434,1.0672),(-0.02032,2.2434,1.0672),(-0.02032,2.3934,1.9812),(-0.52832,2.3934,1.9812),(-0.02032,2.3934,1.0672),(-0.52832,2.3934,1.0672)));
#130=IFCTRIANGULATEDFACESET(#129,$,$,((1,3,2),(3,4,2),(5,7,6),(7,8,6),(9,11,10),(11,12,10),(13,15,14),(15,16,14),(17,19,18),(19,20,18),(21,23,22),(23,24,22)),$);
#131=IFCSTYLEDITEM(#130,(#64),'bhq1_enclosure');
#132=IFCCARTESIANPOINTLIST3D(((-0.03532,2.2384,1.9662),(-0.03532,2.2424,1.9662),(-0.03532,2.2384,1.0822),(-0.03532,2.2424,1.0822),(-0.51332,2.2424,1.9662),(-0.51332,2.2384,1.9662),(-0.51332,2.2424,1.0822),(-0.51332,2.2384,1.0822),(-0.51332,2.2424,1.9662),(-0.03532,2.2424,1.9662),(-0.51332,2.2384,1.9662),(-0.03532,2.2384,1.9662),(-0.51332,2.2384,1.0822),(-0.03532,2.2384,1.0822),(-0.51332,2.2424,1.0822),(-0.03532,2.2424,1.0822),(-0.51332,2.2384,1.9662),(-0.03532,2.2384,1.9662),(-0.51332,2.2384,1.0822),(-0.03532,2.2384,1.0822),(-0.03532,2.2424,1.9662),(-0.51332,2.2424,1.9662),(-0.03532,2.2424,1.0822),(-0.51332,2.2424,1.0822)));
#133=IFCTRIANGULATEDFACESET(#132,$,$,((1,3,2),(3,4,2),(5,7,6),(7,8,6),(9,11,10),(11,12,10),(13,15,14),(15,16,14),(17,19,18),(19,20,18),(21,23,22),(23,24,22)),$);
#134=IFCSTYLEDITEM(#133,(#64),'bhq1_door');
#135=IFCCARTESIANPOINTLIST3D(((-0.06032,2.2274,1.5592),(-0.06032,2.2414,1.5592),(-0.06032,2.2274,1.4892),(-0.06032,2.2414,1.4892),(-0.08032,2.2414,1.5592),(-0.08032,2.2274,1.5592),(-0.08032,2.2414,1.4892),(-0.08032,2.2274,1.4892),(-0.08032,2.2414,1.5592),(-0.06032,2.2414,1.5592),(-0.08032,2.2274,1.5592),(-0.06032,2.2274,1.5592),(-0.08032,2.2274,1.4892),(-0.06032,2.2274,1.4892),(-0.08032,2.2414,1.4892),(-0.06032,2.2414,1.4892),(-0.08032,2.2274,1.5592),(-0.06032,2.2274,1.5592),(-0.08032,2.2274,1.4892),(-0.06032,2.2274,1.4892),(-0.06032,2.2414,1.5592),(-0.08032,2.2414,1.5592),(-0.06032,2.2414,1.4892),(-0.08032,2.2414,1.4892)));
#136=IFCTRIANGULATEDFACESET(#135,$,$,((1,3,2),(3,4,2),(5,7,6),(7,8,6),(9,11,10),(11,12,10),(13,15,14),(15,16,14),(17,19,18),(19,20,18),(21,23,22),(23,24,22)),$);
#137=IFCSTYLEDITEM(#136,(#74),'bhq1_latch');
#138=IFCCARTESIANPOINTLIST3D(((-0.21932,2.2364,1.9062),(-0.21932,2.2384,1.9062),(-0.21932,2.2364,1.8762),(-0.21932,2.2384,1.8762),(-0.32932,2.2384,1.9062),(-0.32932,2.2364,1.9062),(-0.32932,2.2384,1.8762),(-0.32932,2.2364,1.8762),(-0.32932,2.2384,1.9062),(-0.21932,2.2384,1.9062),(-0.32932,2.2364,1.9062),(-0.21932,2.2364,1.9062),(-0.32932,2.2364,1.8762),(-0.21932,2.2364,1.8762),(-0.32932,2.2384,1.8762),(-0.21932,2.2384,1.8762),(-0.32932,2.2364,1.9062),(-0.21932,2.2364,1.9062),(-0.32932,2.2364,1.8762),(-0.21932,2.2364,1.8762),(-0.21932,2.2384,1.9062),(-0.32932,2.2384,1.9062),(-0.21932,2.2384,1.8762),(-0.32932,2.2384,1.8762)));
#139=IFCTRIANGULATEDFACESET(#138,$,$,((1,3,2),(3,4,2),(5,7,6),(7,8,6),(9,11,10),(11,12,10),(13,15,14),(15,16,14),(17,19,18),(19,20,18),(21,23,22),(23,24,22)),$);
#140=IFCSTYLEDITEM(#139,(#81),'bhq1_nameplate');
#141=IFCCARTESIANPOINTLIST3D(((-0.42382,2.3939,2.1),(-0.42382,2.4349,2.1),(-0.42382,2.3939,0.),(-0.42382,2.4349,0.),(-0.46482,2.4349,2.1),(-0.46482,2.3939,2.1),(-0.46482,2.4349,0.),(-0.46482,2.3939,0.),(-0.46482,2.4349,2.1),(-0.42382,2.4349,2.1),(-0.46482,2.3939,2.1),(-0.42382,2.3939,2.1),(-0.46482,2.3939,0.),(-0.42382,2.3939,0.),(-0.46482,2.4349,0.),(-0.42382,2.4349,0.),(-0.46482,2.3939,2.1),(-0.42382,2.3939,2.1),(-0.46482,2.3939,0.),(-0.42382,2.3939,0.),(-0.42382,2.4349,2.1),(-0.46482,2.4349,2.1),(-0.42382,2.4349,0.),(-0.46482,2.4349,0.),(-0.08382,2.3939,2.1),(-0.08382,2.4349,2.1),(-0.08382,2.3939,0.),(-0.08382,2.4349,0.),(-0.12482,2.4349,2.1),(-0.12482,2.3939,2.1),(-0.12482,2.4349,0.),(-0.12482,2.3939,0.),(-0.12482,2.4349,2.1),(-0.08382,2.4349,2.1),(-0.12482,2.3939,2.1),(-0.08382,2.3939,2.1),(-0.12482,2.3939,0.),(-0.08382,2.3939,0.),(-0.12482,2.4349,0.),(-0.08382,2.4349,0.),(-0.12482,2.3939,2.1),(-0.08382,2.3939,2.1),(-0.12482,2.3939,0.),(-0.08382,2.3939,0.),(-0.08382,2.4349,2.1),(-0.12482,2.4349,2.1),(-0.08382,2.4349,0.),(-0.12482,2.4349,0.)));
#142=IFCTRIANGULATEDFACESET(#141,$,$,((1,3,2),(3,4,2),(5,7,6),(7,8,6),(9,11,10),(11,12,10),(13,15,14),(15,16,14),(17,19,18),(19,20,18),(21,23,22),(23,24,22),(25,27,26),(27,28,26),(29,31,30),(31,32,30),(33,35,34),(35,36,34),(37,39,38),(39,40,38),(41,43,42),(43,44,42),(45,47,46),(47,48,46)),$);
#143=IFCSTYLEDITEM(#142,(#88),'bhq1_strut_backing');
#144=IFCSHAPEREPRESENTATION(#11,'Body','Tessellation',(#130,#133,#136,#139,#142));
#145=IFCPRODUCTDEFINITIONSHAPE($,$,(#144));
#146=IFCLOCALPLACEMENT(#25,#9);
#147=IFCELECTRICDISTRIBUTIONBOARD('24SK5_hAD4yTgagh7XJomU',#5,'B-HQ1','Panelboard, 480Y/277 V; fed from B-HD1 via BS-FD1009',$,#146,#145,'B-HQ1',.DISTRIBUTIONBOARD.);
#148=IFCPROPERTYSINGLEVALUE('PanelName',$,IFCLABEL('B-HQ1'),$);
#149=IFCPROPERTYSINGLEVALUE('Voltage',$,IFCLABEL('480Y/277 V'),$);
#150=IFCPROPERTYSINGLEVALUE('FedFrom',$,IFCLABEL('B-HD1 via BS-FD1009'),$);
#151=IFCPROPERTYSINGLEVALUE('FeederRun',$,IFCLABEL('BS-FD1009'),$);
#152=IFCPROPERTYSINGLEVALUE('CenterlineFromGrid16BS',$,IFCLENGTHMEASURE(4.90728),$);
#153=IFCPROPERTYSINGLEVALUE('TopOfPanelAFF',$,IFCLENGTHMEASURE(1.9812),$);
#154=IFCPROPERTYSET('1PJoQeoDc04q6WXn0YlLgY',#5,'PanelSchedule',$,(#148,#149,#150,#151,#152,#153));
#155=IFCRELDEFINESBYPROPERTIES('0z44MZQTGCHQgdbegEstwr',#5,$,$,(#147),#154);
#156=IFCCARTESIANPOINTLIST3D(((0.686816,2.2434,1.9812),(0.686816,2.3934,1.9812),(0.686816,2.2434,1.0672),(0.686816,2.3934,1.0672),(0.178816,2.3934,1.9812),(0.178816,2.2434,1.9812),(0.178816,2.3934,1.0672),(0.178816,2.2434,1.0672),(0.178816,2.3934,1.9812),(0.686816,2.3934,1.9812),(0.178816,2.2434,1.9812),(0.686816,2.2434,1.9812),(0.178816,2.2434,1.0672),(0.686816,2.2434,1.0672),(0.178816,2.3934,1.0672),(0.686816,2.3934,1.0672),(0.178816,2.2434,1.9812),(0.686816,2.2434,1.9812),(0.178816,2.2434,1.0672),(0.686816,2.2434,1.0672),(0.686816,2.3934,1.9812),(0.178816,2.3934,1.9812),(0.686816,2.3934,1.0672),(0.178816,2.3934,1.0672)));
#157=IFCTRIANGULATEDFACESET(#156,$,$,((1,3,2),(3,4,2),(5,7,6),(7,8,6),(9,11,10),(11,12,10),(13,15,14),(15,16,14),(17,19,18),(19,20,18),(21,23,22),(23,24,22)),$);
#158=IFCSTYLEDITEM(#157,(#64),'blq1_enclosure');
#159=IFCCARTESIANPOINTLIST3D(((0.671816,2.2384,1.9662),(0.671816,2.2424,1.9662),(0.671816,2.2384,1.0822),(0.671816,2.2424,1.0822),(0.193816,2.2424,1.9662),(0.193816,2.2384,1.9662),(0.193816,2.2424,1.0822),(0.193816,2.2384,1.0822),(0.193816,2.2424,1.9662),(0.671816,2.2424,1.9662),(0.193816,2.2384,1.9662),(0.671816,2.2384,1.9662),(0.193816,2.2384,1.0822),(0.671816,2.2384,1.0822),(0.193816,2.2424,1.0822),(0.671816,2.2424,1.0822),(0.193816,2.2384,1.9662),(0.671816,2.2384,1.9662),(0.193816,2.2384,1.0822),(0.671816,2.2384,1.0822),(0.671816,2.2424,1.9662),(0.193816,2.2424,1.9662),(0.671816,2.2424,1.0822),(0.193816,2.2424,1.0822)));
#160=IFCTRIANGULATEDFACESET(#159,$,$,((1,3,2),(3,4,2),(5,7,6),(7,8,6),(9,11,10),(11,12,10),(13,15,14),(15,16,14),(17,19,18),(19,20,18),(21,23,22),(23,24,22)),$);
#161=IFCSTYLEDITEM(#160,(#64),'blq1_door');
#162=IFCCARTESIANPOINTLIST3D(((0.646816,2.2274,1.5592),(0.646816,2.2414,1.5592),(0.646816,2.2274,1.4892),(0.646816,2.2414,1.4892),(0.626816,2.2414,1.5592),(0.626816,2.2274,1.5592),(0.626816,2.2414,1.4892),(0.626816,2.2274,1.4892),(0.626816,2.2414,1.5592),(0.646816,2.2414,1.5592),(0.626816,2.2274,1.5592),(0.646816,2.2274,1.5592),(0.626816,2.2274,1.4892),(0.646816,2.2274,1.4892),(0.626816,2.2414,1.4892),(0.646816,2.2414,1.4892),(0.626816,2.2274,1.5592),(0.646816,2.2274,1.5592),(0.626816,2.2274,1.4892),(0.646816,2.2274,1.4892),(0.646816,2.2414,1.5592),(0.626816,2.2414,1.5592),(0.646816,2.2414,1.4892),(0.626816,2.2414,1.4892)));
#163=IFCTRIANGULATEDFACESET(#162,$,$,((1,3,2),(3,4,2),(5,7,6),(7,8,6),(9,11,10),(11,12,10),(13,15,14),(15,16,14),(17,19,18),(19,20,18),(21,23,22),(23,24,22)),$);
#164=IFCSTYLEDITEM(#163,(#74),'blq1_latch');
#165=IFCCARTESIANPOINTLIST3D(((0.487816,2.2364,1.9062),(0.487816,2.2384,1.9062),(0.487816,2.2364,1.8762),(0.487816,2.2384,1.8762),(0.377816,2.2384,1.9062),(0.377816,2.2364,1.9062),(0.377816,2.2384,1.8762),(0.377816,2.2364,1.8762),(0.377816,2.2384,1.9062),(0.487816,2.2384,1.9062),(0.377816,2.2364,1.9062),(0.487816,2.2364,1.9062),(0.377816,2.2364,1.8762),(0.487816,2.2364,1.8762),(0.377816,2.2384,1.8762),(0.487816,2.2384,1.8762),(0.377816,2.2364,1.9062),(0.487816,2.2364,1.9062),(0.377816,2.2364,1.8762),(0.487816,2.2364,1.8762),(0.487816,2.2384,1.9062),(0.377816,2.2384,1.9062),(0.487816,2.2384,1.8762),(0.377816,2.2384,1.8762)));
#166=IFCTRIANGULATEDFACESET(#165,$,$,((1,3,2),(3,4,2),(5,7,6),(7,8,6),(9,11,10),(11,12,10),(13,15,14),(15,16,14),(17,19,18),(19,20,18),(21,23,22),(23,24,22)),$);
#167=IFCSTYLEDITEM(#166,(#81),'blq1_nameplate');
#168=IFCCARTESIANPOINTLIST3D(((0.283316,2.3939,2.1),(0.283316,2.4349,2.1),(0.283316,2.3939,0.),(0.283316,2.4349,0.),(0.242316,2.4349,2.1),(0.242316,2.3939,2.1),(0.242316,2.4349,0.),(0.242316,2.3939,0.),(0.242316,2.4349,2.1),(0.283316,2.4349,2.1),(0.242316,2.3939,2.1),(0.283316,2.3939,2.1),(0.242316,2.3939,0.),(0.283316,2.3939,0.),(0.242316,2.4349,0.),(0.283316,2.4349,0.),(0.242316,2.3939,2.1),(0.283316,2.3939,2.1),(0.242316,2.3939,0.),(0.283316,2.3939,0.),(0.283316,2.4349,2.1),(0.242316,2.4349,2.1),(0.283316,2.4349,0.),(0.242316,2.4349,0.),(0.623316,2.3939,2.1),(0.623316,2.4349,2.1),(0.623316,2.3939,0.),(0.623316,2.4349,0.),(0.582316,2.4349,2.1),(0.582316,2.3939,2.1),(0.582316,2.4349,0.),(0.582316,2.3939,0.),(0.582316,2.4349,2.1),(0.623316,2.4349,2.1),(0.582316,2.3939,2.1),(0.623316,2.3939,2.1),(0.582316,2.3939,0.),(0.623316,2.3939,0.),(0.582316,2.4349,0.),(0.623316,2.4349,0.),(0.582316,2.3939,2.1),(0.623316,2.3939,2.1),(0.582316,2.3939,0.),(0.623316,2.3939,0.),(0.623316,2.4349,2.1),(0.582316,2.4349,2.1),(0.623316,2.4349,0.),(0.582316,2.4349,0.)));
#169=IFCTRIANGULATEDFACESET(#168,$,$,((1,3,2),(3,4,2),(5,7,6),(7,8,6),(9,11,10),(11,12,10),(13,15,14),(15,16,14),(17,19,18),(19,20,18),(21,23,22),(23,24,22),(25,27,26),(27,28,26),(29,31,30),(31,32,30),(33,35,34),(35,36,34),(37,39,38),(39,40,38),(41,43,42),(43,44,42),(45,47,46),(47,48,46)),$);
#170=IFCSTYLEDITEM(#169,(#88),'blq1_strut_backing');
#171=IFCSHAPEREPRESENTATION(#11,'Body','Tessellation',(#157,#160,#163,#166,#169));
#172=IFCPRODUCTDEFINITIONSHAPE($,$,(#171));
#173=IFCLOCALPLACEMENT(#25,#9);
#174=IFCELECTRICDISTRIBUTIONBOARD('22NJUdFAn19_LzhIA33mnL',#5,'B-LQ1','Panelboard, 208Y/120 V; fed from XFMR-LQ1 via BS-FD1013',$,#173,#172,'B-LQ1',.DISTRIBUTIONBOARD.);
#175=IFCPROPERTYSINGLEVALUE('PanelName',$,IFCLABEL('B-LQ1'),$);
#176=IFCPROPERTYSINGLEVALUE('Voltage',$,IFCLABEL('208Y/120 V'),$);
#177=IFCPROPERTYSINGLEVALUE('FedFrom',$,IFCLABEL('XFMR-LQ1 via BS-FD1013'),$);
#178=IFCPROPERTYSINGLEVALUE('FeederRun',$,IFCLABEL('BS-FD1013'),$);
#179=IFCPROPERTYSINGLEVALUE('CenterlineFromGrid16BS',$,IFCLENGTHMEASURE(5.614416),$);
#180=IFCPROPERTYSINGLEVALUE('TopOfPanelAFF',$,IFCLENGTHMEASURE(1.9812),$);
#181=IFCPROPERTYSET('3myleGXZYTDpirnGd$GOmb',#5,'PanelSchedule',$,(#175,#176,#177,#178,#179,#180));
#182=IFCRELDEFINESBYPROPERTIES('1sZEStocC4hTg73EKCiyqE',#5,$,$,(#174),#181);
#183=IFCCARTESIANPOINTLIST3D(((1.38176,2.2434,1.9812),(1.38176,2.3934,1.9812),(1.38176,2.2434,1.0672),(1.38176,2.3934,1.0672),(0.87376,2.3934,1.9812),(0.87376,2.2434,1.9812),(0.87376,2.3934,1.0672),(0.87376,2.2434,1.0672),(0.87376,2.3934,1.9812),(1.38176,2.3934,1.9812),(0.87376,2.2434,1.9812),(1.38176,2.2434,1.9812),(0.87376,2.2434,1.0672),(1.38176,2.2434,1.0672),(0.87376,2.3934,1.0672),(1.38176,2.3934,1.0672),(0.87376,2.2434,1.9812),(1.38176,2.2434,1.9812),(0.87376,2.2434,1.0672),(1.38176,2.2434,1.0672),(1.38176,2.3934,1.9812),(0.87376,2.3934,1.9812),(1.38176,2.3934,1.0672),(0.87376,2.3934,1.0672)));
#184=IFCTRIANGULATEDFACESET(#183,$,$,((1,3,2),(3,4,2),(5,7,6),(7,8,6),(9,11,10),(11,12,10),(13,15,14),(15,16,14),(17,19,18),(19,20,18),(21,23,22),(23,24,22)),$);
#185=IFCSTYLEDITEM(#184,(#64),'bslq1_enclosure');
#186=IFCCARTESIANPOINTLIST3D(((1.36676,2.2384,1.9662),(1.36676,2.2424,1.9662),(1.36676,2.2384,1.0822),(1.36676,2.2424,1.0822),(0.88876,2.2424,1.9662),(0.88876,2.2384,1.9662),(0.88876,2.2424,1.0822),(0.88876,2.2384,1.0822),(0.88876,2.2424,1.9662),(1.36676,2.2424,1.9662),(0.88876,2.2384,1.9662),(1.36676,2.2384,1.9662),(0.88876,2.2384,1.0822),(1.36676,2.2384,1.0822),(0.88876,2.2424,1.0822),(1.36676,2.2424,1.0822),(0.88876,2.2384,1.9662),(1.36676,2.2384,1.9662),(0.88876,2.2384,1.0822),(1.36676,2.2384,1.0822),(1.36676,2.2424,1.9662),(0.88876,2.2424,1.9662),(1.36676,2.2424,1.0822),(0.88876,2.2424,1.0822)));
#187=IFCTRIANGULATEDFACESET(#186,$,$,((1,3,2),(3,4,2),(5,7,6),(7,8,6),(9,11,10),(11,12,10),(13,15,14),(15,16,14),(17,19,18),(19,20,18),(21,23,22),(23,24,22)),$);
#188=IFCSTYLEDITEM(#187,(#64),'bslq1_door');
#189=IFCCARTESIANPOINTLIST3D(((1.34176,2.2274,1.5592),(1.34176,2.2414,1.5592),(1.34176,2.2274,1.4892),(1.34176,2.2414,1.4892),(1.32176,2.2414,1.5592),(1.32176,2.2274,1.5592),(1.32176,2.2414,1.4892),(1.32176,2.2274,1.4892),(1.32176,2.2414,1.5592),(1.34176,2.2414,1.5592),(1.32176,2.2274,1.5592),(1.34176,2.2274,1.5592),(1.32176,2.2274,1.4892),(1.34176,2.2274,1.4892),(1.32176,2.2414,1.4892),(1.34176,2.2414,1.4892),(1.32176,2.2274,1.5592),(1.34176,2.2274,1.5592),(1.32176,2.2274,1.4892),(1.34176,2.2274,1.4892),(1.34176,2.2414,1.5592),(1.32176,2.2414,1.5592),(1.34176,2.2414,1.4892),(1.32176,2.2414,1.4892)));
#190=IFCTRIANGULATEDFACESET(#189,$,$,((1,3,2),(3,4,2),(5,7,6),(7,8,6),(9,11,10),(11,12,10),(13,15,14),(15,16,14),(17,19,18),(19,20,18),(21,23,22),(23,24,22)),$);
#191=IFCSTYLEDITEM(#190,(#74),'bslq1_latch');
#192=IFCCARTESIANPOINTLIST3D(((1.18276,2.2364,1.9062),(1.18276,2.2384,1.9062),(1.18276,2.2364,1.8762),(1.18276,2.2384,1.8762),(1.07276,2.2384,1.9062),(1.07276,2.2364,1.9062),(1.07276,2.2384,1.8762),(1.07276,2.2364,1.8762),(1.07276,2.2384,1.9062),(1.18276,2.2384,1.9062),(1.07276,2.2364,1.9062),(1.18276,2.2364,1.9062),(1.07276,2.2364,1.8762),(1.18276,2.2364,1.8762),(1.07276,2.2384,1.8762),(1.18276,2.2384,1.8762),(1.07276,2.2364,1.9062),(1.18276,2.2364,1.9062),(1.07276,2.2364,1.8762),(1.18276,2.2364,1.8762),(1.18276,2.2384,1.9062),(1.07276,2.2384,1.9062),(1.18276,2.2384,1.8762),(1.07276,2.2384,1.8762)));
#193=IFCTRIANGULATEDFACESET(#192,$,$,((1,3,2),(3,4,2),(5,7,6),(7,8,6),(9,11,10),(11,12,10),(13,15,14),(15,16,14),(17,19,18),(19,20,18),(21,23,22),(23,24,22)),$);
#194=IFCSTYLEDITEM(#193,(#81),'bslq1_nameplate');
#195=IFCCARTESIANPOINTLIST3D(((0.97826,2.3939,2.1),(0.97826,2.4349,2.1),(0.97826,2.3939,0.),(0.97826,2.4349,0.),(0.93726,2.4349,2.1),(0.93726,2.3939,2.1),(0.93726,2.4349,0.),(0.93726,2.3939,0.),(0.93726,2.4349,2.1),(0.97826,2.4349,2.1),(0.93726,2.3939,2.1),(0.97826,2.3939,2.1),(0.93726,2.3939,0.),(0.97826,2.3939,0.),(0.93726,2.4349,0.),(0.97826,2.4349,0.),(0.93726,2.3939,2.1),(0.97826,2.3939,2.1),(0.93726,2.3939,0.),(0.97826,2.3939,0.),(0.97826,2.4349,2.1),(0.93726,2.4349,2.1),(0.97826,2.4349,0.),(0.93726,2.4349,0.),(1.31826,2.3939,2.1),(1.31826,2.4349,2.1),(1.31826,2.3939,0.),(1.31826,2.4349,0.),(1.27726,2.4349,2.1),(1.27726,2.3939,2.1),(1.27726,2.4349,0.),(1.27726,2.3939,0.),(1.27726,2.4349,2.1),(1.31826,2.4349,2.1),(1.27726,2.3939,2.1),(1.31826,2.3939,2.1),(1.27726,2.3939,0.),(1.31826,2.3939,0.),(1.27726,2.4349,0.),(1.31826,2.4349,0.),(1.27726,2.3939,2.1),(1.31826,2.3939,2.1),(1.27726,2.3939,0.),(1.31826,2.3939,0.),(1.31826,2.4349,2.1),(1.27726,2.4349,2.1),(1.31826,2.4349,0.),(1.27726,2.4349,0.)));
#196=IFCTRIANGULATEDFACESET(#195,$,$,((1,3,2),(3,4,2),(5,7,6),(7,8,6),(9,11,10),(11,12,10),(13,15,14),(15,16,14),(17,19,18),(19,20,18),(21,23,22),(23,24,22),(25,27,26),(27,28,26),(29,31,30),(31,32,30),(33,35,34),(35,36,34),(37,39,38),(39,40,38),(41,43,42),(43,44,42),(45,47,46),(47,48,46)),$);
#197=IFCSTYLEDITEM(#196,(#88),'bslq1_strut_backing');
#198=IFCSHAPEREPRESENTATION(#11,'Body','Tessellation',(#184,#187,#190,#193,#196));
#199=IFCPRODUCTDEFINITIONSHAPE($,$,(#198));
#200=IFCLOCALPLACEMENT(#25,#9);
#201=IFCELECTRICDISTRIBUTIONBOARD('3G3sP66IX_rWVMLu8BB5Vf',#5,'B-SLQ1','Panelboard, 208Y/120 V (verify system); fed from XFMR-B-SLQ1 (run not in BS-EP7-00 \X2\2014\X0\ verify)',$,#200,#199,'B-SLQ1',.DISTRIBUTIONBOARD.);
#202=IFCPROPERTYSINGLEVALUE('PanelName',$,IFCLABEL('B-SLQ1'),$);
#203=IFCPROPERTYSINGLEVALUE('Voltage',$,IFCLABEL('208Y/120 V (verify system)'),$);
#204=IFCPROPERTYSINGLEVALUE('FedFrom',$,IFCLABEL('XFMR-B-SLQ1 (run not in BS-EP7-00 \X2\2014\X0\ verify)'),$);
#205=IFCPROPERTYSINGLEVALUE('FeederRun',$,IFCLABEL('ASSUMED'),$);
#206=IFCPROPERTYSINGLEVALUE('CenterlineFromGrid16BS',$,IFCLENGTHMEASURE(6.30936),$);
#207=IFCPROPERTYSINGLEVALUE('TopOfPanelAFF',$,IFCLENGTHMEASURE(1.9812),$);
#208=IFCPROPERTYSET('3xAp_8ZbvNgE6grHUfwZem',#5,'PanelSchedule',$,(#202,#203,#204,#205,#206,#207));
#209=IFCRELDEFINESBYPROPERTIES('1$Ad0P6N4RqFWUOM4Rqs0P',#5,$,$,(#201),#208);
#210=IFCCARTESIANPOINTLIST3D(((3.905504,2.2434,1.9812),(3.905504,2.3934,1.9812),(3.905504,2.2434,1.0672),(3.905504,2.3934,1.0672),(3.397504,2.3934,1.9812),(3.397504,2.2434,1.9812),(3.397504,2.3934,1.0672),(3.397504,2.2434,1.0672),(3.397504,2.3934,1.9812),(3.905504,2.3934,1.9812),(3.397504,2.2434,1.9812),(3.905504,2.2434,1.9812),(3.397504,2.2434,1.0672),(3.905504,2.2434,1.0672),(3.397504,2.3934,1.0672),(3.905504,2.3934,1.0672),(3.397504,2.2434,1.9812),(3.905504,2.2434,1.9812),(3.397504,2.2434,1.0672),(3.905504,2.2434,1.0672),(3.905504,2.3934,1.9812),(3.397504,2.3934,1.9812),(3.905504,2.3934,1.0672),(3.397504,2.3934,1.0672)));
#211=IFCTRIANGULATEDFACESET(#210,$,$,((1,3,2),(3,4,2),(5,7,6),(7,8,6),(9,11,10),(11,12,10),(13,15,14),(15,16,14),(17,19,18),(19,20,18),(21,23,22),(23,24,22)),$);
#212=IFCSTYLEDITEM(#211,(#64),'bshq1_enclosure');
#213=IFCCARTESIANPOINTLIST3D(((3.890504,2.2384,1.9662),(3.890504,2.2424,1.9662),(3.890504,2.2384,1.0822),(3.890504,2.2424,1.0822),(3.412504,2.2424,1.9662),(3.412504,2.2384,1.9662),(3.412504,2.2424,1.0822),(3.412504,2.2384,1.0822),(3.412504,2.2424,1.9662),(3.890504,2.2424,1.9662),(3.412504,2.2384,1.9662),(3.890504,2.2384,1.9662),(3.412504,2.2384,1.0822),(3.890504,2.2384,1.0822),(3.412504,2.2424,1.0822),(3.890504,2.2424,1.0822),(3.412504,2.2384,1.9662),(3.890504,2.2384,1.9662),(3.412504,2.2384,1.0822),(3.890504,2.2384,1.0822),(3.890504,2.2424,1.9662),(3.412504,2.2424,1.9662),(3.890504,2.2424,1.0822),(3.412504,2.2424,1.0822)));
#214=IFCTRIANGULATEDFACESET(#213,$,$,((1,3,2),(3,4,2),(5,7,6),(7,8,6),(9,11,10),(11,12,10),(13,15,14),(15,16,14),(17,19,18),(19,20,18),(21,23,22),(23,24,22)),$);
#215=IFCSTYLEDITEM(#214,(#64),'bshq1_door');
#216=IFCCARTESIANPOINTLIST3D(((3.865504,2.2274,1.5592),(3.865504,2.2414,1.5592),(3.865504,2.2274,1.4892),(3.865504,2.2414,1.4892),(3.845504,2.2414,1.5592),(3.845504,2.2274,1.5592),(3.845504,2.2414,1.4892),(3.845504,2.2274,1.4892),(3.845504,2.2414,1.5592),(3.865504,2.2414,1.5592),(3.845504,2.2274,1.5592),(3.865504,2.2274,1.5592),(3.845504,2.2274,1.4892),(3.865504,2.2274,1.4892),(3.845504,2.2414,1.4892),(3.865504,2.2414,1.4892),(3.845504,2.2274,1.5592),(3.865504,2.2274,1.5592),(3.845504,2.2274,1.4892),(3.865504,2.2274,1.4892),(3.865504,2.2414,1.5592),(3.845504,2.2414,1.5592),(3.865504,2.2414,1.4892),(3.845504,2.2414,1.4892)));
#217=IFCTRIANGULATEDFACESET(#216,$,$,((1,3,2),(3,4,2),(5,7,6),(7,8,6),(9,11,10),(11,12,10),(13,15,14),(15,16,14),(17,19,18),(19,20,18),(21,23,22),(23,24,22)),$);
#218=IFCSTYLEDITEM(#217,(#74),'bshq1_latch');
#219=IFCCARTESIANPOINTLIST3D(((3.706504,2.2364,1.9062),(3.706504,2.2384,1.9062),(3.706504,2.2364,1.8762),(3.706504,2.2384,1.8762),(3.596504,2.2384,1.9062),(3.596504,2.2364,1.9062),(3.596504,2.2384,1.8762),(3.596504,2.2364,1.8762),(3.596504,2.2384,1.9062),(3.706504,2.2384,1.9062),(3.596504,2.2364,1.9062),(3.706504,2.2364,1.9062),(3.596504,2.2364,1.8762),(3.706504,2.2364,1.8762),(3.596504,2.2384,1.8762),(3.706504,2.2384,1.8762),(3.596504,2.2364,1.9062),(3.706504,2.2364,1.9062),(3.596504,2.2364,1.8762),(3.706504,2.2364,1.8762),(3.706504,2.2384,1.9062),(3.596504,2.2384,1.9062),(3.706504,2.2384,1.8762),(3.596504,2.2384,1.8762)));
#220=IFCTRIANGULATEDFACESET(#219,$,$,((1,3,2),(3,4,2),(5,7,6),(7,8,6),(9,11,10),(11,12,10),(13,15,14),(15,16,14),(17,19,18),(19,20,18),(21,23,22),(23,24,22)),$);
#221=IFCSTYLEDITEM(#220,(#81),'bshq1_nameplate');
#222=IFCCARTESIANPOINTLIST3D(((3.502004,2.3939,2.1),(3.502004,2.4349,2.1),(3.502004,2.3939,0.),(3.502004,2.4349,0.),(3.461004,2.4349,2.1),(3.461004,2.3939,2.1),(3.461004,2.4349,0.),(3.461004,2.3939,0.),(3.461004,2.4349,2.1),(3.502004,2.4349,2.1),(3.461004,2.3939,2.1),(3.502004,2.3939,2.1),(3.461004,2.3939,0.),(3.502004,2.3939,0.),(3.461004,2.4349,0.),(3.502004,2.4349,0.),(3.461004,2.3939,2.1),(3.502004,2.3939,2.1),(3.461004,2.3939,0.),(3.502004,2.3939,0.),(3.502004,2.4349,2.1),(3.461004,2.4349,2.1),(3.502004,2.4349,0.),(3.461004,2.4349,0.),(3.842004,2.3939,2.1),(3.842004,2.4349,2.1),(3.842004,2.3939,0.),(3.842004,2.4349,0.),(3.801004,2.4349,2.1),(3.801004,2.3939,2.1),(3.801004,2.4349,0.),(3.801004,2.3939,0.),(3.801004,2.4349,2.1),(3.842004,2.4349,2.1),(3.801004,2.3939,2.1),(3.842004,2.3939,2.1),(3.801004,2.3939,0.),(3.842004,2.3939,0.),(3.801004,2.4349,0.),(3.842004,2.4349,0.),(3.801004,2.3939,2.1),(3.842004,2.3939,2.1),(3.801004,2.3939,0.),(3.842004,2.3939,0.),(3.842004,2.4349,2.1),(3.801004,2.4349,2.1),(3.842004,2.4349,0.),(3.801004,2.4349,0.)));
#223=IFCTRIANGULATEDFACESET(#222,$,$,((1,3,2),(3,4,2),(5,7,6),(7,8,6),(9,11,10),(11,12,10),(13,15,14),(15,16,14),(17,19,18),(19,20,18),(21,23,22),(23,24,22),(25,27,26),(27,28,26),(29,31,30),(31,32,30),(33,35,34),(35,36,34),(37,39,38),(39,40,38),(41,43,42),(43,44,42),(45,47,46),(47,48,46)),$);
#224=IFCSTYLEDITEM(#223,(#88),'bshq1_strut_backing');
#225=IFCSHAPEREPRESENTATION(#11,'Body','Tessellation',(#211,#214,#217,#220,#223));
#226=IFCPRODUCTDEFINITIONSHAPE($,$,(#225));
#227=IFCLOCALPLACEMENT(#25,#9);
#228=IFCELECTRICDISTRIBUTIONBOARD('2ROiznUzrJyvmqvVQaZ1Am',#5,'B-SHQ1','Panelboard, 480Y/277 V (verify); fed from MDB (run not in BS-EP7-00 \X2\2014\X0\ verify)',$,#227,#226,'B-SHQ1',.DISTRIBUTIONBOARD.);
#229=IFCPROPERTYSINGLEVALUE('PanelName',$,IFCLABEL('B-SHQ1'),$);
#230=IFCPROPERTYSINGLEVALUE('Voltage',$,IFCLABEL('480Y/277 V (verify)'),$);
#231=IFCPROPERTYSINGLEVALUE('FedFrom',$,IFCLABEL('MDB (run not in BS-EP7-00 \X2\2014\X0\ verify)'),$);
#232=IFCPROPERTYSINGLEVALUE('FeederRun',$,IFCLABEL('ASSUMED'),$);
#233=IFCPROPERTYSINGLEVALUE('CenterlineFromGrid16BS',$,IFCLENGTHMEASURE(8.833104),$);
#234=IFCPROPERTYSINGLEVALUE('TopOfPanelAFF',$,IFCLENGTHMEASURE(1.9812),$);
#235=IFCPROPERTYSET('0MEudkiMUplzYyuHkg45w9',#5,'PanelSchedule',$,(#229,#230,#231,#232,#233,#234));
#236=IFCRELDEFINESBYPROPERTIES('3MqM7jFS6JY8ANY0mHztNi',#5,$,$,(#228),#235);
#237=IFCCARTESIANPOINTLIST3D(((-2.58204,-2.3884,0.1),(-2.58204,-1.6784,0.1),(-2.58204,-2.3884,0.),(-2.58204,-1.6784,0.),(-3.39204,-1.6784,0.1),(-3.39204,-2.3884,0.1),(-3.39204,-1.6784,0.),(-3.39204,-2.3884,0.),(-3.39204,-1.6784,0.1),(-2.58204,-1.6784,0.1),(-3.39204,-2.3884,0.1),(-2.58204,-2.3884,0.1),(-3.39204,-2.3884,0.),(-2.58204,-2.3884,0.),(-3.39204,-1.6784,0.),(-2.58204,-1.6784,0.),(-3.39204,-2.3884,0.1),(-2.58204,-2.3884,0.1),(-3.39204,-2.3884,0.),(-2.58204,-2.3884,0.),(-2.58204,-1.6784,0.1),(-3.39204,-1.6784,0.1),(-2.58204,-1.6784,0.),(-3.39204,-1.6784,0.)));
#238=IFCTRIANGULATEDFACESET(#237,$,$,((1,3,2),(3,4,2),(5,7,6),(7,8,6),(9,11,10),(11,12,10),(13,15,14),(15,16,14),(17,19,18),(19,20,18),(21,23,22),(23,24,22)),$);
#239=IFCSTYLEDITEM(#238,(#35),'xfmrlr1_pad');
#240=IFCCARTESIANPOINTLIST3D(((-2.68204,-2.2884,0.86),(-2.68204,-1.7784,0.86),(-2.68204,-2.2884,0.1),(-2.68204,-1.7784,0.1),(-3.29204,-1.7784,0.86),(-3.29204,-2.2884,0.86),(-3.29204,-1.7784,0.1),(-3.29204,-2.2884,0.1),(-3.29204,-1.7784,0.86),(-2.68204,-1.7784,0.86),(-3.29204,-2.2884,0.86),(-2.68204,-2.2884,0.86),(-3.29204,-2.2884,0.1),(-2.68204,-2.2884,0.1),(-3.29204,-1.7784,0.1),(-2.68204,-1.7784,0.1),(-3.29204,-2.2884,0.86),(-2.68204,-2.2884,0.86),(-3.29204,-2.2884,0.1),(-2.68204,-2.2884,0.1),(-2.68204,-1.7784,0.86),(-3.29204,-1.7784,0.86),(-2.68204,-1.7784,0.1),(-3.29204,-1.7784,0.1)));
#241=IFCTRIANGULATEDFACESET(#240,$,$,((1,3,2),(3,4,2),(5,7,6),(7,8,6),(9,11,10),(11,12,10),(13,15,14),(15,16,14),(17,19,18),(19,20,18),(21,23,22),(23,24,22)),$);
#242=IFCSTYLEDITEM(#241,(#64),'xfmrlr1_enclosure');
#243=IFCCARTESIANPOINTLIST3D(((-2.75829,-1.7774,0.226),(-2.75829,-1.7714,0.226),(-2.75829,-1.7774,0.214),(-2.75829,-1.7714,0.214),(-3.21579,-1.7714,0.226),(-3.21579,-1.7774,0.226),(-3.21579,-1.7714,0.214),(-3.21579,-1.7774,0.214),(-3.21579,-1.7714,0.226),(-2.75829,-1.7714,0.226),(-3.21579,-1.7774,0.226),(-2.75829,-1.7774,0.226),(-3.21579,-1.7774,0.214),(-2.75829,-1.7774,0.214),(-3.21579,-1.7714,0.214),(-2.75829,-1.7714,0.214),(-3.21579,-1.7774,0.226),(-2.75829,-1.7774,0.226),(-3.21579,-1.7774,0.214),(-2.75829,-1.7774,0.214),(-2.75829,-1.7714,0.226),(-3.21579,-1.7714,0.226),(-2.75829,-1.7714,0.214),(-3.21579,-1.7714,0.214),(-2.75829,-1.7774,0.256),(-2.75829,-1.7714,0.256),(-2.75829,-1.7774,0.244),(-2.75829,-1.7714,0.244),(-3.21579,-1.7714,0.256),(-3.21579,-1.7774,0.256),(-3.21579,-1.7714,0.244),(-3.21579,-1.7774,0.244),(-3.21579,-1.7714,0.256),(-2.75829,-1.7714,0.256),(-3.21579,-1.7774,0.256),(-2.75829,-1.7774,0.256),(-3.21579,-1.7774,0.244),(-2.75829,-1.7774,0.244),(-3.21579,-1.7714,0.244),(-2.75829,-1.7714,0.244),(-3.21579,-1.7774,0.256),(-2.75829,-1.7774,0.256),(-3.21579,-1.7774,0.244),(-2.75829,-1.7774,0.244),(-2.75829,-1.7714,0.256),(-3.21579,-1.7714,0.256),(-2.75829,-1.7714,0.244),(-3.21579,-1.7714,0.244),(-2.75829,-1.7774,0.286),(-2.75829,-1.7714,0.286),(-2.75829,-1.7774,0.274),(-2.75829,-1.7714,0.274),(-3.21579,-1.7714,0.286),(-3.21579,-1.7774,0.286),(-3.21579,-1.7714,0.274),(-3.21579,-1.7774,0.274),(-3.21579,-1.7714,0.286),(-2.75829,-1.7714,0.286),(-3.21579,-1.7774,0.286),(-2.75829,-1.7774,0.286),(-3.21579,-1.7774,0.274),(-2.75829,-1.7774,0.274),(-3.21579,-1.7714,0.274),(-2.75829,-1.7714,0.274),(-3.21579,-1.7774,0.286),(-2.75829,-1.7774,0.286),(-3.21579,-1.7774,0.274),(-2.75829,-1.7774,0.274),(-2.75829,-1.7714,0.286),(-3.21579,-1.7714,0.286),(-2.75829,-1.7714,0.274),(-3.21579,-1.7714,0.274),(-2.75829,-1.7774,0.316),(-2.75829,-1.7714,0.316),(-2.75829,-1.7774,0.304),(-2.75829,-1.7714,0.304),(-3.21579,-1.7714,0.316),(-3.21579,-1.7774,0.316),(-3.21579,-1.7714,0.304),(-3.21579,-1.7774,0.304),(-3.21579,-1.7714,0.316),(-2.75829,-1.7714,0.316),(-3.21579,-1.7774,0.316),(-2.75829,-1.7774,0.316),(-3.21579,-1.7774,0.304),(-2.75829,-1.7774,0.304),(-3.21579,-1.7714,0.304),(-2.75829,-1.7714,0.304),(-3.21579,-1.7774,0.316),(-2.75829,-1.7774,0.316),(-3.21579,-1.7774,0.304),(-2.75829,-1.7774,0.304),(-2.75829,-1.7714,0.316),(-3.21579,-1.7714,0.316),(-2.75829,-1.7714,0.304),(-3.21579,-1.7714,0.304)));
#244=IFCTRIANGULATEDFACESET(#243,$,$,((1,3,2),(3,4,2),(5,7,6),(7,8,6),(9,11,10),(11,12,10),(13,15,14),(15,16,14),(17,19,18),(19,20,18),(21,23,22),(23,24,22),(25,27,26),(27,28,26),(29,31,30),(31,32,30),(33,35,34),(35,36,34),(37,39,38),(39,40,38),(41,43,42),(43,44,42),(45,47,46),(47,48,46),(49,51,50),(51,52,50),(53,55,54),(55,56,54),(57,59,58),(59,60,58),(61,63,62),(63,64,62),(65,67,66),(67,68,66),(69,71,70),(71,72,70),(73,75,74),(75,76,74),(77,79,78),(79,80,78),(81,83,82),(83,84,82),(85,87,86),(87,88,86),(89,91,90),(91,92,90),(93,95,94),(95,96,94)),$);
#245=IFCSTYLEDITEM(#244,(#74),'xfmrlr1_louvers');
#246=IFCCARTESIANPOINTLIST3D(((-2.92704,-1.7774,0.74),(-2.92704,-1.7754,0.74),(-2.92704,-1.7774,0.7),(-2.92704,-1.7754,0.7),(-3.04704,-1.7754,0.74),(-3.04704,-1.7774,0.74),(-3.04704,-1.7754,0.7),(-3.04704,-1.7774,0.7),(-3.04704,-1.7754,0.74),(-2.92704,-1.7754,0.74),(-3.04704,-1.7774,0.74),(-2.92704,-1.7774,0.74),(-3.04704,-1.7774,0.7),(-2.92704,-1.7774,0.7),(-3.04704,-1.7754,0.7),(-2.92704,-1.7754,0.7),(-3.04704,-1.7774,0.74),(-2.92704,-1.7774,0.74),(-3.04704,-1.7774,0.7),(-2.92704,-1.7774,0.7),(-2.92704,-1.7754,0.74),(-3.04704,-1.7754,0.74),(-2.92704,-1.7754,0.7),(-3.04704,-1.7754,0.7)));
#247=IFCTRIANGULATEDFACESET(#246,$,$,((1,3,2),(3,4,2),(5,7,6),(7,8,6),(9,11,10),(11,12,10),(13,15,14),(15,16,14),(17,19,18),(19,20,18),(21,23,22),(23,24,22)),$);
#248=IFCSTYLEDITEM(#247,(#81),'xfmrlr1_nameplate');
#249=IFCSHAPEREPRESENTATION(#11,'Body','Tessellation',(#238,#241,#244,#247));
#250=IFCPRODUCTDEFINITIONSHAPE($,$,(#249));
#251=IFCLOCALPLACEMENT(#25,#9);
#252=IFCTRANSFORMER('3ZGqadb7cqrHWdSOgOJ5IP',#5,'XFMR-LR1','45 kVA dry-type, 480 V delta \X2\2013\X0\ 208Y/120 V, feeds B-LR1; location assumed pending BS-EQ1-01-E callout geometry',$,#251,#250,'XFMR-LR1',.VOLTAGE.);
#253=IFCPROPERTYSINGLEVALUE('RatingkVA',$,IFCREAL(45.),$);
#254=IFCPROPERTYSINGLEVALUE('Primary',$,IFCLABEL('480 V delta'),$);
#255=IFCPROPERTYSINGLEVALUE('Secondary',$,IFCLABEL('208Y/120 V'),$);
#256=IFCPROPERTYSINGLEVALUE('Feeds',$,IFCLABEL('B-LR1'),$);
#257=IFCPROPERTYSINGLEVALUE('LocationStatus',$,IFCLABEL('ASSUMED \X2\2014\X0\ VERIFY'),$);
#258=IFCPROPERTYSET('3OeL$1QER9FYZGEoSnV6SX',#5,'TransformerSchedule',$,(#253,#254,#255,#256,#257));
#259=IFCRELDEFINESBYPROPERTIES('2fqumhTks7gWSKPELV$_3J',#5,$,$,(#252),#258);
#260=IFCCARTESIANPOINTLIST3D(((0.03924,-2.3884,0.1),(0.03924,-1.6784,0.1),(0.03924,-2.3884,0.),(0.03924,-1.6784,0.),(-0.77076,-1.6784,0.1),(-0.77076,-2.3884,0.1),(-0.77076,-1.6784,0.),(-0.77076,-2.3884,0.),(-0.77076,-1.6784,0.1),(0.03924,-1.6784,0.1),(-0.77076,-2.3884,0.1),(0.03924,-2.3884,0.1),(-0.77076,-2.3884,0.),(0.03924,-2.3884,0.),(-0.77076,-1.6784,0.),(0.03924,-1.6784,0.),(-0.77076,-2.3884,0.1),(0.03924,-2.3884,0.1),(-0.77076,-2.3884,0.),(0.03924,-2.3884,0.),(0.03924,-1.6784,0.1),(-0.77076,-1.6784,0.1),(0.03924,-1.6784,0.),(-0.77076,-1.6784,0.)));
#261=IFCTRIANGULATEDFACESET(#260,$,$,((1,3,2),(3,4,2),(5,7,6),(7,8,6),(9,11,10),(11,12,10),(13,15,14),(15,16,14),(17,19,18),(19,20,18),(21,23,22),(23,24,22)),$);
#262=IFCSTYLEDITEM(#261,(#35),'xfmrlq1_pad');
#263=IFCCARTESIANPOINTLIST3D(((-0.06076,-2.2884,0.86),(-0.06076,-1.7784,0.86),(-0.06076,-2.2884,0.1),(-0.06076,-1.7784,0.1),(-0.67076,-1.7784,0.86),(-0.67076,-2.2884,0.86),(-0.67076,-1.7784,0.1),(-0.67076,-2.2884,0.1),(-0.67076,-1.7784,0.86),(-0.06076,-1.7784,0.86),(-0.67076,-2.2884,0.86),(-0.06076,-2.2884,0.86),(-0.67076,-2.2884,0.1),(-0.06076,-2.2884,0.1),(-0.67076,-1.7784,0.1),(-0.06076,-1.7784,0.1),(-0.67076,-2.2884,0.86),(-0.06076,-2.2884,0.86),(-0.67076,-2.2884,0.1),(-0.06076,-2.2884,0.1),(-0.06076,-1.7784,0.86),(-0.67076,-1.7784,0.86),(-0.06076,-1.7784,0.1),(-0.67076,-1.7784,0.1)));
#264=IFCTRIANGULATEDFACESET(#263,$,$,((1,3,2),(3,4,2),(5,7,6),(7,8,6),(9,11,10),(11,12,10),(13,15,14),(15,16,14),(17,19,18),(19,20,18),(21,23,22),(23,24,22)),$);
#265=IFCSTYLEDITEM(#264,(#64),'xfmrlq1_enclosure');
#266=IFCCARTESIANPOINTLIST3D(((-0.13701,-1.7774,0.226),(-0.13701,-1.7714,0.226),(-0.13701,-1.7774,0.214),(-0.13701,-1.7714,0.214),(-0.59451,-1.7714,0.226),(-0.59451,-1.7774,0.226),(-0.59451,-1.7714,0.214),(-0.59451,-1.7774,0.214),(-0.59451,-1.7714,0.226),(-0.13701,-1.7714,0.226),(-0.59451,-1.7774,0.226),(-0.13701,-1.7774,0.226),(-0.59451,-1.7774,0.214),(-0.13701,-1.7774,0.214),(-0.59451,-1.7714,0.214),(-0.13701,-1.7714,0.214),(-0.59451,-1.7774,0.226),(-0.13701,-1.7774,0.226),(-0.59451,-1.7774,0.214),(-0.13701,-1.7774,0.214),(-0.13701,-1.7714,0.226),(-0.59451,-1.7714,0.226),(-0.13701,-1.7714,0.214),(-0.59451,-1.7714,0.214),(-0.13701,-1.7774,0.256),(-0.13701,-1.7714,0.256),(-0.13701,-1.7774,0.244),(-0.13701,-1.7714,0.244),(-0.59451,-1.7714,0.256),(-0.59451,-1.7774,0.256),(-0.59451,-1.7714,0.244),(-0.59451,-1.7774,0.244),(-0.59451,-1.7714,0.256),(-0.13701,-1.7714,0.256),(-0.59451,-1.7774,0.256),(-0.13701,-1.7774,0.256),(-0.59451,-1.7774,0.244),(-0.13701,-1.7774,0.244),(-0.59451,-1.7714,0.244),(-0.13701,-1.7714,0.244),(-0.59451,-1.7774,0.256),(-0.13701,-1.7774,0.256),(-0.59451,-1.7774,0.244),(-0.13701,-1.7774,0.244),(-0.13701,-1.7714,0.256),(-0.59451,-1.7714,0.256),(-0.13701,-1.7714,0.244),(-0.59451,-1.7714,0.244),(-0.13701,-1.7774,0.286),(-0.13701,-1.7714,0.286),(-0.13701,-1.7774,0.274),(-0.13701,-1.7714,0.274),(-0.59451,-1.7714,0.286),(-0.59451,-1.7774,0.286),(-0.59451,-1.7714,0.274),(-0.59451,-1.7774,0.274),(-0.59451,-1.7714,0.286),(-0.13701,-1.7714,0.286),(-0.59451,-1.7774,0.286),(-0.13701,-1.7774,0.286),(-0.59451,-1.7774,0.274),(-0.13701,-1.7774,0.274),(-0.59451,-1.7714,0.274),(-0.13701,-1.7714,0.274),(-0.59451,-1.7774,0.286),(-0.13701,-1.7774,0.286),(-0.59451,-1.7774,0.274),(-0.13701,-1.7774,0.274),(-0.13701,-1.7714,0.286),(-0.59451,-1.7714,0.286),(-0.13701,-1.7714,0.274),(-0.59451,-1.7714,0.274),(-0.13701,-1.7774,0.316),(-0.13701,-1.7714,0.316),(-0.13701,-1.7774,0.304),(-0.13701,-1.7714,0.304),(-0.59451,-1.7714,0.316),(-0.59451,-1.7774,0.316),(-0.59451,-1.7714,0.304),(-0.59451,-1.7774,0.304),(-0.59451,-1.7714,0.316),(-0.13701,-1.7714,0.316),(-0.59451,-1.7774,0.316),(-0.13701,-1.7774,0.316),(-0.59451,-1.7774,0.304),(-0.13701,-1.7774,0.304),(-0.59451,-1.7714,0.304),(-0.13701,-1.7714,0.304),(-0.59451,-1.7774,0.316),(-0.13701,-1.7774,0.316),(-0.59451,-1.7774,0.304),(-0.13701,-1.7774,0.304),(-0.13701,-1.7714,0.316),(-0.59451,-1.7714,0.316),(-0.13701,-1.7714,0.304),(-0.59451,-1.7714,0.304)));
#267=IFCTRIANGULATEDFACESET(#266,$,$,((1,3,2),(3,4,2),(5,7,6),(7,8,6),(9,11,10),(11,12,10),(13,15,14),(15,16,14),(17,19,18),(19,20,18),(21,23,22),(23,24,22),(25,27,26),(27,28,26),(29,31,30),(31,32,30),(33,35,34),(35,36,34),(37,39,38),(39,40,38),(41,43,42),(43,44,42),(45,47,46),(47,48,46),(49,51,50),(51,52,50),(53,55,54),(55,56,54),(57,59,58),(59,60,58),(61,63,62),(63,64,62),(65,67,66),(67,68,66),(69,71,70),(71,72,70),(73,75,74),(75,76,74),(77,79,78),(79,80,78),(81,83,82),(83,84,82),(85,87,86),(87,88,86),(89,91,90),(91,92,90),(93,95,94),(95,96,94)),$);
#268=IFCSTYLEDITEM(#267,(#74),'xfmrlq1_louvers');
#269=IFCCARTESIANPOINTLIST3D(((-0.30576,-1.7774,0.74),(-0.30576,-1.7754,0.74),(-0.30576,-1.7774,0.7),(-0.30576,-1.7754,0.7),(-0.42576,-1.7754,0.74),(-0.42576,-1.7774,0.74),(-0.42576,-1.7754,0.7),(-0.42576,-1.7774,0.7),(-0.42576,-1.7754,0.74),(-0.30576,-1.7754,0.74),(-0.42576,-1.7774,0.74),(-0.30576,-1.7774,0.74),(-0.42576,-1.7774,0.7),(-0.30576,-1.7774,0.7),(-0.42576,-1.7754,0.7),(-0.30576,-1.7754,0.7),(-0.42576,-1.7774,0.74),(-0.30576,-1.7774,0.74),(-0.42576,-1.7774,0.7),(-0.30576,-1.7774,0.7),(-0.30576,-1.7754,0.74),(-0.42576,-1.7754,0.74),(-0.30576,-1.7754,0.7),(-0.42576,-1.7754,0.7)));
#270=IFCTRIANGULATEDFACESET(#269,$,$,((1,3,2),(3,4,2),(5,7,6),(7,8,6),(9,11,10),(11,12,10),(13,15,14),(15,16,14),(17,19,18),(19,20,18),(21,23,22),(23,24,22)),$);
#271=IFCSTYLEDITEM(#270,(#81),'xfmrlq1_nameplate');
#272=IFCSHAPEREPRESENTATION(#11,'Body','Tessellation',(#261,#264,#267,#270));
#273=IFCPRODUCTDEFINITIONSHAPE($,$,(#272));
#274=IFCLOCALPLACEMENT(#25,#9);
#275=IFCTRANSFORMER('1GSig9yRHZTFmNw4W2rrkJ',#5,'XFMR-LQ1','45 kVA dry-type, 480 V delta \X2\2013\X0\ 208Y/120 V, feeds B-LQ1; location assumed pending BS-EQ1-01-E callout geometry',$,#274,#273,'XFMR-LQ1',.VOLTAGE.);
#276=IFCPROPERTYSINGLEVALUE('RatingkVA',$,IFCREAL(45.),$);
#277=IFCPROPERTYSINGLEVALUE('Primary',$,IFCLABEL('480 V delta'),$);
#278=IFCPROPERTYSINGLEVALUE('Secondary',$,IFCLABEL('208Y/120 V'),$);
#279=IFCPROPERTYSINGLEVALUE('Feeds',$,IFCLABEL('B-LQ1'),$);
#280=IFCPROPERTYSINGLEVALUE('LocationStatus',$,IFCLABEL('ASSUMED \X2\2014\X0\ VERIFY'),$);
#281=IFCPROPERTYSET('2$QYnwTdUTHxY1RBMb6KjE',#5,'TransformerSchedule',$,(#276,#277,#278,#279,#280));
#282=IFCRELDEFINESBYPROPERTIES('3ranWTSWehcjYcMBQzi2nj',#5,$,$,(#275),#281);
#283=IFCCARTESIANPOINTLIST3D(((2.11188,-2.3884,0.1),(2.11188,-1.6784,0.1),(2.11188,-2.3884,0.),(2.11188,-1.6784,0.),(1.30188,-1.6784,0.1),(1.30188,-2.3884,0.1),(1.30188,-1.6784,0.),(1.30188,-2.3884,0.),(1.30188,-1.6784,0.1),(2.11188,-1.6784,0.1),(1.30188,-2.3884,0.1),(2.11188,-2.3884,0.1),(1.30188,-2.3884,0.),(2.11188,-2.3884,0.),(1.30188,-1.6784,0.),(2.11188,-1.6784,0.),(1.30188,-2.3884,0.1),(2.11188,-2.3884,0.1),(1.30188,-2.3884,0.),(2.11188,-2.3884,0.),(2.11188,-1.6784,0.1),(1.30188,-1.6784,0.1),(2.11188,-1.6784,0.),(1.30188,-1.6784,0.)));
#284=IFCTRIANGULATEDFACESET(#283,$,$,((1,3,2),(3,4,2),(5,7,6),(7,8,6),(9,11,10),(11,12,10),(13,15,14),(15,16,14),(17,19,18),(19,20,18),(21,23,22),(23,24,22)),$);
#285=IFCSTYLEDITEM(#284,(#35),'xfmrbslq1_pad');
#286=IFCCARTESIANPOINTLIST3D(((2.01188,-2.2884,0.86),(2.01188,-1.7784,0.86),(2.01188,-2.2884,0.1),(2.01188,-1.7784,0.1),(1.40188,-1.7784,0.86),(1.40188,-2.2884,0.86),(1.40188,-1.7784,0.1),(1.40188,-2.2884,0.1),(1.40188,-1.7784,0.86),(2.01188,-1.7784,0.86),(1.40188,-2.2884,0.86),(2.01188,-2.2884,0.86),(1.40188,-2.2884,0.1),(2.01188,-2.2884,0.1),(1.40188,-1.7784,0.1),(2.01188,-1.7784,0.1),(1.40188,-2.2884,0.86),(2.01188,-2.2884,0.86),(1.40188,-2.2884,0.1),(2.01188,-2.2884,0.1),(2.01188,-1.7784,0.86),(1.40188,-1.7784,0.86),(2.01188,-1.7784,0.1),(1.40188,-1.7784,0.1)));
#287=IFCTRIANGULATEDFACESET(#286,$,$,((1,3,2),(3,4,2),(5,7,6),(7,8,6),(9,11,10),(11,12,10),(13,15,14),(15,16,14),(17,19,18),(19,20,18),(21,23,22),(23,24,22)),$);
#288=IFCSTYLEDITEM(#287,(#64),'xfmrbslq1_enclosure');
#289=IFCCARTESIANPOINTLIST3D(((1.93563,-1.7774,0.226),(1.93563,-1.7714,0.226),(1.93563,-1.7774,0.214),(1.93563,-1.7714,0.214),(1.47813,-1.7714,0.226),(1.47813,-1.7774,0.226),(1.47813,-1.7714,0.214),(1.47813,-1.7774,0.214),(1.47813,-1.7714,0.226),(1.93563,-1.7714,0.226),(1.47813,-1.7774,0.226),(1.93563,-1.7774,0.226),(1.47813,-1.7774,0.214),(1.93563,-1.7774,0.214),(1.47813,-1.7714,0.214),(1.93563,-1.7714,0.214),(1.47813,-1.7774,0.226),(1.93563,-1.7774,0.226),(1.47813,-1.7774,0.214),(1.93563,-1.7774,0.214),(1.93563,-1.7714,0.226),(1.47813,-1.7714,0.226),(1.93563,-1.7714,0.214),(1.47813,-1.7714,0.214),(1.93563,-1.7774,0.256),(1.93563,-1.7714,0.256),(1.93563,-1.7774,0.244),(1.93563,-1.7714,0.244),(1.47813,-1.7714,0.256),(1.47813,-1.7774,0.256),(1.47813,-1.7714,0.244),(1.47813,-1.7774,0.244),(1.47813,-1.7714,0.256),(1.93563,-1.7714,0.256),(1.47813,-1.7774,0.256),(1.93563,-1.7774,0.256),(1.47813,-1.7774,0.244),(1.93563,-1.7774,0.244),(1.47813,-1.7714,0.244),(1.93563,-1.7714,0.244),(1.47813,-1.7774,0.256),(1.93563,-1.7774,0.256),(1.47813,-1.7774,0.244),(1.93563,-1.7774,0.244),(1.93563,-1.7714,0.256),(1.47813,-1.7714,0.256),(1.93563,-1.7714,0.244),(1.47813,-1.7714,0.244),(1.93563,-1.7774,0.286),(1.93563,-1.7714,0.286),(1.93563,-1.7774,0.274),(1.93563,-1.7714,0.274),(1.47813,-1.7714,0.286),(1.47813,-1.7774,0.286),(1.47813,-1.7714,0.274),(1.47813,-1.7774,0.274),(1.47813,-1.7714,0.286),(1.93563,-1.7714,0.286),(1.47813,-1.7774,0.286),(1.93563,-1.7774,0.286),(1.47813,-1.7774,0.274),(1.93563,-1.7774,0.274),(1.47813,-1.7714,0.274),(1.93563,-1.7714,0.274),(1.47813,-1.7774,0.286),(1.93563,-1.7774,0.286),(1.47813,-1.7774,0.274),(1.93563,-1.7774,0.274),(1.93563,-1.7714,0.286),(1.47813,-1.7714,0.286),(1.93563,-1.7714,0.274),(1.47813,-1.7714,0.274),(1.93563,-1.7774,0.316),(1.93563,-1.7714,0.316),(1.93563,-1.7774,0.304),(1.93563,-1.7714,0.304),(1.47813,-1.7714,0.316),(1.47813,-1.7774,0.316),(1.47813,-1.7714,0.304),(1.47813,-1.7774,0.304),(1.47813,-1.7714,0.316),(1.93563,-1.7714,0.316),(1.47813,-1.7774,0.316),(1.93563,-1.7774,0.316),(1.47813,-1.7774,0.304),(1.93563,-1.7774,0.304),(1.47813,-1.7714,0.304),(1.93563,-1.7714,0.304),(1.47813,-1.7774,0.316),(1.93563,-1.7774,0.316),(1.47813,-1.7774,0.304),(1.93563,-1.7774,0.304),(1.93563,-1.7714,0.316),(1.47813,-1.7714,0.316),(1.93563,-1.7714,0.304),(1.47813,-1.7714,0.304)));
#290=IFCTRIANGULATEDFACESET(#289,$,$,((1,3,2),(3,4,2),(5,7,6),(7,8,6),(9,11,10),(11,12,10),(13,15,14),(15,16,14),(17,19,18),(19,20,18),(21,23,22),(23,24,22),(25,27,26),(27,28,26),(29,31,30),(31,32,30),(33,35,34),(35,36,34),(37,39,38),(39,40,38),(41,43,42),(43,44,42),(45,47,46),(47,48,46),(49,51,50),(51,52,50),(53,55,54),(55,56,54),(57,59,58),(59,60,58),(61,63,62),(63,64,62),(65,67,66),(67,68,66),(69,71,70),(71,72,70),(73,75,74),(75,76,74),(77,79,78),(79,80,78),(81,83,82),(83,84,82),(85,87,86),(87,88,86),(89,91,90),(91,92,90),(93,95,94),(95,96,94)),$);
#291=IFCSTYLEDITEM(#290,(#74),'xfmrbslq1_louvers');
#292=IFCCARTESIANPOINTLIST3D(((1.76688,-1.7774,0.74),(1.76688,-1.7754,0.74),(1.76688,-1.7774,0.7),(1.76688,-1.7754,0.7),(1.64688,-1.7754,0.74),(1.64688,-1.7774,0.74),(1.64688,-1.7754,0.7),(1.64688,-1.7774,0.7),(1.64688,-1.7754,0.74),(1.76688,-1.7754,0.74),(1.64688,-1.7774,0.74),(1.76688,-1.7774,0.74),(1.64688,-1.7774,0.7),(1.76688,-1.7774,0.7),(1.64688,-1.7754,0.7),(1.76688,-1.7754,0.7),(1.64688,-1.7774,0.74),(1.76688,-1.7774,0.74),(1.64688,-1.7774,0.7),(1.76688,-1.7774,0.7),(1.76688,-1.7754,0.74),(1.64688,-1.7754,0.74),(1.76688,-1.7754,0.7),(1.64688,-1.7754,0.7)));
#293=IFCTRIANGULATEDFACESET(#292,$,$,((1,3,2),(3,4,2),(5,7,6),(7,8,6),(9,11,10),(11,12,10),(13,15,14),(15,16,14),(17,19,18),(19,20,18),(21,23,22),(23,24,22)),$);
#294=IFCSTYLEDITEM(#293,(#81),'xfmrbslq1_nameplate');
#295=IFCSHAPEREPRESENTATION(#11,'Body','Tessellation',(#284,#287,#290,#293));
#296=IFCPRODUCTDEFINITIONSHAPE($,$,(#295));
#297=IFCLOCALPLACEMENT(#25,#9);
#298=IFCTRANSFORMER('1FngqFXpqY8UAT7YnXTYfU',#5,'XFMR-B-SLQ1','45 kVA dry-type, 480 V delta \X2\2013\X0\ 208Y/120 V, feeds B-SLQ1; location assumed pending BS-EQ1-01-E callout geometry',$,#297,#296,'XFMR-B-SLQ1',.VOLTAGE.);
#299=IFCPROPERTYSINGLEVALUE('RatingkVA',$,IFCREAL(45.),$);
#300=IFCPROPERTYSINGLEVALUE('Primary',$,IFCLABEL('480 V delta'),$);
#301=IFCPROPERTYSINGLEVALUE('Secondary',$,IFCLABEL('208Y/120 V'),$);
#302=IFCPROPERTYSINGLEVALUE('Feeds',$,IFCLABEL('B-SLQ1'),$);
#303=IFCPROPERTYSINGLEVALUE('LocationStatus',$,IFCLABEL('ASSUMED \X2\2014\X0\ VERIFY'),$);
#304=IFCPROPERTYSET('2yv09qbKhQdpU7Qu6R3dxn',#5,'TransformerSchedule',$,(#299,#300,#301,#302,#303));
#305=IFCRELDEFINESBYPROPERTIES('0TFQMYarG9hKFBJeKoetpF',#5,$,$,(#298),#304);
#306=IFCCARTESIANPOINTLIST3D(((-4.2467,0.2884,4.9897),(-4.2467,1.8084,4.9897),(-4.2467,0.2884,4.9487),(-4.2467,1.8084,4.9487),(-4.2877,1.8084,4.9897),(-4.2877,0.2884,4.9897),(-4.2877,1.8084,4.9487),(-4.2877,0.2884,4.9487),(-4.2877,1.8084,4.9897),(-4.2467,1.8084,4.9897),(-4.2877,0.2884,4.9897),(-4.2467,0.2884,4.9897),(-4.2877,0.2884,4.9487),(-4.2467,0.2884,4.9487),(-4.2877,1.8084,4.9487),(-4.2467,1.8084,4.9487),(-4.2877,0.2884,4.9897),(-4.2467,0.2884,4.9897),(-4.2877,0.2884,4.9487),(-4.2467,0.2884,4.9487),(-4.2467,1.8084,4.9897),(-4.2877,1.8084,4.9897),(-4.2467,1.8084,4.9487),(-4.2877,1.8084,4.9487),(-4.2672,1.7524,6.00456),(-4.262958,1.754157,6.00456),(-4.2612,1.7584,6.00456),(-4.262958,1.762643,6.00456),(-4.2672,1.7644,6.00456),(-4.271442,1.762643,6.00456),(-4.2732,1.7584,6.00456),(-4.271442,1.754157,6.00456),(-4.2672,1.7524,6.00456),(-4.2672,1.7524,4.9692),(-4.262958,1.754157,4.9692),(-4.2612,1.7584,4.9692),(-4.262958,1.762643,4.9692),(-4.2672,1.7644,4.9692),(-4.271442,1.762643,4.9692),(-4.2732,1.7584,4.9692),(-4.271442,1.754157,4.9692),(-4.2672,1.7524,4.9692),(-4.2672,1.7584,6.00456),(-4.2672,1.7584,6.00456),(-4.2672,1.7584,6.00456),(-4.2672,1.7584,6.00456),(-4.2672,1.7584,6.00456),(-4.2672,1.7584,6.00456),(-4.2672,1.7584,6.00456),(-4.2672,1.7584,6.00456),(-4.2672,1.7524,6.00456),(-4.262958,1.754157,6.00456),(-4.2612,1.7584,6.00456),(-4.262958,1.762643,6.00456),(-4.2672,1.7644,6.00456),(-4.271442,1.762643,6.00456),(-4.2732,1.7584,6.00456),(-4.271442,1.754157,6.00456),(-4.2672,1.7524,6.00456),(-4.2672,1.7584,4.9692),(-4.2672,1.7584,4.9692),(-4.2672,1.7584,4.9692),(-4.2672,1.7584,4.9692),(-4.2672,1.7584,4.9692),(-4.2672,1.7584,4.9692),(-4.2672,1.7584,4.9692),(-4.2672,1.7584,4.9692),(-4.2672,1.7524,4.9692),(-4.262958,1.754157,4.9692),(-4.2612,1.7584,4.9692),(-4.262958,1.762643,4.9692),(-4.2672,1.7644,4.9692),(-4.271442,1.762643,4.9692),(-4.2732,1.7584,4.9692),(-4.271442,1.754157,4.9692),(-4.2672,1.7524,4.9692),(-4.2672,0.3324,6.00456),(-4.262958,0.334157,6.00456),(-4.2612,0.3384,6.00456),(-4.262958,0.342643,6.00456),(-4.2672,0.3444,6.00456),(-4.271442,0.342643,6.00456),(-4.2732,0.3384,6.00456),(-4.271442,0.334157,6.00456),(-4.2672,0.3324,6.00456),(-4.2672,0.3324,4.9692),(-4.262958,0.334157,4.9692),(-4.2612,0.3384,4.9692),(-4.262958,0.342643,4.9692),(-4.2672,0.3444,4.9692),(-4.271442,0.342643,4.9692),(-4.2732,0.3384,4.9692),(-4.271442,0.334157,4.9692),(-4.2672,0.3324,4.9692),(-4.2672,0.3384,6.00456),(-4.2672,0.3384,6.00456),(-4.2672,0.3384,6.00456),(-4.2672,0.3384,6.00456),(-4.2672,0.3384,6.00456),(-4.2672,0.3384,6.00456),(-4.2672,0.3384,6.00456),(-4.2672,0.3384,6.00456),(-4.2672,0.3324,6.00456),(-4.262958,0.334157,6.00456),(-4.2612,0.3384,6.00456),(-4.262958,0.342643,6.00456),(-4.2672,0.3444,6.00456),(-4.271442,0.342643,6.00456),(-4.2732,0.3384,6.00456),(-4.271442,0.334157,6.00456),(-4.2672,0.3324,6.00456),(-4.2672,0.3384,4.9692),(-4.2672,0.3384,4.9692),(-4.2672,0.3384,4.9692),(-4.2672,0.3384,4.9692),(-4.2672,0.3384,4.9692),(-4.2672,0.3384,4.9692),(-4.2672,0.3384,4.9692),(-4.2672,0.3384,4.9692),(-4.2672,0.3324,4.9692),(-4.262958,0.334157,4.9692),(-4.2612,0.3384,4.9692),(-4.262958,0.342643,4.9692),(-4.2672,0.3444,4.9692),(-4.271442,0.342643,4.9692),(-4.2732,0.3384,4.9692),(-4.271442,0.334157,4.9692),(-4.2672,0.3324,4.9692),(-4.2372,1.7284,6.02456),(-4.2372,1.7884,6.02456),(-4.2372,1.7284,6.00456),(-4.2372,1.7884,6.00456),(-4.2972,1.7884,6.02456),(-4.2972,1.7284,6.02456),(-4.2972,1.7884,6.00456),(-4.2972,1.7284,6.00456),(-4.2972,1.7884,6.02456),(-4.2372,1.7884,6.02456),(-4.2972,1.7284,6.02456),(-4.2372,1.7284,6.02456),(-4.2972,1.7284,6.00456),(-4.2372,1.7284,6.00456),(-4.2972,1.7884,6.00456),(-4.2372,1.7884,6.00456),(-4.2972,1.7284,6.02456),(-4.2372,1.7284,6.02456),(-4.2972,1.7284,6.00456),(-4.2372,1.7284,6.00456),(-4.2372,1.7884,6.02456),(-4.2972,1.7884,6.02456),(-4.2372,1.7884,6.00456),(-4.2972,1.7884,6.00456),(-4.2372,0.3084,6.02456),(-4.2372,0.3684,6.02456),(-4.2372,0.3084,6.00456),(-4.2372,0.3684,6.00456),(-4.2972,0.3684,6.02456),(-4.2972,0.3084,6.02456),(-4.2972,0.3684,6.00456),(-4.2972,0.3084,6.00456),(-4.2972,0.3684,6.02456),(-4.2372,0.3684,6.02456),(-4.2972,0.3084,6.02456),(-4.2372,0.3084,6.02456),(-4.2972,0.3084,6.00456),(-4.2372,0.3084,6.00456),(-4.2972,0.3684,6.00456),(-4.2372,0.3684,6.00456),(-4.2972,0.3084,6.02456),(-4.2372,0.3084,6.02456),(-4.2972,0.3084,6.00456),(-4.2372,0.3084,6.00456),(-4.2372,0.3684,6.02456),(-4.2972,0.3684,6.02456),(-4.2372,0.3684,6.00456),(-4.2972,0.3684,6.00456)));
#307=IFCTRIANGULATEDFACESET(#306,$,$,((1,3,2),(3,4,2),(5,7,6),(7,8,6),(9,11,10),(11,12,10),(13,15,14),(15,16,14),(17,19,18),(19,20,18),(21,23,22),(23,24,22),(25,34,26),(34,35,26),(26,35,27),(35,36,27),(27,36,28),(36,37,28),(28,37,29),(37,38,29),(29,38,30),(38,39,30),(30,39,31),(39,40,31),(31,40,32),(40,41,32),(32,41,33),(41,42,33),(51,52,43),(52,53,44),(53,54,45),(54,55,46),(55,56,47),(56,57,48),(57,58,49),(58,59,50),(69,68,60),(70,69,61),(71,70,62),(72,71,63),(73,72,64),(74,73,65),(75,74,66),(76,75,67),(77,86,78),(86,87,78),(78,87,79),(87,88,79),(79,88,80),(88,89,80),(80,89,81),(89,90,81),(81,90,82),(90,91,82),(82,91,83),(91,92,83),(83,92,84),(92,93,84),(84,93,85),(93,94,85),(103,104,95),(104,105,96),(105,106,97),(106,107,98),(107,108,99),(108,109,100),(109,110,101),(110,111,102),(121,120,112),(122,121,113),(123,122,114),(124,123,115),(125,124,116),(126,125,117),(127,126,118),(128,127,119),(129,131,130),(131,132,130),(133,135,134),(135,136,134),(137,139,138),(139,140,138),(141,143,142),(143,144,142),(145,147,146),(147,148,146),(149,151,150),(151,152,150),(153,155,154),(155,156,154),(157,159,158),(159,160,158),(161,163,162),(163,164,162),(165,167,166),(167,168,166),(169,171,170),(171,172,170),(173,175,174),(175,176,174)),$);
#308=IFCSTYLEDITEM(#307,(#88),'trapeze_01');
#309=IFCCARTESIANPOINTLIST3D(((-1.8083,0.2884,4.9897),(-1.8083,1.8084,4.9897),(-1.8083,0.2884,4.9487),(-1.8083,1.8084,4.9487),(-1.8493,1.8084,4.9897),(-1.8493,0.2884,4.9897),(-1.8493,1.8084,4.9487),(-1.8493,0.2884,4.9487),(-1.8493,1.8084,4.9897),(-1.8083,1.8084,4.9897),(-1.8493,0.2884,4.9897),(-1.8083,0.2884,4.9897),(-1.8493,0.2884,4.9487),(-1.8083,0.2884,4.9487),(-1.8493,1.8084,4.9487),(-1.8083,1.8084,4.9487),(-1.8493,0.2884,4.9897),(-1.8083,0.2884,4.9897),(-1.8493,0.2884,4.9487),(-1.8083,0.2884,4.9487),(-1.8083,1.8084,4.9897),(-1.8493,1.8084,4.9897),(-1.8083,1.8084,4.9487),(-1.8493,1.8084,4.9487),(-1.8288,1.7524,6.00456),(-1.824557,1.754157,6.00456),(-1.8228,1.7584,6.00456),(-1.824557,1.762643,6.00456),(-1.8288,1.7644,6.00456),(-1.833043,1.762643,6.00456),(-1.8348,1.7584,6.00456),(-1.833043,1.754157,6.00456),(-1.8288,1.7524,6.00456),(-1.8288,1.7524,4.9692),(-1.824557,1.754157,4.9692),(-1.8228,1.7584,4.9692),(-1.824557,1.762643,4.9692),(-1.8288,1.7644,4.9692),(-1.833043,1.762643,4.9692),(-1.8348,1.7584,4.9692),(-1.833043,1.754157,4.9692),(-1.8288,1.7524,4.9692),(-1.8288,1.7584,6.00456),(-1.8288,1.7584,6.00456),(-1.8288,1.7584,6.00456),(-1.8288,1.7584,6.00456),(-1.8288,1.7584,6.00456),(-1.8288,1.7584,6.00456),(-1.8288,1.7584,6.00456),(-1.8288,1.7584,6.00456),(-1.8288,1.7524,6.00456),(-1.824557,1.754157,6.00456),(-1.8228,1.7584,6.00456),(-1.824557,1.762643,6.00456),(-1.8288,1.7644,6.00456),(-1.833043,1.762643,6.00456),(-1.8348,1.7584,6.00456),(-1.833043,1.754157,6.00456),(-1.8288,1.7524,6.00456),(-1.8288,1.7584,4.9692),(-1.8288,1.7584,4.9692),(-1.8288,1.7584,4.9692),(-1.8288,1.7584,4.9692),(-1.8288,1.7584,4.9692),(-1.8288,1.7584,4.9692),(-1.8288,1.7584,4.9692),(-1.8288,1.7584,4.9692),(-1.8288,1.7524,4.9692),(-1.824557,1.754157,4.9692),(-1.8228,1.7584,4.9692),(-1.824557,1.762643,4.9692),(-1.8288,1.7644,4.9692),(-1.833043,1.762643,4.9692),(-1.8348,1.7584,4.9692),(-1.833043,1.754157,4.9692),(-1.8288,1.7524,4.9692),(-1.8288,0.3324,6.00456),(-1.824557,0.334157,6.00456),(-1.8228,0.3384,6.00456),(-1.824557,0.342643,6.00456),(-1.8288,0.3444,6.00456),(-1.833043,0.342643,6.00456),(-1.8348,0.3384,6.00456),(-1.833043,0.334157,6.00456),(-1.8288,0.3324,6.00456),(-1.8288,0.3324,4.9692),(-1.824557,0.334157,4.9692),(-1.8228,0.3384,4.9692),(-1.824557,0.342643,4.9692),(-1.8288,0.3444,4.9692),(-1.833043,0.342643,4.9692),(-1.8348,0.3384,4.9692),(-1.833043,0.334157,4.9692),(-1.8288,0.3324,4.9692),(-1.8288,0.3384,6.00456),(-1.8288,0.3384,6.00456),(-1.8288,0.3384,6.00456),(-1.8288,0.3384,6.00456),(-1.8288,0.3384,6.00456),(-1.8288,0.3384,6.00456),(-1.8288,0.3384,6.00456),(-1.8288,0.3384,6.00456),(-1.8288,0.3324,6.00456),(-1.824557,0.334157,6.00456),(-1.8228,0.3384,6.00456),(-1.824557,0.342643,6.00456),(-1.8288,0.3444,6.00456),(-1.833043,0.342643,6.00456),(-1.8348,0.3384,6.00456),(-1.833043,0.334157,6.00456),(-1.8288,0.3324,6.00456),(-1.8288,0.3384,4.9692),(-1.8288,0.3384,4.9692),(-1.8288,0.3384,4.9692),(-1.8288,0.3384,4.9692),(-1.8288,0.3384,4.9692),(-1.8288,0.3384,4.9692),(-1.8288,0.3384,4.9692),(-1.8288,0.3384,4.9692),(-1.8288,0.3324,4.9692),(-1.824557,0.334157,4.9692),(-1.8228,0.3384,4.9692),(-1.824557,0.342643,4.9692),(-1.8288,0.3444,4.9692),(-1.833043,0.342643,4.9692),(-1.8348,0.3384,4.9692),(-1.833043,0.334157,4.9692),(-1.8288,0.3324,4.9692),(-1.7988,1.7284,6.02456),(-1.7988,1.7884,6.02456),(-1.7988,1.7284,6.00456),(-1.7988,1.7884,6.00456),(-1.8588,1.7884,6.02456),(-1.8588,1.7284,6.02456),(-1.8588,1.7884,6.00456),(-1.8588,1.7284,6.00456),(-1.8588,1.7884,6.02456),(-1.7988,1.7884,6.02456),(-1.8588,1.7284,6.02456),(-1.7988,1.7284,6.02456),(-1.8588,1.7284,6.00456),(-1.7988,1.7284,6.00456),(-1.8588,1.7884,6.00456),(-1.7988,1.7884,6.00456),(-1.8588,1.7284,6.02456),(-1.7988,1.7284,6.02456),(-1.8588,1.7284,6.00456),(-1.7988,1.7284,6.00456),(-1.7988,1.7884,6.02456),(-1.8588,1.7884,6.02456),(-1.7988,1.7884,6.00456),(-1.8588,1.7884,6.00456),(-1.7988,0.3084,6.02456),(-1.7988,0.3684,6.02456),(-1.7988,0.3084,6.00456),(-1.7988,0.3684,6.00456),(-1.8588,0.3684,6.02456),(-1.8588,0.3084,6.02456),(-1.8588,0.3684,6.00456),(-1.8588,0.3084,6.00456),(-1.8588,0.3684,6.02456),(-1.7988,0.3684,6.02456),(-1.8588,0.3084,6.02456),(-1.7988,0.3084,6.02456),(-1.8588,0.3084,6.00456),(-1.7988,0.3084,6.00456),(-1.8588,0.3684,6.00456),(-1.7988,0.3684,6.00456),(-1.8588,0.3084,6.02456),(-1.7988,0.3084,6.02456),(-1.8588,0.3084,6.00456),(-1.7988,0.3084,6.00456),(-1.7988,0.3684,6.02456),(-1.8588,0.3684,6.02456),(-1.7988,0.3684,6.00456),(-1.8588,0.3684,6.00456)));
#310=IFCTRIANGULATEDFACESET(#309,$,$,((1,3,2),(3,4,2),(5,7,6),(7,8,6),(9,11,10),(11,12,10),(13,15,14),(15,16,14),(17,19,18),(19,20,18),(21,23,22),(23,24,22),(25,34,26),(34,35,26),(26,35,27),(35,36,27),(27,36,28),(36,37,28),(28,37,29),(37,38,29),(29,38,30),(38,39,30),(30,39,31),(39,40,31),(31,40,32),(40,41,32),(32,41,33),(41,42,33),(51,52,43),(52,53,44),(53,54,45),(54,55,46),(55,56,47),(56,57,48),(57,58,49),(58,59,50),(69,68,60),(70,69,61),(71,70,62),(72,71,63),(73,72,64),(74,73,65),(75,74,66),(76,75,67),(77,86,78),(86,87,78),(78,87,79),(87,88,79),(79,88,80),(88,89,80),(80,89,81),(89,90,81),(81,90,82),(90,91,82),(82,91,83),(91,92,83),(83,92,84),(92,93,84),(84,93,85),(93,94,85),(103,104,95),(104,105,96),(105,106,97),(106,107,98),(107,108,99),(108,109,100),(109,110,101),(110,111,102),(121,120,112),(122,121,113),(123,122,114),(124,123,115),(125,124,116),(126,125,117),(127,126,118),(128,127,119),(129,131,130),(131,132,130),(133,135,134),(135,136,134),(137,139,138),(139,140,138),(141,143,142),(143,144,142),(145,147,146),(147,148,146),(149,151,150),(151,152,150),(153,155,154),(155,156,154),(157,159,158),(159,160,158),(161,163,162),(163,164,162),(165,167,166),(167,168,166),(169,171,170),(171,172,170),(173,175,174),(175,176,174)),$);
#311=IFCSTYLEDITEM(#310,(#88),'trapeze_02');
#312=IFCCARTESIANPOINTLIST3D(((0.6301,0.2884,4.9897),(0.6301,1.8084,4.9897),(0.6301,0.2884,4.9487),(0.6301,1.8084,4.9487),(0.5891,1.8084,4.9897),(0.5891,0.2884,4.9897),(0.5891,1.8084,4.9487),(0.5891,0.2884,4.9487),(0.5891,1.8084,4.9897),(0.6301,1.8084,4.9897),(0.5891,0.2884,4.9897),(0.6301,0.2884,4.9897),(0.5891,0.2884,4.9487),(0.6301,0.2884,4.9487),(0.5891,1.8084,4.9487),(0.6301,1.8084,4.9487),(0.5891,0.2884,4.9897),(0.6301,0.2884,4.9897),(0.5891,0.2884,4.9487),(0.6301,0.2884,4.9487),(0.6301,1.8084,4.9897),(0.5891,1.8084,4.9897),(0.6301,1.8084,4.9487),(0.5891,1.8084,4.9487),(0.6096,1.7524,6.00456),(0.613843,1.754157,6.00456),(0.6156,1.7584,6.00456),(0.613843,1.762643,6.00456),(0.6096,1.7644,6.00456),(0.605357,1.762643,6.00456),(0.6036,1.7584,6.00456),(0.605357,1.754157,6.00456),(0.6096,1.7524,6.00456),(0.6096,1.7524,4.9692),(0.613843,1.754157,4.9692),(0.6156,1.7584,4.9692),(0.613843,1.762643,4.9692),(0.6096,1.7644,4.9692),(0.605357,1.762643,4.9692),(0.6036,1.7584,4.9692),(0.605357,1.754157,4.9692),(0.6096,1.7524,4.9692),(0.6096,1.7584,6.00456),(0.6096,1.7584,6.00456),(0.6096,1.7584,6.00456),(0.6096,1.7584,6.00456),(0.6096,1.7584,6.00456),(0.6096,1.7584,6.00456),(0.6096,1.7584,6.00456),(0.6096,1.7584,6.00456),(0.6096,1.7524,6.00456),(0.613843,1.754157,6.00456),(0.6156,1.7584,6.00456),(0.613843,1.762643,6.00456),(0.6096,1.7644,6.00456),(0.605357,1.762643,6.00456),(0.6036,1.7584,6.00456),(0.605357,1.754157,6.00456),(0.6096,1.7524,6.00456),(0.6096,1.7584,4.9692),(0.6096,1.7584,4.9692),(0.6096,1.7584,4.9692),(0.6096,1.7584,4.9692),(0.6096,1.7584,4.9692),(0.6096,1.7584,4.9692),(0.6096,1.7584,4.9692),(0.6096,1.7584,4.9692),(0.6096,1.7524,4.9692),(0.613843,1.754157,4.9692),(0.6156,1.7584,4.9692),(0.613843,1.762643,4.9692),(0.6096,1.7644,4.9692),(0.605357,1.762643,4.9692),(0.6036,1.7584,4.9692),(0.605357,1.754157,4.9692),(0.6096,1.7524,4.9692),(0.6096,0.3324,6.00456),(0.613843,0.334157,6.00456),(0.6156,0.3384,6.00456),(0.613843,0.342643,6.00456),(0.6096,0.3444,6.00456),(0.605357,0.342643,6.00456),(0.6036,0.3384,6.00456),(0.605357,0.334157,6.00456),(0.6096,0.3324,6.00456),(0.6096,0.3324,4.9692),(0.613843,0.334157,4.9692),(0.6156,0.3384,4.9692),(0.613843,0.342643,4.9692),(0.6096,0.3444,4.9692),(0.605357,0.342643,4.9692),(0.6036,0.3384,4.9692),(0.605357,0.334157,4.9692),(0.6096,0.3324,4.9692),(0.6096,0.3384,6.00456),(0.6096,0.3384,6.00456),(0.6096,0.3384,6.00456),(0.6096,0.3384,6.00456),(0.6096,0.3384,6.00456),(0.6096,0.3384,6.00456),(0.6096,0.3384,6.00456),(0.6096,0.3384,6.00456),(0.6096,0.3324,6.00456),(0.613843,0.334157,6.00456),(0.6156,0.3384,6.00456),(0.613843,0.342643,6.00456),(0.6096,0.3444,6.00456),(0.605357,0.342643,6.00456),(0.6036,0.3384,6.00456),(0.605357,0.334157,6.00456),(0.6096,0.3324,6.00456),(0.6096,0.3384,4.9692),(0.6096,0.3384,4.9692),(0.6096,0.3384,4.9692),(0.6096,0.3384,4.9692),(0.6096,0.3384,4.9692),(0.6096,0.3384,4.9692),(0.6096,0.3384,4.9692),(0.6096,0.3384,4.9692),(0.6096,0.3324,4.9692),(0.613843,0.334157,4.9692),(0.6156,0.3384,4.9692),(0.613843,0.342643,4.9692),(0.6096,0.3444,4.9692),(0.605357,0.342643,4.9692),(0.6036,0.3384,4.9692),(0.605357,0.334157,4.9692),(0.6096,0.3324,4.9692),(0.6396,1.7284,6.02456),(0.6396,1.7884,6.02456),(0.6396,1.7284,6.00456),(0.6396,1.7884,6.00456),(0.5796,1.7884,6.02456),(0.5796,1.7284,6.02456),(0.5796,1.7884,6.00456),(0.5796,1.7284,6.00456),(0.5796,1.7884,6.02456),(0.6396,1.7884,6.02456),(0.5796,1.7284,6.02456),(0.6396,1.7284,6.02456),(0.5796,1.7284,6.00456),(0.6396,1.7284,6.00456),(0.5796,1.7884,6.00456),(0.6396,1.7884,6.00456),(0.5796,1.7284,6.02456),(0.6396,1.7284,6.02456),(0.5796,1.7284,6.00456),(0.6396,1.7284,6.00456),(0.6396,1.7884,6.02456),(0.5796,1.7884,6.02456),(0.6396,1.7884,6.00456),(0.5796,1.7884,6.00456),(0.6396,0.3084,6.02456),(0.6396,0.3684,6.02456),(0.6396,0.3084,6.00456),(0.6396,0.3684,6.00456),(0.5796,0.3684,6.02456),(0.5796,0.3084,6.02456),(0.5796,0.3684,6.00456),(0.5796,0.3084,6.00456),(0.5796,0.3684,6.02456),(0.6396,0.3684,6.02456),(0.5796,0.3084,6.02456),(0.6396,0.3084,6.02456),(0.5796,0.3084,6.00456),(0.6396,0.3084,6.00456),(0.5796,0.3684,6.00456),(0.6396,0.3684,6.00456),(0.5796,0.3084,6.02456),(0.6396,0.3084,6.02456),(0.5796,0.3084,6.00456),(0.6396,0.3084,6.00456),(0.6396,0.3684,6.02456),(0.5796,0.3684,6.02456),(0.6396,0.3684,6.00456),(0.5796,0.3684,6.00456)));
#313=IFCTRIANGULATEDFACESET(#312,$,$,((1,3,2),(3,4,2),(5,7,6),(7,8,6),(9,11,10),(11,12,10),(13,15,14),(15,16,14),(17,19,18),(19,20,18),(21,23,22),(23,24,22),(25,34,26),(34,35,26),(26,35,27),(35,36,27),(27,36,28),(36,37,28),(28,37,29),(37,38,29),(29,38,30),(38,39,30),(30,39,31),(39,40,31),(31,40,32),(40,41,32),(32,41,33),(41,42,33),(51,52,43),(52,53,44),(53,54,45),(54,55,46),(55,56,47),(56,57,48),(57,58,49),(58,59,50),(69,68,60),(70,69,61),(71,70,62),(72,71,63),(73,72,64),(74,73,65),(75,74,66),(76,75,67),(77,86,78),(86,87,78),(78,87,79),(87,88,79),(79,88,80),(88,89,80),(80,89,81),(89,90,81),(81,90,82),(90,91,82),(82,91,83),(91,92,83),(83,92,84),(92,93,84),(84,93,85),(93,94,85),(103,104,95),(104,105,96),(105,106,97),(106,107,98),(107,108,99),(108,109,100),(109,110,101),(110,111,102),(121,120,112),(122,121,113),(123,122,114),(124,123,115),(125,124,116),(126,125,117),(127,126,118),(128,127,119),(129,131,130),(131,132,130),(133,135,134),(135,136,134),(137,139,138),(139,140,138),(141,143,142),(143,144,142),(145,147,146),(147,148,146),(149,151,150),(151,152,150),(153,155,154),(155,156,154),(157,159,158),(159,160,158),(161,163,162),(163,164,162),(165,167,166),(167,168,166),(169,171,170),(171,172,170),(173,175,174),(175,176,174)),$);
#314=IFCSTYLEDITEM(#313,(#88),'trapeze_03');
#315=IFCCARTESIANPOINTLIST3D(((3.0685,0.2884,4.9897),(3.0685,1.8084,4.9897),(3.0685,0.2884,4.9487),(3.0685,1.8084,4.9487),(3.0275,1.8084,4.9897),(3.0275,0.2884,4.9897),(3.0275,1.8084,4.9487),(3.0275,0.2884,4.9487),(3.0275,1.8084,4.9897),(3.0685,1.8084,4.9897),(3.0275,0.2884,4.9897),(3.0685,0.2884,4.9897),(3.0275,0.2884,4.9487),(3.0685,0.2884,4.9487),(3.0275,1.8084,4.9487),(3.0685,1.8084,4.9487),(3.0275,0.2884,4.9897),(3.0685,0.2884,4.9897),(3.0275,0.2884,4.9487),(3.0685,0.2884,4.9487),(3.0685,1.8084,4.9897),(3.0275,1.8084,4.9897),(3.0685,1.8084,4.9487),(3.0275,1.8084,4.9487),(3.048,1.7524,6.00456),(3.052243,1.754157,6.00456),(3.054,1.7584,6.00456),(3.052243,1.762643,6.00456),(3.048,1.7644,6.00456),(3.043757,1.762643,6.00456),(3.042,1.7584,6.00456),(3.043757,1.754157,6.00456),(3.048,1.7524,6.00456),(3.048,1.7524,4.9692),(3.052243,1.754157,4.9692),(3.054,1.7584,4.9692),(3.052243,1.762643,4.9692),(3.048,1.7644,4.9692),(3.043757,1.762643,4.9692),(3.042,1.7584,4.9692),(3.043757,1.754157,4.9692),(3.048,1.7524,4.9692),(3.048,1.7584,6.00456),(3.048,1.7584,6.00456),(3.048,1.7584,6.00456),(3.048,1.7584,6.00456),(3.048,1.7584,6.00456),(3.048,1.7584,6.00456),(3.048,1.7584,6.00456),(3.048,1.7584,6.00456),(3.048,1.7524,6.00456),(3.052243,1.754157,6.00456),(3.054,1.7584,6.00456),(3.052243,1.762643,6.00456),(3.048,1.7644,6.00456),(3.043757,1.762643,6.00456),(3.042,1.7584,6.00456),(3.043757,1.754157,6.00456),(3.048,1.7524,6.00456),(3.048,1.7584,4.9692),(3.048,1.7584,4.9692),(3.048,1.7584,4.9692),(3.048,1.7584,4.9692),(3.048,1.7584,4.9692),(3.048,1.7584,4.9692),(3.048,1.7584,4.9692),(3.048,1.7584,4.9692),(3.048,1.7524,4.9692),(3.052243,1.754157,4.9692),(3.054,1.7584,4.9692),(3.052243,1.762643,4.9692),(3.048,1.7644,4.9692),(3.043757,1.762643,4.9692),(3.042,1.7584,4.9692),(3.043757,1.754157,4.9692),(3.048,1.7524,4.9692),(3.048,0.3324,6.00456),(3.052243,0.334157,6.00456),(3.054,0.3384,6.00456),(3.052243,0.342643,6.00456),(3.048,0.3444,6.00456),(3.043757,0.342643,6.00456),(3.042,0.3384,6.00456),(3.043757,0.334157,6.00456),(3.048,0.3324,6.00456),(3.048,0.3324,4.9692),(3.052243,0.334157,4.9692),(3.054,0.3384,4.9692),(3.052243,0.342643,4.9692),(3.048,0.3444,4.9692),(3.043757,0.342643,4.9692),(3.042,0.3384,4.9692),(3.043757,0.334157,4.9692),(3.048,0.3324,4.9692),(3.048,0.3384,6.00456),(3.048,0.3384,6.00456),(3.048,0.3384,6.00456),(3.048,0.3384,6.00456),(3.048,0.3384,6.00456),(3.048,0.3384,6.00456),(3.048,0.3384,6.00456),(3.048,0.3384,6.00456),(3.048,0.3324,6.00456),(3.052243,0.334157,6.00456),(3.054,0.3384,6.00456),(3.052243,0.342643,6.00456),(3.048,0.3444,6.00456),(3.043757,0.342643,6.00456),(3.042,0.3384,6.00456),(3.043757,0.334157,6.00456),(3.048,0.3324,6.00456),(3.048,0.3384,4.9692),(3.048,0.3384,4.9692),(3.048,0.3384,4.9692),(3.048,0.3384,4.9692),(3.048,0.3384,4.9692),(3.048,0.3384,4.9692),(3.048,0.3384,4.9692),(3.048,0.3384,4.9692),(3.048,0.3324,4.9692),(3.052243,0.334157,4.9692),(3.054,0.3384,4.9692),(3.052243,0.342643,4.9692),(3.048,0.3444,4.9692),(3.043757,0.342643,4.9692),(3.042,0.3384,4.9692),(3.043757,0.334157,4.9692),(3.048,0.3324,4.9692),(3.078,1.7284,6.02456),(3.078,1.7884,6.02456),(3.078,1.7284,6.00456),(3.078,1.7884,6.00456),(3.018,1.7884,6.02456),(3.018,1.7284,6.02456),(3.018,1.7884,6.00456),(3.018,1.7284,6.00456),(3.018,1.7884,6.02456),(3.078,1.7884,6.02456),(3.018,1.7284,6.02456),(3.078,1.7284,6.02456),(3.018,1.7284,6.00456),(3.078,1.7284,6.00456),(3.018,1.7884,6.00456),(3.078,1.7884,6.00456),(3.018,1.7284,6.02456),(3.078,1.7284,6.02456),(3.018,1.7284,6.00456),(3.078,1.7284,6.00456),(3.078,1.7884,6.02456),(3.018,1.7884,6.02456),(3.078,1.7884,6.00456),(3.018,1.7884,6.00456),(3.078,0.3084,6.02456),(3.078,0.3684,6.02456),(3.078,0.3084,6.00456),(3.078,0.3684,6.00456),(3.018,0.3684,6.02456),(3.018,0.3084,6.02456),(3.018,0.3684,6.00456),(3.018,0.3084,6.00456),(3.018,0.3684,6.02456),(3.078,0.3684,6.02456),(3.018,0.3084,6.02456),(3.078,0.3084,6.02456),(3.018,0.3084,6.00456),(3.078,0.3084,6.00456),(3.018,0.3684,6.00456),(3.078,0.3684,6.00456),(3.018,0.3084,6.02456),(3.078,0.3084,6.02456),(3.018,0.3084,6.00456),(3.078,0.3084,6.00456),(3.078,0.3684,6.02456),(3.018,0.3684,6.02456),(3.078,0.3684,6.00456),(3.018,0.3684,6.00456)));
#316=IFCTRIANGULATEDFACESET(#315,$,$,((1,3,2),(3,4,2),(5,7,6),(7,8,6),(9,11,10),(11,12,10),(13,15,14),(15,16,14),(17,19,18),(19,20,18),(21,23,22),(23,24,22),(25,34,26),(34,35,26),(26,35,27),(35,36,27),(27,36,28),(36,37,28),(28,37,29),(37,38,29),(29,38,30),(38,39,30),(30,39,31),(39,40,31),(31,40,32),(40,41,32),(32,41,33),(41,42,33),(51,52,43),(52,53,44),(53,54,45),(54,55,46),(55,56,47),(56,57,48),(57,58,49),(58,59,50),(69,68,60),(70,69,61),(71,70,62),(72,71,63),(73,72,64),(74,73,65),(75,74,66),(76,75,67),(77,86,78),(86,87,78),(78,87,79),(87,88,79),(79,88,80),(88,89,80),(80,89,81),(89,90,81),(81,90,82),(90,91,82),(82,91,83),(91,92,83),(83,92,84),(92,93,84),(84,93,85),(93,94,85),(103,104,95),(104,105,96),(105,106,97),(106,107,98),(107,108,99),(108,109,100),(109,110,101),(110,111,102),(121,120,112),(122,121,113),(123,122,114),(124,123,115),(125,124,116),(126,125,117),(127,126,118),(128,127,119),(129,131,130),(131,132,130),(133,135,134),(135,136,134),(137,139,138),(139,140,138),(141,143,142),(143,144,142),(145,147,146),(147,148,146),(149,151,150),(151,152,150),(153,155,154),(155,156,154),(157,159,158),(159,160,158),(161,163,162),(163,164,162),(165,167,166),(167,168,166),(169,171,170),(171,172,170),(173,175,174),(175,176,174)),$);
#317=IFCSTYLEDITEM(#316,(#88),'trapeze_04');
#318=IFCSHAPEREPRESENTATION(#11,'Body','Tessellation',(#307,#310,#313,#316));
#319=IFCPRODUCTDEFINITIONSHAPE($,$,(#318));
#320=IFCLOCALPLACEMENT(#25,#9);
#321=IFCDISCRETEACCESSORY('3PwxoDEU6RTNBkPNIHha$b',#5,'Trapeze hangers \X2\2014\X0\ 1-5/8 in strut on 3/8 in rods, rack at 16 ft 6 in AFF',$,$,#320,#319,'HANGERS',.BRACKET.);
#322=IFCPROPERTYSINGLEVALUE('StrutSize',$,IFCLABEL('1-5/8 in x 1-5/8 in, 12 ga'),$);
#323=IFCPROPERTYSINGLEVALUE('StrutLengthEach',$,IFCLENGTHMEASURE(1.7),$);
#324=IFCPROPERTYSINGLEVALUE('RodSize',$,IFCLABEL('3/8 in-16 threaded rod'),$);
#325=IFCPROPERTYSINGLEVALUE('RodLengthEach',$,IFCLENGTHMEASURE(1.03536),$);
#326=IFCPROPERTYSINGLEVALUE('SpacingFt',$,IFCREAL(8.),$);
#327=IFCPROPERTYSET('3IGg0l0vz4YnuI8RqFo$k9',#5,'SupportSchedule',$,(#322,#323,#324,#325,#326));
#328=IFCRELDEFINESBYPROPERTIES('0vIPO1PDoPdYbEsAnguG4B',#5,$,$,(#321),#327);
#329=IFCRELCONTAINEDINSPATIALSTRUCTURE('31qnrqOXw2hbm0CztIpNjc',#5,$,$,(#53,#93,#120,#147,#174,#201,#228,#252,#275,#298,#321),#26);
ENDSEC;
END-ISO-10303-21;

